<svg xmlns="http://www.w3.org/2000/svg" viewBox="0 0 498.9 165.2" enable-background="new 0 0 498.9 165.2"><style type="text/css">.st0{fill:#FFFFFF;}</style><path class="st0" d="M475.6 165.2H23.4C10.5 165.2 0 154.7 0 141.8V23.4C0 10.5 10.5 0 23.4 0h452.2C488.5 0 499 10.5 499 23.4v118.4c-.1 12.9-10.6 23.4-23.4 23.4zM23.4 2.9c-11.3 0-20.5 9.2-20.5 20.5v118.4c0 11.3 9.2 20.5 20.5 20.5h452.2c11.3 0 20.5-9.2 20.5-20.5V23.4c0-11.3-9.2-20.5-20.5-20.5H23.4zM139.6 104.4c-2.2 4.9-3.2 7-6.1 11.3-3.9 6-9.5 13.4-16.3 13.5-6.1.1-7.7-4-15.9-3.9-8.3 0-10 4-16.1 3.9-6.9-.1-12.1-6.8-16-12.8-11-16.7-12.1-36.4-5.4-46.8 4.8-7.4 12.4-11.8 19.6-11.8 7.3 0 11.9 4 17.9 4 5.8 0 9.4-4 17.8-4 6.4 0 13.1 3.5 17.9 9.5-15.9 8.6-13.3 31 2.6 37.1zM112.6 51.1c3.1-3.9 5.4-9.5 4.5-15.1-5 .3-10.8 3.5-14.2 7.7-3.1 3.8-5.6 9.3-4.7 14.8 5.4.1 11.1-3.2 14.4-7.4zM196.4 73.5l-15.7 46.4h7.2l4.7-14.2h15.2l4.8 14.2h7.4l-15.8-46.4h-7.8zm3.8 7.6c.5 2.1 1.1 4.2 1.8 6.5l4.2 12.3h-12.1l4.2-12.4c.7-1.9 1.3-4.1 1.9-6.4zM240.4 85.5c-4.8 0-8.6 1.8-11.1 5.3l-.3-4.6h-6.4v.6c.2 2.9.3 6 .3 10.6v35.7h7v-16.7c2.2 2.6 5.6 4.1 9.6 4.1 4.1 0 7.9-1.6 10.6-4.5 3.1-3.2 4.7-7.9 4.7-13.5 0-4.9-1.4-9.2-4.1-12.3-2.6-3-6.2-4.7-10.3-4.7zm-1.7 5.8c6.3 0 9 5.8 9 11.5 0 7.4-3.6 12-9.3 12-3.9 0-7.3-2.7-8.3-6.5-.2-.6-.2-1.4-.2-2.3v-5.6c0-.5.1-1.1.2-1.7 0-.2.1-.4.1-.6 1.1-4 4.6-6.8 8.5-6.8zM276.6 85.5c-4.8 0-8.6 1.8-11.2 5.3l-.3-4.6h-6.4v.6c.2 2.9.3 6 .3 10.6v35.7h7v-16.7c2.2 2.6 5.6 4.1 9.6 4.1 4.1 0 7.9-1.6 10.6-4.5 3.1-3.2 4.7-7.9 4.7-13.5 0-4.9-1.4-9.2-4.1-12.3-2.5-3-6.2-4.7-10.2-4.7zm-1.8 5.8c6.2 0 9 5.8 9 11.5 0 7.4-3.6 12-9.3 12-3.9 0-7.3-2.7-8.3-6.5-.2-.6-.2-1.4-.2-2.3v-5.6c0-.5.1-1.1.2-1.7 0-.2.1-.4.1-.6 1.1-4 4.6-6.8 8.5-6.8zM321.8 93.1c-6.5-2.5-8.6-4.5-8.6-8.2 0-3.1 2.5-6.2 8-6.2 4.5 0 7.4 1.6 8.2 2.1l.6.4 2-5.9-.4-.2c-1.2-.7-4.5-2.3-10.2-2.3-8.9 0-15.2 5.3-15.2 12.8 0 6.1 3.9 10.4 12.3 13.4 6 2.2 8.2 4.5 8.2 8.4 0 4.4-3.4 7.2-8.9 7.2-3.6 0-7.3-1-10.1-2.9l-.6-.4-1.9 6 .3.2c2.6 1.8 7.6 3 11.9 3 12.1 0 16.3-7.3 16.3-13.6-.1-6.5-3.5-10.5-11.9-13.8zM346.3 78.3l-6.9 2.2v5.8h-5v5.6h5V109c0 4.2.8 7.1 2.4 8.9 1.6 1.7 4 2.7 6.8 2.7 2.7 0 4.5-.5 5.4-.8l.4-.1-.3-5.6-.7.2c-.9.3-1.8.4-3.3.4-2.7 0-3.9-1.7-3.9-5.8v-17h8.5v-5.6h-8.5v-8zM372.1 85.5c-9.8 0-16.7 7.3-16.7 17.8 0 10.2 6.6 17.3 16.1 17.3h.1c8 0 16.7-5.6 16.7-17.9 0-5-1.5-9.3-4.5-12.4-2.9-3.1-7-4.8-11.7-4.8zm-.2 5.5c6.3 0 9.2 6.2 9.2 11.9 0 7-3.9 12.1-9.3 12.1h-.1c-5.3 0-9.2-5-9.2-11.9 0-6 2.9-12.1 9.4-12.1zM409.8 85.8l-.4-.1c-.6-.2-1.1-.2-1.7-.2-3.7 0-7 2.2-8.8 5.6l-.2-4.9h-6.3v.6c.2 2.8.3 5.9.3 10.1l-.1 22.9h7V102c0-1 .1-1.9.2-2.7.8-4.3 3.7-7.1 7.4-7.1.7 0 1.3.1 1.9.1l.8.1v-6.6zM425.5 85.4c-9.3 0-15.9 7.5-15.9 18.1 0 10.3 6.5 16.9 16.5 16.9 5.3 0 9-1.2 11.1-2.1l.4-.2-1.3-5.2-.6.2c-1.9.8-4.5 1.6-8.8 1.6-3 0-10.1-1-10.5-10.2l22.6.1.1-.4c.1-.7.2-1.7.2-2.9.1-7.3-3.5-15.9-13.8-15.9zm-.4 5.4c2.1 0 3.9.7 5.1 2 2 2.1 2.4 5.1 2.4 6.5h-16c.7-4.1 3.2-8.5 8.5-8.5zM195.7 60.9c-1.4 0-2.7-.2-3.7-.7-1.1-.5-2-1.1-2.7-1.9-.7-.8-1.3-1.8-1.6-2.9-.4-1.1-.5-2.3-.5-3.7 0-1.3.2-2.6.6-3.7.4-1.1.9-2.1 1.7-2.9.7-.8 1.6-1.5 2.6-1.9 1-.5 2.2-.7 3.5-.7.8 0 1.6.1 2.4.2.8.1 1.5.3 2.3.6l-.7 2.7c-.5-.2-1-.4-1.6-.5-.6-.1-1.3-.2-2-.2-1.7 0-3.1.6-4 1.6-.9 1.1-1.4 2.7-1.4 4.8 0 .9.1 1.8.3 2.6.2.8.6 1.5 1 2 .5.6 1 1 1.8 1.3.7.3 1.6.5 2.6.5.8 0 1.6-.1 2.3-.2.7-.2 1.2-.3 1.6-.5l.4 2.6c-.2.1-.4.2-.8.3s-.7.2-1.1.3c-.4.1-.9.1-1.4.2-.7.1-1.1.1-1.6.1zM218.8 51.8c0 1.4-.2 2.6-.6 3.8-.4 1.1-1 2.1-1.7 2.9-.7.8-1.6 1.4-2.6 1.9-1 .4-2.1.7-3.3.7s-2.3-.2-3.3-.7c-1-.4-1.9-1.1-2.6-1.9-.7-.8-1.3-1.8-1.7-2.9-.4-1.1-.6-2.4-.6-3.8s.2-2.6.6-3.8c.4-1.1 1-2.1 1.7-2.9.7-.8 1.6-1.4 2.6-1.9 1-.4 2.1-.7 3.3-.7s2.3.2 3.3.7c1 .4 1.9 1.1 2.6 1.9.7.8 1.3 1.8 1.7 2.9.4 1.2.6 2.4.6 3.8zm-3.3 0c0-2-.4-3.5-1.3-4.7-.9-1.2-2.1-1.7-3.6-1.7s-2.7.6-3.6 1.7c-.9 1.2-1.3 2.7-1.3 4.7s.4 3.5 1.3 4.7c.9 1.2 2.1 1.7 3.6 1.7s2.7-.6 3.6-1.7c.9-1.2 1.3-2.7 1.3-4.7zM223.2 43.5c.7-.2 1.7-.4 2.9-.6s2.6-.3 4.1-.3c1.4 0 2.5.2 3.5.6.9.4 1.7.9 2.2 1.6.6.7.9 1.6 1.2 2.5.2 1 .3 2.1.3 3.3v9.8h-3.1v-9.2c0-1.1-.1-2-.2-2.8-.1-.8-.4-1.4-.7-1.9-.3-.5-.8-.8-1.3-1-.6-.2-1.3-.3-2.1-.3h-1c-.4 0-.7.1-1 .1-.3 0-.6.1-.9.1-.3 0-.4.1-.6.1v14.8h-3.1V43.5zM246.6 58.3c1.3 0 2.2-.2 2.8-.5s.9-.9.9-1.6c0-.8-.3-1.4-.9-1.8-.6-.4-1.6-1-3-1.5-.7-.3-1.3-.5-1.9-.8-.6-.3-1.1-.6-1.6-1-.4-.4-.8-.8-1.1-1.4-.3-.5-.4-1.2-.4-2 0-1.5.6-2.8 1.7-3.7 1.1-.9 2.7-1.4 4.7-1.4.5 0 1 0 1.5.1s1 .1 1.4.2c.4.1.8.2 1.1.3.3.1.6.2.8.2l-.6 2.7c-.3-.2-.9-.4-1.6-.6-.7-.2-1.6-.3-2.6-.3-.9 0-1.6.2-2.3.5-.7.3-1 .9-1 1.6 0 .4.1.7.2 1 .1.3.4.6.7.8.3.2.7.5 1.1.7.4.2 1 .4 1.6.6.8.3 1.6.6 2.2.9.7.3 1.2.7 1.7 1.1.5.4.8.9 1.1 1.5.2.6.4 1.3.4 2.1 0 1.6-.6 2.8-1.8 3.7s-2.9 1.2-5.1 1.2c-1.5 0-2.8-.1-3.6-.4l-1.8-.6.6-2.7c.4.1.9.3 1.7.6.7.3 1.8.5 3.1.5zM263.1 36.4l-4.7 4.6-1.6-1.4 4.3-5.2 2 2zm-2.5 24.1h-3.1V43h3.1v17.5zM277 58.8c-.3.2-.8.4-1.6.7-.8.3-1.7.4-2.7.4-1.1 0-2-.2-3-.5-.9-.3-1.7-.9-2.4-1.6-.7-.7-1.2-1.6-1.6-2.6-.4-1.1-.6-2.3-.6-3.8 0-1.3.2-2.5.6-3.5.4-1.1.9-2 1.7-2.8.7-.8 1.6-1.4 2.7-1.8 1.1-.4 2.2-.7 3.6-.7 1.5 0 2.7.1 3.8.3 1.1.2 2 .4 2.7.6v15.6c0 2.7-.7 4.6-2.1 5.9-1.4 1.2-3.5 1.8-6.3 1.8-1.1 0-2.1-.1-3.1-.3-1-.2-1.8-.4-2.5-.6l.6-2.7c.6.2 1.4.5 2.3.7.9.2 1.9.3 2.8.3 1.9 0 3.2-.4 4-1.1.8-.7 1.2-1.9 1.2-3.5v-.8zm-.1-13c-.3-.1-.7-.2-1.3-.3-.5-.1-1.2-.1-2.1-.1-1.7 0-3 .5-3.9 1.6-.9 1.1-1.4 2.6-1.4 4.4 0 1 .1 1.9.4 2.6.3.7.6 1.3 1 1.8s.9.8 1.5 1c.6.2 1.2.3 1.8.3.8 0 1.6-.1 2.3-.4.7-.2 1.2-.5 1.6-.8V45.8zM299.4 60c-.7.2-1.7.4-2.8.6-1.2.2-2.5.3-4.1.3-1.3 0-2.5-.2-3.4-.6-.9-.4-1.7-.9-2.2-1.7-.6-.7-1-1.6-1.2-2.5-.2-1-.4-2.1-.4-3.2V43h3.1v9.2c0 2.1.3 3.7 1 4.6.7.9 1.8 1.4 3.4 1.4h1c.4 0 .7-.1 1-.1.3 0 .6-.1.9-.1.3 0 .4-.1.6-.1V43h3.1v17zM303.8 51.8c0-1.5.2-2.9.7-4.1.5-1.2 1-2.1 1.8-2.9.7-.8 1.6-1.3 2.6-1.7 1-.4 2-.6 3-.6 2.4 0 4.2.7 5.4 2.2 1.3 1.5 1.9 3.7 1.9 6.7v1.1h-12c.1 1.8.7 3.2 1.6 4.1.9.9 2.4 1.4 4.3 1.4 1.1 0 2-.1 2.8-.3.8-.2 1.3-.4 1.7-.6l.4 2.6c-.4.2-1 .4-2 .6-1 .2-2 .3-3.2.3-1.5 0-2.8-.2-4-.7-1.1-.5-2-1.1-2.7-1.9-.7-.8-1.2-1.8-1.6-2.9-.5-.7-.7-2-.7-3.3zm12-1.7c0-1.4-.3-2.6-1.1-3.5-.7-.9-1.7-1.4-3-1.4-.7 0-1.4.1-1.9.4-.5.3-1 .6-1.4 1.1-.4.5-.7 1-.9 1.5-.2.6-.4 1.2-.4 1.8h8.7zM328.8 60.9c-1.9 0-3.3-.5-4.1-1.2-.8-.8-1.2-2-1.2-3.7V35l3.1-.5v21c0 .5 0 .9.1 1.3.1.3.2.6.4.8.2.2.5.4.8.5.3.1.8.2 1.2.3l-.3 2.5zM338.4 42.6c1.3 0 2.3.2 3.2.5.9.3 1.6.8 2.1 1.4.5.6.9 1.3 1.1 2.1.2.8.3 1.7.3 2.7v10.9c-.3 0-.6.1-1.1.2-.5.1-1 .2-1.6.2-.6.1-1.3.1-2 .2s-1.4.1-2.1.1c-1 0-1.9-.1-2.7-.3-.8-.2-1.5-.5-2.2-1-.6-.4-1.1-1-1.4-1.7-.3-.7-.5-1.6-.5-2.6s.2-1.8.6-2.5c.4-.7.9-1.3 1.6-1.7.7-.4 1.5-.7 2.4-.9.9-.2 1.8-.3 2.8-.3.3 0 .6 0 1 .1.3 0 .7.1 1 .1.3.1.6.1.8.2.2 0 .4.1.5.1v-.9c0-.5-.1-1-.2-1.5s-.3-1-.6-1.3c-.3-.4-.7-.7-1.2-.9-.5-.2-1.2-.4-2-.4-1 0-1.9.1-2.7.2s-1.4.3-1.7.5l-.4-2.6c.4-.2 1.1-.4 2-.5.9-.3 1.9-.4 3-.4zm.3 15.7c.7 0 1.4 0 2-.1.6 0 1-.1 1.4-.2v-5.2c-.2-.1-.6-.2-1.1-.3-.5-.1-1.1-.1-1.8-.1-.5 0-1 0-1.5.1s-1 .2-1.4.4c-.4.2-.8.5-1.1.9s-.4.9-.4 1.5c0 1.1.4 1.9 1.1 2.3.6.5 1.5.7 2.8.7zM357.1 51.8c0-1.5.2-2.9.7-4.1.5-1.2 1-2.1 1.8-2.9.7-.8 1.6-1.3 2.6-1.7 1-.4 2-.6 3-.6 2.4 0 4.2.7 5.4 2.2 1.3 1.5 1.9 3.7 1.9 6.7v1.1h-12c.1 1.8.7 3.2 1.6 4.1.9.9 2.4 1.4 4.3 1.4 1.1 0 2-.1 2.8-.3.8-.2 1.3-.4 1.7-.6l.4 2.6c-.4.2-1 .4-2 .6-1 .2-2 .3-3.2.3-1.5 0-2.8-.2-4-.7-1.1-.5-2-1.1-2.7-1.9-.7-.8-1.2-1.8-1.6-2.9-.5-.7-.7-2-.7-3.3zm12-1.7c0-1.4-.3-2.6-1.1-3.5-.7-.9-1.7-1.4-3-1.4-.7 0-1.4.1-1.9.4-.5.3-1 .6-1.4 1.1-.4.5-.7 1-.9 1.5-.2.6-.4 1.2-.4 1.8h8.7zM376.9 43.5c.7-.2 1.7-.4 2.9-.6s2.6-.3 4.1-.3c1.4 0 2.5.2 3.5.6.9.4 1.7.9 2.2 1.6.6.7.9 1.6 1.2 2.5.2 1 .3 2.1.3 3.3v9.8H388v-9.2c0-1.1-.1-2-.2-2.8-.1-.8-.4-1.4-.7-1.9-.3-.5-.8-.8-1.3-1-.6-.2-1.3-.3-2.1-.3h-1c-.4 0-.7.1-1 .1-.3 0-.6.1-.9.1-.3 0-.4.1-.6.1v14.8h-3.1V43.5z"/></svg>