<svg xmlns="http://www.w3.org/2000/svg" viewBox="0 0 190 62.9" enable-background="new 0 0 190 62.9"><style type="text/css">.st0{fill:#212121;}</style><path class="st0" d="M181.1 62.9H8.9C4 62.9 0 58.9 0 54V8.9C0 4 4 0 8.9 0h172.2c4.9 0 8.9 4 8.9 8.9V54c0 4.9-4 8.9-8.9 8.9zM8.9 1.1c-4.3 0-7.8 3.5-7.8 7.8V54c0 4.3 3.5 7.8 7.8 7.8h172.2c4.3 0 7.8-3.5 7.8-7.8V8.9c0-4.3-3.5-7.8-7.8-7.8H8.9zM53.1 39.7c-.8 1.8-1.2 2.7-2.3 4.3-1.5 2.3-3.6 5.1-6.2 5.1-2.3 0-2.9-1.5-6.1-1.5-3.2 0-3.8 1.5-6.1 1.5-2.6 0-4.6-2.6-6.1-4.9-4.2-6.4-4.6-13.9-2-17.8 1.8-2.8 4.7-4.5 7.5-4.5s4.5 1.5 6.8 1.5c2.2 0 3.6-1.5 6.8-1.5 2.4 0 5 1.3 6.8 3.6-6.1 3.4-5.1 12 .9 14.2zM42.9 19.5c1.2-1.5 2-3.6 1.7-5.8-1.9.1-4.1 1.3-5.4 2.9-1.2 1.4-2.2 3.6-1.8 5.6 2.1.1 4.2-1.1 5.5-2.7zM74.8 28l-6 17.7h2.7l1.8-5.4h5.8l1.8 5.4h2.8l-6-17.7h-2.9zm1.4 2.9c.2.8.4 1.6.7 2.5l1.6 4.7h-4.6l1.6-4.7c.3-.8.5-1.6.7-2.5zM91.6 32.6c-1.8 0-3.3.7-4.2 2l-.1-1.8h-2.4v.2c.1 1.1.1 2.3.1 4v13.6h2.7v-6.3c.8 1 2.2 1.6 3.7 1.6 1.6 0 3-.6 4-1.7 1.2-1.2 1.8-3 1.8-5.1 0-1.9-.5-3.5-1.6-4.7-1.1-1.2-2.5-1.8-4-1.8zm-.7 2.2c2.4 0 3.4 2.2 3.4 4.4 0 2.8-1.4 4.6-3.5 4.6-1.5 0-2.8-1-3.1-2.5-.1-.2-.1-.5-.1-.9v-2.1c0-.2 0-.4.1-.7v-.2c.4-1.6 1.7-2.6 3.2-2.6zM105.3 32.6c-1.8 0-3.3.7-4.2 2l-.1-1.8h-2.4v.2c.1 1.1.1 2.3.1 4v13.6h2.7v-6.3c.8 1 2.2 1.6 3.6 1.6 1.6 0 3-.6 4-1.7 1.2-1.2 1.8-3 1.8-5.1 0-1.9-.5-3.5-1.6-4.7-1-1.2-2.3-1.8-3.9-1.8zm-.6 2.2c2.4 0 3.4 2.2 3.4 4.4 0 2.8-1.4 4.6-3.5 4.6-1.5 0-2.8-1-3.1-2.5-.1-.2-.1-.5-.1-.9v-2.1c0-.2 0-.4.1-.7v-.2c.3-1.6 1.7-2.6 3.2-2.6zM122.5 35.5c-2.5-1-3.3-1.7-3.3-3.1 0-1.2.9-2.4 3-2.4 1.7 0 2.8.6 3.1.8l.2.1.8-2.2-.1-.1c-.4-.3-1.7-.9-3.9-.9-3.4 0-5.8 2-5.8 4.9 0 2.3 1.5 3.9 4.7 5.1 2.3.8 3.1 1.7 3.1 3.2 0 1.7-1.3 2.7-3.4 2.7-1.4 0-2.8-.4-3.8-1.1l-.2-.1-.7 2.3.1.1c1 .7 2.9 1.2 4.5 1.2 4.6 0 6.2-2.8 6.2-5.2.1-2.6-1.3-4.1-4.5-5.3zM131.9 29.8l-2.6.8v2.2h-1.9V35h1.9v6.5c0 1.6.3 2.7.9 3.4.6.7 1.5 1 2.6 1 1 0 1.7-.2 2.1-.3l.1-.1-.1-2.1-.3.1c-.3.1-.7.1-1.2.1-1 0-1.5-.7-1.5-2.2V35h3.2v-2.1h-3.2v-3.1zM141.7 32.6c-3.7 0-6.3 2.8-6.3 6.8 0 3.9 2.5 6.6 6.1 6.6 3.1 0 6.3-2.1 6.3-6.8 0-1.9-.6-3.5-1.7-4.7-1.1-1.3-2.6-1.9-4.4-1.9zm-.1 2.1c2.4 0 3.5 2.3 3.5 4.5 0 2.7-1.5 4.6-3.5 4.6s-3.5-1.9-3.5-4.5c-.1-2.3 1.1-4.6 3.5-4.6zM156 32.7h-.2c-.2-.1-.4-.1-.7-.1-1.4 0-2.7.8-3.3 2.2l-.1-1.9h-2.4v.2c.1 1.1.1 2.2.1 3.8v8.7h2.7v-6.8c0-.4 0-.7.1-1 .3-1.6 1.4-2.7 2.8-2.7h1v-2.4zM162 32.5c-3.6 0-6 2.8-6 6.9 0 3.9 2.5 6.4 6.3 6.4 2 0 3.4-.4 4.2-.8l.2-.1-.5-2-.2.1c-.7.3-1.7.6-3.3.6-1.2 0-3.8-.4-4-3.9h8.6v-.2c.1-.3.1-.6.1-1.1-.1-2.6-1.4-5.9-5.4-5.9zm-.1 2.1c.8 0 1.5.3 2 .7.8.8.9 1.9.9 2.5h-6.1c.2-1.5 1.2-3.2 3.2-3.2zM74.5 23.2c-.5 0-1-.1-1.4-.3-.4-.2-.7-.4-1-.7-.3-.3-.5-.7-.6-1.1s-.2-.9-.2-1.4c0-.5.1-1 .2-1.4.1-.4.4-.8.6-1.1.3-.3.6-.6 1-.7.4-.2.8-.3 1.3-.3.3 0 .6 0 .9.1.3.1.6.1.9.2l-.3 1c-.2-.1-.4-.2-.6-.2-.2-.1-.5-.1-.7-.1-.7 0-1.2.2-1.5.6-.4.4-.5 1-.5 1.8 0 .4 0 .7.1 1 .1.3.2.6.4.8.2.2.4.4.7.5.3.1.6.2 1 .2.3 0 .6 0 .9-.1.3-.1.5-.1.6-.2l.2 1c-.1 0-.2.1-.3.1-.1 0-.3.1-.4.1-.2 0-.3.1-.5.1-.4.1-.6.1-.8.1zM83.3 19.7c0 .5-.1 1-.2 1.4-.2.4-.4.8-.6 1.1-.3.3-.6.5-1 .7-.4.2-.8.2-1.3.2s-.9-.1-1.3-.2c-.4-.2-.7-.4-1-.7-.3-.3-.5-.7-.6-1.1-.2-.4-.2-.9-.2-1.4 0-.5.1-1 .2-1.4.2-.4.4-.8.6-1.1.3-.3.6-.5 1-.7.4-.2.8-.2 1.3-.2s.9.1 1.3.2c.4.2.7.4 1 .7.3.3.5.7.6 1.1.1.4.2.9.2 1.4zm-1.2 0c0-.8-.2-1.3-.5-1.8-.3-.4-.8-.7-1.4-.7s-1 .2-1.4.7c-.3.4-.5 1-.5 1.8s.2 1.3.5 1.8c.3.4.8.7 1.4.7s1-.2 1.4-.7c.3-.4.5-1 .5-1.8zM85 16.6c.3-.1.6-.1 1.1-.2.5-.1 1-.1 1.6-.1.5 0 1 .1 1.3.2.4.1.6.4.8.6.2.3.4.6.4 1 .1.4.1.8.1 1.2V23h-1.2v-3.5c0-.4 0-.8-.1-1.1-.1-.3-.1-.5-.3-.7-.1-.2-.3-.3-.5-.4-.2-.1-.5-.1-.8-.1h-1.3V23H85v-6.4zM93.9 22.2c.5 0 .8-.1 1.1-.2.2-.1.4-.3.4-.6s-.1-.5-.3-.7c-.2-.2-.6-.4-1.1-.6-.3-.1-.5-.2-.7-.3-.2-.1-.4-.2-.6-.4-.2-.1-.3-.3-.4-.5-.1-.2-.2-.5-.2-.8 0-.6.2-1.1.7-1.4.4-.3 1-.5 1.8-.5h.6c.2 0 .4 0 .5.1.2 0 .3.1.4.1.1 0 .2.1.3.1l-.2 1c-.1-.1-.3-.1-.6-.2s-.6-.1-1-.1c-.3 0-.6.1-.9.2-.2.1-.4.3-.4.6 0 .1 0 .3.1.4.1.1.1.2.3.3.1.1.3.2.4.2.2.1.4.2.6.2.3.1.6.2.8.4.2.1.5.2.6.4.2.2.3.3.4.6.1.2.1.5.1.8 0 .6-.2 1.1-.7 1.4-.5.3-1.1.5-2 .5-.6 0-1.1 0-1.4-.1-.3-.1-.6-.2-.7-.2l.2-1c.1.1.4.1.7.2.3 0 .7.1 1.2.1zM100.2 13.9l-1.8 1.8-.6-.5 1.6-2 .8.7zm-1 9.1H98v-6.7h1.2V23zM105.5 22.4c-.1.1-.3.2-.6.3-.3.1-.6.2-1 .2s-.8-.1-1.1-.2c-.4-.1-.7-.3-.9-.6-.3-.3-.5-.6-.6-1-.2-.4-.2-.9-.2-1.4 0-.5.1-.9.2-1.3s.4-.8.6-1.1c.3-.3.6-.5 1-.7.4-.2.9-.2 1.4-.2.6 0 1 0 1.5.1.4.1.8.2 1 .2v5.9c0 1-.3 1.8-.8 2.2-.5.5-1.3.7-2.4.7-.4 0-.8 0-1.2-.1-.4-.1-.7-.1-1-.2l.2-1c.2.1.5.2.9.2.3.1.7.1 1.1.1.7 0 1.2-.1 1.5-.4.3-.3.5-.7.5-1.3v-.4zm0-5c-.1 0-.3-.1-.5-.1h-.8c-.6 0-1.1.2-1.5.6-.3.4-.5 1-.5 1.7 0 .4 0 .7.1 1 .1.3.2.5.4.7.2.2.4.3.6.4.2.1.4.1.7.1.3 0 .6 0 .9-.1.3-.1.5-.2.6-.3v-4zM114 22.9c-.3.1-.6.1-1.1.2-.4.1-1 .1-1.6.1-.5 0-.9-.1-1.3-.2-.3-.1-.6-.4-.8-.6-.2-.3-.4-.6-.5-1-.1-.4-.1-.8-.1-1.2v-3.7h1.2V20c0 .8.1 1.4.4 1.7.3.4.7.5 1.3.5h1.3v-5.6h1.2v6.3zM115.7 19.7c0-.6.1-1.1.3-1.5.2-.4.4-.8.7-1.1.3-.3.6-.5 1-.7.4-.1.7-.2 1.1-.2.9 0 1.6.3 2.1.8.5.6.7 1.4.7 2.6v.4H117c.1.7.3 1.2.6 1.6.3.4.9.5 1.6.5.4 0 .8 0 1.1-.1.3-.1.5-.1.6-.2l.2 1c-.1.1-.4.2-.8.2-.4.1-.8.1-1.2.1-.6 0-1.1-.1-1.5-.3-.4-.2-.8-.4-1-.7-.3-.3-.5-.7-.6-1.1-.2-.3-.3-.8-.3-1.3zm4.6-.6c0-.5-.1-1-.4-1.3-.3-.3-.7-.5-1.1-.5-.3 0-.5.1-.7.2-.2.1-.4.2-.5.4-.1.2-.3.4-.3.6-.1.2-.1.4-.2.7h3.2zM125.2 23.2c-.7 0-1.3-.2-1.6-.5-.3-.3-.5-.8-.5-1.4v-8l1.2-.2v8c0 .2 0 .4.1.5 0 .1.1.2.2.3.1.1.2.1.3.2.1 0 .3.1.5.1l-.2 1zM128.9 16.2c.5 0 .9.1 1.2.2.3.1.6.3.8.5.2.2.3.5.4.8.1.3.1.7.1 1v4.2c-.1 0-.2 0-.4.1-.2 0-.4.1-.6.1-.2 0-.5 0-.7.1h-.8c-.4 0-.7 0-1-.1-.3-.1-.6-.2-.8-.4-.2-.2-.4-.4-.5-.7-.1-.3-.2-.6-.2-1s.1-.7.2-.9c.1-.3.4-.5.6-.6.3-.2.6-.3.9-.4.3-.1.7-.1 1.1-.1h.4c.1 0 .2 0 .4.1.1 0 .2 0 .3.1h.2v-.3c0-.2 0-.4-.1-.6 0-.2-.1-.4-.2-.5-.1-.1-.3-.3-.5-.4-.2-.1-.4-.1-.7-.1-.4 0-.7 0-1 .1-.3.1-.5.1-.7.2l-.1-1c.2-.1.4-.1.8-.2.1-.1.5-.2.9-.2zm.1 6h.7c.2 0 .4 0 .5-.1v-2c-.1 0-.2-.1-.4-.1H128.5c-.2 0-.4.1-.6.2-.2.1-.3.2-.4.3-.1.1-.2.3-.2.6 0 .4.1.7.4.9.4.1.8.2 1.3.2zM136 19.7c0-.6.1-1.1.3-1.5.2-.4.4-.8.7-1.1.3-.3.6-.5 1-.7.4-.1.7-.2 1.1-.2.9 0 1.6.3 2.1.8.5.6.7 1.4.7 2.6v.4h-4.6c.1.7.3 1.2.6 1.6.3.4.9.5 1.6.5.4 0 .8 0 1.1-.1.3-.1.5-.1.6-.2l.2 1c-.1.1-.4.2-.8.2-.4.1-.8.1-1.2.1-.6 0-1.1-.1-1.5-.3-.4-.2-.8-.4-1-.7-.3-.3-.5-.7-.6-1.1-.2-.3-.3-.8-.3-1.3zm4.6-.6c0-.5-.1-1-.4-1.3-.3-.3-.7-.5-1.1-.5-.3 0-.5.1-.7.2-.2.1-.4.2-.5.4-.1.2-.3.4-.3.6-.1.2-.1.4-.2.7h3.2zM143.5 16.6c.3-.1.6-.1 1.1-.2.5-.1 1-.1 1.6-.1.5 0 1 .1 1.3.2.4.1.6.4.8.6.2.3.4.6.4 1 .1.4.1.8.1 1.2V23h-1.2v-3.5c0-.4 0-.8-.1-1.1-.1-.3-.1-.5-.3-.7-.1-.2-.3-.3-.5-.4-.2-.1-.5-.1-.8-.1h-1.3V23h-1.2v-6.4z"/></svg>