<svg xmlns="http://www.w3.org/2000/svg" viewBox="-56 314.8 498.9 165.2" enable-background="new -56 314.8 498.9 165.2"><style type="text/css">.st0{fill:#27FFE0;} .st1{fill:none;}</style><path class="st0" d="M213.6 370.6c.4.5.9.8 1.5 1 .6.2 1.2.3 1.8.3.8 0 1.6-.1 2.3-.4.7-.2 1.2-.5 1.6-.8v-10.1h.1c-.3-.1-.7-.2-1.3-.3-.5-.1-1.2-.1-2.1-.1-1.7 0-3 .5-3.9 1.6-.9 1.1-1.4 2.6-1.4 4.4 0 1 .1 1.9.4 2.6s.6 1.3 1 1.8zM258.7 361.4c-.7-.9-1.7-1.4-3-1.4-.7 0-1.4.1-1.9.4-.5.3-1 .6-1.4 1.1-.4.5-.7 1-.9 1.5-.2.6-.4 1.2-.4 1.8h8.7c0-1.4-.3-2.5-1.1-3.4zM218.8 406.1c-3.9 0-7.4 2.8-8.5 6.8 0 .2-.1.4-.1.6-.1.6-.2 1.2-.2 1.7v5.6c0 .9 0 1.7.2 2.3 1 3.8 4.4 6.5 8.3 6.5 5.7 0 9.3-4.6 9.3-12 0-5.7-2.8-11.5-9-11.5zM144.2 395.9c-.6 2.3-1.2 4.5-1.9 6.4l-4.2 12.4h12.1l-4.2-12.3c-.7-2.3-1.3-4.4-1.8-6.5zM279.9 372.4c.6.5 1.5.7 2.8.7.7 0 1.4 0 2-.1.6 0 1-.1 1.4-.2v-5.2c-.2-.1-.6-.2-1.1-.3-.5-.1-1.1-.1-1.8-.1-.5 0-1 0-1.5.1s-1 .2-1.4.4c-.4.2-.8.5-1.1.9-.3.4-.4.9-.4 1.5 0 1.1.4 1.9 1.1 2.3zM182.7 406.1c-3.9 0-7.4 2.8-8.5 6.8 0 .2-.1.4-.1.6-.1.6-.2 1.2-.2 1.7v5.6c0 .9 0 1.7.2 2.3 1 3.8 4.4 6.5 8.3 6.5 5.7 0 9.3-4.6 9.3-12 0-5.7-2.7-11.5-9-11.5zM315.9 405.8c-6.5 0-9.4 6.1-9.4 12.1 0 6.9 3.9 11.9 9.2 11.9h.1c5.4 0 9.3-5.1 9.3-12.1 0-5.7-2.9-11.9-9.2-11.9zM312 361.4c-.7-.9-1.7-1.4-3-1.4-.7 0-1.4.1-1.9.4-.5.3-1 .6-1.4 1.1-.4.5-.7 1-.9 1.5-.2.6-.4 1.2-.4 1.8h8.7c0-1.4-.3-2.5-1.1-3.4zM154.6 373c1.5 0 2.7-.6 3.6-1.7.9-1.2 1.3-2.7 1.3-4.7s-.4-3.5-1.3-4.7c-.9-1.2-2.1-1.7-3.6-1.7s-2.7.6-3.6 1.7c-.9 1.2-1.3 2.7-1.3 4.7s.4 3.5 1.3 4.7c.9 1.2 2.1 1.7 3.6 1.7zM369.1 405.6c-5.3 0-7.8 4.4-8.5 8.5h16c0-1.4-.4-4.4-2.4-6.5-1.2-1.3-3-2-5.1-2z"/><path class="st1" d="M148.7 373.3c.7.8 1.6 1.5 2.6 1.9 1 .5 2.1.7 3.3.7 1.2 0 2.3-.3 3.3-.7 1-.5 1.9-1.1 2.6-1.9s1.3-1.8 1.7-2.9c.4-1.2.6-2.4.6-3.8s-.2-2.6-.6-3.8c-.4-1.1-1-2.1-1.7-2.9-.7-.8-1.6-1.5-2.6-1.9-1-.5-2.1-.7-3.3-.7-1.2 0-2.3.3-3.3.7-1 .5-1.9 1.1-2.6 1.9-.7.8-1.3 1.8-1.7 2.9-.4 1.2-.6 2.4-.6 3.8s.2 2.7.6 3.8c.4 1.1 1 2.1 1.7 2.9zM167.4 375.1h3.1v-14.8c.2 0 .3-.1.6-.1s.6-.1.9-.1.6-.1 1-.1h1c.8 0 1.5.1 2.1.3.5.2 1 .5 1.3 1 .3.5.6 1.1.7 1.9.1.8.2 1.7.2 2.8v9.2h3.1v-9.8c0-1.2-.1-2.3-.3-3.3-.3-.9-.6-1.8-1.2-2.5-.5-.7-1.3-1.2-2.2-1.6-1-.4-2.1-.6-3.5-.6-1.5 0-2.9.1-4.1.3-1.2.2-2.2.4-2.9.6h.2v16.8zM133.3 373.1c.7.8 1.6 1.4 2.7 1.9 1 .5 2.3.7 3.7.7.5 0 .9 0 1.6-.1.5-.1 1-.1 1.4-.2.4-.1.7-.2 1.1-.3.4-.1.6-.2.8-.3l-.4-2.6c-.4.2-.9.3-1.6.5-.7.1-1.5.2-2.3.2-1 0-1.9-.2-2.6-.5-.8-.3-1.3-.7-1.8-1.3-.4-.5-.8-1.2-1-2s-.3-1.7-.3-2.6c0-2.1.5-3.7 1.4-4.8.9-1 2.3-1.6 4-1.6.7 0 1.4.1 2 .2.6.1 1.1.3 1.6.5l.7-2.7c-.8-.3-1.5-.5-2.3-.6-.8-.1-1.6-.2-2.4-.2-1.3 0-2.5.2-3.5.7-1 .4-1.9 1.1-2.6 1.9-.8.8-1.3 1.8-1.7 2.9-.4 1.1-.6 2.4-.6 3.7 0 1.4.1 2.6.5 3.7.3 1.1.9 2.1 1.6 2.9zM193.4 372.6c-.6.3-1.5.5-2.8.5-1.3 0-2.4-.2-3.1-.5-.8-.3-1.3-.5-1.7-.6l-.6 2.7 1.8.6c.8.3 2.1.4 3.6.4 2.2 0 3.9-.3 5.1-1.2 1.2-.9 1.8-2.1 1.8-3.7 0-.8-.2-1.5-.4-2.1-.3-.6-.6-1.1-1.1-1.5-.5-.4-1-.8-1.7-1.1-.6-.3-1.4-.6-2.2-.9-.6-.2-1.2-.4-1.6-.6-.4-.2-.8-.5-1.1-.7-.3-.2-.6-.5-.7-.8-.1-.3-.2-.6-.2-1 0-.7.3-1.3 1-1.6s1.4-.5 2.3-.5c1 0 1.9.1 2.6.3s1.3.4 1.6.6l.6-2.7c-.2 0-.5-.1-.8-.2-.3-.1-.7-.2-1.1-.3-.4-.1-.9-.1-1.4-.2s-1-.1-1.5-.1c-2 0-3.6.5-4.7 1.4-1.1.9-1.7 2.2-1.7 3.7 0 .8.1 1.5.4 2 .3.6.7 1 1.1 1.4.5.4 1 .7 1.6 1 .6.3 1.2.5 1.9.8 1.4.5 2.4 1.1 3 1.5.6.4.9 1 .9 1.8 0 .7-.3 1.3-.9 1.6zM56.6 365.9c3.1-3.9 5.4-9.5 4.5-15.1-5 .3-10.8 3.5-14.2 7.7-3.1 3.8-5.6 9.3-4.7 14.8 5.4.1 11.1-3.2 14.4-7.4zM272.8 375.7l.3-2.5c-.4-.1-.9-.2-1.2-.3-.3-.1-.6-.3-.8-.5-.2-.2-.3-.5-.4-.8-.1-.4-.1-.8-.1-1.3v-21l-3.1.5v21c0 1.7.4 2.9 1.2 3.7.8.7 2.2 1.2 4.1 1.2zM211.3 372.6c.7.7 1.5 1.3 2.4 1.6 1 .3 1.9.5 3 .5 1 0 1.9-.1 2.7-.4s1.3-.5 1.6-.7h.1v.8c0 1.6-.4 2.8-1.2 3.5s-2.1 1.1-4 1.1c-.9 0-1.9-.1-2.8-.3-.9-.2-1.7-.5-2.3-.7l-.6 2.7c.7.2 1.5.4 2.5.6 1 .2 2 .3 3.1.3 2.8 0 4.9-.6 6.3-1.8 1.4-1.3 2.1-3.2 2.1-5.9v-15.6c-.7-.2-1.6-.4-2.7-.6-1.1-.2-2.3-.3-3.8-.3-1.4 0-2.5.3-3.6.7-1.1.4-2 1-2.7 1.8-.8.8-1.3 1.7-1.7 2.8-.4 1-.6 2.2-.6 3.5 0 1.5.2 2.7.6 3.8.4 1 .9 1.9 1.6 2.6zM303.4 372.8c.7.8 1.6 1.4 2.7 1.9 1.2.5 2.5.7 4 .7 1.2 0 2.2-.1 3.2-.3 1-.2 1.6-.4 2-.6l-.4-2.6c-.4.2-.9.4-1.7.6s-1.7.3-2.8.3c-1.9 0-3.4-.5-4.3-1.4-.9-.9-1.5-2.3-1.6-4.1h12v-1.1c0-3-.6-5.2-1.9-6.7-1.2-1.5-3-2.2-5.4-2.2-1 0-2 .2-3 .6-1 .4-1.9.9-2.6 1.7-.8.8-1.3 1.7-1.8 2.9s-.7 2.6-.7 4.1c0 1.3.2 2.6.7 3.3.4 1.1.9 2.1 1.6 2.9zM277.4 374.4c.7.5 1.4.8 2.2 1 .8.2 1.7.3 2.7.3.7 0 1.4 0 2.1-.1.7-.1 1.4-.1 2-.2.6 0 1.1-.1 1.6-.2s.8-.2 1.1-.2v-10.9c0-1-.1-1.9-.3-2.7-.2-.8-.6-1.5-1.1-2.1-.5-.6-1.2-1.1-2.1-1.4-.9-.3-1.9-.5-3.2-.5-1.1 0-2.1.1-3 .4-.9.1-1.6.3-2 .5l.4 2.6c.3-.2.9-.4 1.7-.5.8-.1 1.7-.2 2.7-.2.8 0 1.5.2 2 .4s.9.5 1.2.9c.3.3.5.8.6 1.3.1.5.2 1 .2 1.5v.9c-.1 0-.3-.1-.5-.1-.2-.1-.5-.1-.8-.2-.3 0-.7-.1-1-.1-.4-.1-.7-.1-1-.1-1 0-1.9.1-2.8.3-.9.2-1.7.5-2.4.9s-1.2 1-1.6 1.7c-.4.7-.6 1.5-.6 2.5s.2 1.9.5 2.6.8 1.3 1.4 1.7zM81 382.1c-4.8-6-11.5-9.5-17.9-9.5-8.4 0-12 4-17.8 4-6 0-10.6-4-17.9-4-7.2 0-14.8 4.4-19.6 11.8-6.7 10.4-5.6 30.1 5.4 46.8 3.9 6 9.1 12.7 16 12.8 6.1.1 7.8-3.9 16.1-3.9 8.2-.1 9.8 4 15.9 3.9 6.8-.1 12.4-7.5 16.3-13.5 2.9-4.3 3.9-6.4 6.1-11.3-15.9-6.1-18.5-28.5-2.6-37.1zM316.1 400.3c-9.8 0-16.7 7.3-16.7 17.8 0 10.2 6.6 17.3 16.1 17.3h.1c8 0 16.7-5.6 16.7-17.9 0-5-1.5-9.3-4.5-12.4-2.9-3.1-7-4.8-11.7-4.8zM290.2 393.1l-6.8 2.2v5.8h-5v5.6h5v17.1c0 4.2.8 7.1 2.4 8.9 1.6 1.7 4 2.7 6.8 2.7 2.7 0 4.5-.5 5.4-.8l.4-.1-.3-5.6-.7.2c-.9.3-1.8.4-3.3.4-2.7 0-3.9-1.7-3.9-5.8v-17h8.5v-5.6h-8.5v-8zM333.6 359.6c-.5-.7-1.3-1.2-2.2-1.6-1-.4-2.1-.6-3.5-.6-1.5 0-2.9.1-4.1.3-1.2.2-2.2.4-2.9.6h.2v16.8h3.1v-14.8c.2 0 .3-.1.6-.1s.6-.1.9-.1.6-.1 1-.1h1c.8 0 1.5.1 2.1.3.5.2 1 .5 1.3 1 .3.5.6 1.1.7 1.9.1.8.2 1.7.2 2.8v9.2h3.1v-9.8c0-1.2-.1-2.3-.3-3.3-.3-.9-.6-1.8-1.2-2.5zM265.8 407.9c-6.5-2.5-8.6-4.5-8.6-8.2 0-3.1 2.5-6.2 8-6.2 4.5 0 7.4 1.6 8.2 2.1l.6.4 2-5.9-.4-.2c-1.2-.7-4.5-2.3-10.2-2.3-8.9 0-15.2 5.3-15.2 12.8 0 6.1 3.9 10.4 12.3 13.4 6 2.2 8.2 4.5 8.2 8.4 0 4.4-3.4 7.2-8.9 7.2-3.6 0-7.3-1-10.1-2.9l-.6-.4-1.9 6 .3.2c2.6 1.8 7.6 3 11.9 3 12.1 0 16.3-7.3 16.3-13.6-.1-6.5-3.5-10.5-11.9-13.8zM290.2 393.1h.1zM353.9 400.6l-.5-.1c-.6-.2-1.1-.2-1.7-.2-3.7 0-7 2.2-8.8 5.6l-.2-4.9h-6.3v.6c.2 2.8.3 5.9.3 10.1l-.1 22.9h7v-17.8c0-1 .1-1.9.2-2.7.8-4.3 3.7-7.1 7.4-7.1.7 0 1.3.1 1.9.1l.8.1v-6.6zM369.5 400.2c-9.3 0-15.9 7.5-15.9 18.1 0 10.3 6.5 16.9 16.5 16.9 5.3 0 9-1.2 11.1-2.1l.4-.2-1.3-5.2-.6.2c-1.9.8-4.5 1.6-8.8 1.6-3 0-10.1-1-10.5-10.2l22.6.1.1-.4c.1-.7.2-1.7.2-2.9.1-7.3-3.5-15.9-13.8-15.9zM184.4 400.3c-4.8 0-8.6 1.8-11.1 5.3l-.3-4.6h-6.4v.6c.2 2.9.3 6 .3 10.6v35.7h7v-16.7c2.2 2.6 5.6 4.1 9.6 4.1 4.1 0 7.9-1.6 10.6-4.5 3.1-3.2 4.7-7.9 4.7-13.5 0-4.9-1.4-9.2-4.1-12.3-2.6-3-6.2-4.7-10.3-4.7zM207.1 351.2l-2-2-4.3 5.2 1.6 1.4zM201.5 357.8h3.1v17.5h-3.1zM252.8 374.7c1.2.5 2.5.7 4 .7 1.2 0 2.2-.1 3.2-.3 1-.2 1.6-.4 2-.6l-.4-2.6c-.4.2-.9.4-1.7.6s-1.7.3-2.8.3c-1.9 0-3.4-.5-4.3-1.4-.9-.9-1.5-2.3-1.6-4.1h12v-1.1c0-3-.6-5.2-1.9-6.7-1.2-1.5-3-2.2-5.4-2.2-1 0-2 .2-3 .6-1 .4-1.9.9-2.6 1.7-.8.8-1.3 1.7-1.8 2.9s-.7 2.6-.7 4.1c0 1.3.2 2.6.7 3.3.4 1.1.9 2.1 1.6 2.9s1.6 1.4 2.7 1.9zM140.4 388.3l-15.7 46.4h7.2l4.7-14.2h15.2l4.8 14.2h7.4l-15.8-46.4zM220.6 400.3c-4.8 0-8.6 1.8-11.2 5.3l-.3-4.6h-6.4v.6c.2 2.9.3 6 .3 10.6v35.7h7v-16.7c2.2 2.6 5.6 4.1 9.6 4.1 4.1 0 7.9-1.6 10.6-4.5 3.1-3.2 4.7-7.9 4.7-13.5 0-4.9-1.4-9.2-4.1-12.3-2.5-3-6.2-4.7-10.2-4.7zM240.3 372.7c-.2 0-.3.1-.6.1s-.6.1-.9.1-.6.1-1 .1h-1c-1.6 0-2.7-.5-3.4-1.4-.7-.9-1-2.5-1-4.6v-9.2h-3.1v9.9c0 1.1.2 2.2.4 3.2.2.9.6 1.8 1.2 2.5.5.8 1.3 1.3 2.2 1.7.9.4 2.1.6 3.4.6 1.6 0 2.9-.1 4.1-.3 1.1-.2 2.1-.4 2.8-.6v-17h-3.1v14.9z"/><path class="st0" d="M419.6 314.8H-32.6c-12.9 0-23.4 10.5-23.4 23.4v118.4c0 12.9 10.5 23.4 23.4 23.4h452.2c12.8 0 23.3-10.5 23.4-23.4V338.2c0-12.9-10.5-23.4-23.4-23.4zm-117.8 47.7c.5-1.2 1-2.1 1.8-2.9.7-.8 1.6-1.3 2.6-1.7 1-.4 2-.6 3-.6 2.4 0 4.2.7 5.4 2.2 1.3 1.5 1.9 3.7 1.9 6.7v1.1h-12c.1 1.8.7 3.2 1.6 4.1.9.9 2.4 1.4 4.3 1.4 1.1 0 2-.1 2.8-.3s1.3-.4 1.7-.6l.4 2.6c-.4.2-1 .4-2 .6-1 .2-2 .3-3.2.3-1.5 0-2.8-.2-4-.7-1.1-.5-2-1.1-2.7-1.9s-1.2-1.8-1.6-2.9c-.5-.7-.7-2-.7-3.3 0-1.5.2-2.9.7-4.1zm-25.7 5.1c.4-.7.9-1.3 1.6-1.7.7-.4 1.5-.7 2.4-.9.9-.2 1.8-.3 2.8-.3.3 0 .6 0 1 .1.3 0 .7.1 1 .1.3.1.6.1.8.2.2 0 .4.1.5.1v-.9c0-.5-.1-1-.2-1.5s-.3-1-.6-1.3c-.3-.4-.7-.7-1.2-.9s-1.2-.4-2-.4c-1 0-1.9.1-2.7.2-.8.1-1.4.3-1.7.5l-.4-2.6c.4-.2 1.1-.4 2-.5.9-.3 1.9-.4 3-.4 1.3 0 2.3.2 3.2.5.9.3 1.6.8 2.1 1.4.5.6.9 1.3 1.1 2.1.2.8.3 1.7.3 2.7V375c-.3 0-.6.1-1.1.2-.5.1-1 .2-1.6.2-.6.1-1.3.1-2 .2s-1.4.1-2.1.1c-1 0-1.9-.1-2.7-.3-.8-.2-1.5-.5-2.2-1-.6-.4-1.1-1-1.4-1.7s-.5-1.6-.5-2.6.2-1.8.6-2.5zm-8.6-17.8l3.1-.5v21c0 .5 0 .9.1 1.3.1.3.2.6.4.8.2.2.5.4.8.5.3.1.8.2 1.2.3l-.3 2.5c-1.9 0-3.3-.5-4.1-1.2-.8-.8-1.2-2-1.2-3.7v-21zm-57.8 12.9c.4-1.1.9-2 1.7-2.8.7-.8 1.6-1.4 2.7-1.8 1.1-.4 2.2-.7 3.6-.7 1.5 0 2.7.1 3.8.3 1.1.2 2 .4 2.7.6v15.6c0 2.7-.7 4.6-2.1 5.9-1.4 1.2-3.5 1.8-6.3 1.8-1.1 0-2.1-.1-3.1-.3-1-.2-1.8-.4-2.5-.6l.6-2.7c.6.2 1.4.5 2.3.7.9.2 1.9.3 2.8.3 1.9 0 3.2-.4 4-1.1s1.2-1.9 1.2-3.5v-.8h-.1c-.3.2-.8.4-1.6.7s-1.7.4-2.7.4c-1.1 0-2-.2-3-.5-.9-.3-1.7-.9-2.4-1.6-.7-.7-1.2-1.6-1.6-2.6-.4-1.1-.6-2.3-.6-3.8 0-1.3.2-2.5.6-3.5zm-16.3 6.5c-.6-.4-1.6-1-3-1.5-.7-.3-1.3-.5-1.9-.8-.6-.3-1.1-.6-1.6-1-.4-.4-.8-.8-1.1-1.4-.3-.5-.4-1.2-.4-2 0-1.5.6-2.8 1.7-3.7 1.1-.9 2.7-1.4 4.7-1.4.5 0 1 0 1.5.1s1 .1 1.4.2c.4.1.8.2 1.1.3.3.1.6.2.8.2l-.6 2.7c-.3-.2-.9-.4-1.6-.6s-1.6-.3-2.6-.3c-.9 0-1.6.2-2.3.5s-1 .9-1 1.6c0 .4.1.7.2 1 .1.3.4.6.7.8.3.2.7.5 1.1.7.4.2 1 .4 1.6.6.8.3 1.6.6 2.2.9.7.3 1.2.7 1.7 1.1.5.4.8.9 1.1 1.5.2.6.4 1.3.4 2.1 0 1.6-.6 2.8-1.8 3.7-1.2.9-2.9 1.2-5.1 1.2-1.5 0-2.8-.1-3.6-.4l-1.8-.6.6-2.7c.4.1.9.3 1.7.6.7.3 1.8.5 3.1.5s2.2-.2 2.8-.5c.6-.3.9-.9.9-1.6 0-.8-.3-1.4-.9-1.8zm-23.3-11.5c1.2-.2 2.6-.3 4.1-.3 1.4 0 2.5.2 3.5.6.9.4 1.7.9 2.2 1.6.6.7.9 1.6 1.2 2.5.2 1 .3 2.1.3 3.3v9.8h-3.1V366c0-1.1-.1-2-.2-2.8-.1-.8-.4-1.4-.7-1.9-.3-.5-.8-.8-1.3-1-.6-.2-1.3-.3-2.1-.3h-1c-.4 0-.7.1-1 .1s-.6.1-.9.1-.4.1-.6.1v14.8h-3.1v-16.8h-.2c.7-.2 1.7-.4 2.9-.6zm-23.1 5.1c.4-1.1 1-2.1 1.7-2.9.7-.8 1.6-1.4 2.6-1.9 1-.4 2.1-.7 3.3-.7 1.2 0 2.3.2 3.3.7 1 .4 1.9 1.1 2.6 1.9.7.8 1.3 1.8 1.7 2.9.4 1.2.6 2.4.6 3.8s-.2 2.6-.6 3.8c-.4 1.1-1 2.1-1.7 2.9s-1.6 1.4-2.6 1.9c-1 .4-2.1.7-3.3.7-1.2 0-2.3-.2-3.3-.7-1-.4-1.9-1.1-2.6-1.9s-1.3-1.8-1.7-2.9c-.4-1.1-.6-2.4-.6-3.8s.2-2.6.6-3.8zm-15.2 0c.4-1.1.9-2.1 1.7-2.9.7-.8 1.6-1.5 2.6-1.9 1-.5 2.2-.7 3.5-.7.8 0 1.6.1 2.4.2.8.1 1.5.3 2.3.6l-.7 2.7c-.5-.2-1-.4-1.6-.5-.6-.1-1.3-.2-2-.2-1.7 0-3.1.6-4 1.6-.9 1.1-1.4 2.7-1.4 4.8 0 .9.1 1.8.3 2.6s.6 1.5 1 2c.5.6 1 1 1.8 1.3.7.3 1.6.5 2.6.5.8 0 1.6-.1 2.3-.2.7-.2 1.2-.3 1.6-.5l.4 2.6c-.2.1-.4.2-.8.3-.4.1-.7.2-1.1.3-.4.1-.9.1-1.4.2-.7.1-1.1.1-1.6.1-1.4 0-2.7-.2-3.7-.7-1.1-.5-2-1.1-2.7-1.9-.7-.8-1.3-1.8-1.6-2.9-.4-1.1-.5-2.3-.5-3.7 0-1.3.2-2.6.6-3.7zm-84.9-4.3c3.4-4.2 9.2-7.4 14.2-7.7.9 5.6-1.4 11.2-4.5 15.1-3.3 4.2-9 7.5-14.4 7.4-.9-5.5 1.6-11 4.7-14.8zm30.6 72c-3.9 6-9.5 13.4-16.3 13.5-6.1.1-7.7-4-15.9-3.9-8.3 0-10 4-16.1 3.9-6.9-.1-12.1-6.8-16-12.8-11-16.7-12.1-36.4-5.4-46.8 4.8-7.4 12.4-11.8 19.6-11.8 7.3 0 11.9 4 17.9 4 5.8 0 9.4-4 17.8-4 6.4 0 13.1 3.5 17.9 9.5-15.9 8.6-13.3 31 2.6 37.1-2.2 4.9-3.2 7-6.1 11.3zm79.1 4.2l-4.8-14.2h-15.2l-4.7 14.2h-7.2l15.7-46.4h7.8l15.8 46.4h-7.4zm37.5-3.9c-2.7 2.9-6.5 4.5-10.6 4.5-4 0-7.4-1.5-9.6-4.1v16.7h-7v-35.7c0-4.6-.1-7.7-.3-10.6v-.6h6.4l.3 4.6c2.5-3.5 6.3-5.3 11.1-5.3 4.1 0 7.7 1.7 10.3 4.7 2.7 3.1 4.1 7.4 4.1 12.3 0 5.6-1.6 10.3-4.7 13.5zm11-81.6l2 2-4.7 4.6-1.6-1.4 4.3-5.2zm-3.6 8.6h3.1v17.5h-3.1v-17.5zm28.7 73c-2.7 2.9-6.5 4.5-10.6 4.5-4 0-7.4-1.5-9.6-4.1v16.7h-7v-35.7c0-4.6-.1-7.7-.3-10.6v-.6h6.4l.3 4.6c2.6-3.5 6.4-5.3 11.2-5.3 4 0 7.7 1.7 10.2 4.7 2.7 3.1 4.1 7.4 4.1 12.3 0 5.6-1.6 10.3-4.7 13.5zm13.2-56c-.7.2-1.7.4-2.8.6-1.2.2-2.5.3-4.1.3-1.3 0-2.5-.2-3.4-.6-.9-.4-1.7-.9-2.2-1.7-.6-.7-1-1.6-1.2-2.5-.2-1-.4-2.1-.4-3.2v-9.9h3.1v9.2c0 2.1.3 3.7 1 4.6.7.9 1.8 1.4 3.4 1.4h1c.4 0 .7-.1 1-.1s.6-.1.9-.1.4-.1.6-.1v-14.9h3.1v17zm4.4-8.2c0-1.5.2-2.9.7-4.1s1-2.1 1.8-2.9c.7-.8 1.6-1.3 2.6-1.7 1-.4 2-.6 3-.6 2.4 0 4.2.7 5.4 2.2 1.3 1.5 1.9 3.7 1.9 6.7v1.1h-12c.1 1.8.7 3.2 1.6 4.1.9.9 2.4 1.4 4.3 1.4 1.1 0 2-.1 2.8-.3s1.3-.4 1.7-.6l.4 2.6c-.4.2-1 .4-2 .6-1 .2-2 .3-3.2.3-1.5 0-2.8-.2-4-.7-1.1-.5-2-1.1-2.7-1.9s-1.2-1.8-1.6-2.9c-.5-.7-.7-2-.7-3.3zm13.6 68.7c-4.3 0-9.3-1.2-11.9-3l-.3-.2 1.9-6 .6.4c2.8 1.9 6.5 2.9 10.1 2.9 5.5 0 8.9-2.8 8.9-7.2 0-3.9-2.2-6.2-8.2-8.4-8.4-3-12.3-7.3-12.3-13.4 0-7.5 6.3-12.8 15.2-12.8 5.7 0 9 1.6 10.2 2.3l.4.2-2 5.9-.6-.4c-.8-.5-3.7-2.1-8.2-2.1-5.5 0-8 3.1-8 6.2 0 3.7 2.1 5.7 8.6 8.2 8.4 3.3 11.8 7.3 11.9 13.8 0 6.3-4.2 13.6-16.3 13.6zm37.3-28.6h-8.5v17c0 4.1 1.2 5.8 3.9 5.8 1.5 0 2.4-.1 3.3-.4l.7-.2.3 5.6-.4.1c-.9.3-2.7.8-5.4.8-2.8 0-5.2-1-6.8-2.7-1.6-1.8-2.4-4.7-2.4-8.9v-17.1h-5v-5.6h5v-5.8l6.8-2.2h.1-.1v8h8.5v5.6zm16.9 28.7h-.1c-9.5 0-16.1-7.1-16.1-17.3 0-10.5 6.9-17.8 16.7-17.8 4.7 0 8.8 1.7 11.7 4.8 3 3.1 4.5 7.4 4.5 12.4 0 12.3-8.7 17.9-16.7 17.9zm19.5-60.2H332V366c0-1.1-.1-2-.2-2.8-.1-.8-.4-1.4-.7-1.9-.3-.5-.8-.8-1.3-1-.6-.2-1.3-.3-2.1-.3h-1c-.4 0-.7.1-1 .1s-.6.1-.9.1-.4.1-.6.1v14.8h-3.1v-16.8h-.2c.7-.2 1.7-.4 2.9-.6 1.2-.2 2.6-.3 4.1-.3 1.4 0 2.5.2 3.5.6.9.4 1.7.9 2.2 1.6.6.7.9 1.6 1.2 2.5.2 1 .3 2.1.3 3.3v9.8zm16.1 31.8c-3.7 0-6.6 2.8-7.4 7.1-.1.8-.2 1.7-.2 2.7v17.8h-7l.1-22.9c0-4.2-.1-7.3-.3-10.1v-.6h6.3l.2 4.9c1.8-3.4 5.1-5.6 8.8-5.6.6 0 1.1 0 1.7.2l.4.1h.1v6.6l-.8-.1c-.6 0-1.2-.1-1.9-.1zm31.9 12l-.1.4-22.6-.1c.4 9.2 7.5 10.2 10.5 10.2 4.3 0 6.9-.8 8.8-1.6l.6-.2 1.3 5.2-.4.2c-2.1.9-5.8 2.1-11.1 2.1-10 0-16.5-6.6-16.5-16.9 0-10.6 6.6-18.1 15.9-18.1 10.3 0 13.9 8.6 13.8 15.9 0 1.2-.1 2.2-.2 2.9z"/></svg>