<svg xmlns="http://www.w3.org/2000/svg" viewBox="0 0 178.6 178.6" enable-background="new 0 0 178.6 178.6"><style type="text/css">.st0{fill:#27FFDE;} .st1{fill:none;}</style><path class="st0" d="M144.4 140.2H36.6L52.2 109l16.2 10.5c1 .7 2.3.8 3.5.3 1.1-.5 2-1.5 2.2-2.7l6.3-29.7 17.8 9.1c1.5.8 3.3.4 4.5-.8l23.7-25.4.5 5c.2 1.9 1.8 3.4 3.7 3.4h.4c2-.2 3.5-2 3.4-4.1l-1.3-14.1c-.2-2-2-3.6-4.1-3.4l-14.1 1.3c-2 .2-3.5 2-3.4 4.1.2 2 2 3.6 4.1 3.4l5.4-.5-22 23.2-19.5-10c-1-.5-2.2-.5-3.3 0-1 .5-1.8 1.5-2 2.6L68 110.3l-15.1-9.8c-.9-.6-2-.7-3-.5-1 .3-1.9 1-2.4 1.9l-15.5 31V43.6c0-2.1-1.7-3.7-3.7-3.7s-3.7 1.7-3.7 3.7v100.3c0 2.1 1.7 3.7 3.7 3.7h116.1c2.1 0 3.7-1.7 3.7-3.7s-1.7-3.7-3.7-3.7z"/><path class="st1" d="M0 0h178.6v178.6H0z"/></svg>