<svg xmlns="http://www.w3.org/2000/svg" viewBox="-49 141 512 512" enable-background="new -49 141 512 512"><style type="text/css">.st0{fill:#27FFE0;}</style><path class="st0" d="M194.7 423.4C135.5 381.6 139 304 179.5 264.3c40.5-39.9 106.4-39.4 145.8.6 40.3 40.9 42.4 117.2-17.2 158.4h12.5c15.1-.2 29.1 3.8 41.3 12.7 19.3 14.1 28.7 33.4 28.7 57.3v91.2c0 9.3-4.3 13.5-13.6 13.5H127.3c-8.8 0-13.6-4-13.6-12.1 0-33.1-.5-66.3.4-99.4.9-33.4 30.6-62 64-63.1 5.5-.2 11.1 0 16.6 0zM367.8 575v-26.3c-.1-20.6.3-41.2-.4-61.7-.6-17-14.1-33-30.1-38.5-9-3.1-18.2-2.3-27.4-2.7-3.1-.1-111 .2-112.2.2-9 .2-18.4-.6-27 1.6-21.6 5.5-34.2 22.6-34.4 44.9-.2 26.3-.1 52.7 0 79 0 1.1.3 2.3.4 3.4 10.2.1 220.6.1 231.1.1zM252.3 257.1c-43.8-.3-79.8 35.3-80.2 79.2-.4 44.1 35.7 80.5 79.9 80.6 43.7.1 79.7-35.8 80-79.6.2-44-35.4-80-79.7-80.2zM98.1 315c-1.3 0-2.5-.5-3.4-1.5l-54.9-59.2c-6.7-7.4-10.3-17.2-10.3-27.5s3.7-20.2 10.3-27.5l.8-.9c6.8-7.5 15.8-11.6 25.5-11.6s18.7 4.1 25.5 11.6l6.5 7.2 6.5-7.2c6.8-7.5 15.8-11.6 25.5-11.6s18.7 4.1 25.5 11.6l.8.9c6.7 7.4 10.3 17.2 10.3 27.5 0 10.4-3.7 20.2-10.3 27.5l-54.9 59.2c-.9.9-2.1 1.5-3.4 1.5zm-51.5-67l51.5 55.5 51.5-55.5c10.6-11.7 10.6-30.8 0-42.6l-.8-.9c-5-5.5-11.6-8.6-18.6-8.6-7 0-13.6 3-18.6 8.6l-10 11c-.9 1-2.1 1.5-3.4 1.5s-2.6-.6-3.4-1.5l-10-11c-5-5.5-11.6-8.6-18.6-8.6s-13.6 3-18.6 8.6l-.8.9C36 217.2 36 236.3 46.6 248z"/></svg>