<svg xmlns="http://www.w3.org/2000/svg" viewBox="52 263 715.8 267" enable-background="new 52 263 715.8 267"><style type="text/css">.st0{fill:#FFFFFF;} .st1{fill:#27FFE0;}</style><path id="XMLID_30_" class="st0" d="M340.1 527.7v-194h48.8v194.1l-48.8-.1z"/><path id="XMLID_28_" class="st0" d="M340.1 306.7v-43.4h48.8v43.4h-48.8z"/><path id="XMLID_26_" class="st0" d="M544.4 523.5c-10.3 4.3-22.2 6.5-35.6 6.5-9.7 0-19.7-1.5-30-4.5s-19.7-8.3-28.1-15.8c-8.4-7.6-15.3-17.8-20.8-30.5-5.5-12.8-8.3-29-8.3-48.6s2.8-35.8 8.3-48.6 12.4-22.9 20.8-30.4c8.4-7.4 17.7-12.7 28.1-15.6 10.3-3 20.3-4.5 30-4.5 13.4 0 25.3 2.1 35.6 6.3 10.3 4.2 19.8 10.8 28.5 19.7l-32.8 32.8c-5-5.5-9.8-9.4-14.5-11.7-4.7-2.4-10.3-3.5-16.8-3.5-11.4 0-20.6 4.2-27.6 12.7-3.7 4.7-6.5 10.4-8.2 17.1s-2.6 15.3-2.6 25.7c0 19.9 3.6 34.3 10.8 43.2 6.9 8.4 16.1 12.7 27.6 12.7 6.5 0 12-1.2 16.8-3.5 4.7-2.4 9.6-6.3 14.5-11.7l32.8 32.4c-8.7 8.8-18.2 15.4-28.5 19.8z"/><path id="XMLID_23_" class="st0" d="M625.9 445.8c0 12.7 3.7 23 11 31.1 7.3 8.1 17.8 12.1 31.5 12.1 10.7 0 19.1-1.5 25.3-4.5s12.4-7.6 18.6-13.8l29.4 28.7c-5 5-9.9 9.3-14.9 13-5 3.7-10.4 6.9-16.2 9.5s-12.2 4.6-19.2 6-14.8 2-23.5 2c-11.4 0-22.5-1.5-33.3-4.5s-20.4-8.3-28.7-15.8c-8.3-7.6-15-17.8-20.1-30.5-5.1-12.8-7.6-29-7.6-48.6 0-15.9 2-30 6.1-42.3 4.1-12.3 9.9-22.7 17.3-31.1 7.4-8.4 16.3-14.8 26.6-19.2 10.3-4.3 21.8-6.5 34.5-6.5 13.4 0 25.4 2.4 35.9 7.1 10.6 4.7 19.4 11.2 26.6 19.4 7.2 8.2 12.7 17.9 16.4 29.2 3.7 11.3 5.6 23.7 5.6 37.1v21.6H625.9zm72.5-44.1c-.6-3.1-1.7-6.4-3.2-9.9-2.7-5.7-6.8-10.5-12.1-14.3s-12.1-5.8-20.3-5.8-15 1.9-20.3 5.8-9.4 8.6-12.1 14.3c-1.5 3.5-2.5 6.8-3.2 9.9-.6 3.1-1.1 6.8-1.3 11h73.8c-.3-4.3-.7-7.9-1.3-11z"/><path id="XMLID_22_" class="st0" d="M250.8 263h48.8v264.8h-48.8z"/><path id="XMLID_17_" class="st0" d="M766.9 346.8c-.6 1.3-1.4 2.5-2.4 3.5s-2.2 1.8-3.5 2.4c-1.3.6-2.8.9-4.3.9s-3-.3-4.3-.9c-1.3-.6-2.5-1.4-3.5-2.4s-1.8-2.2-2.4-3.5c-.6-1.3-.9-2.8-.9-4.3s.3-3 .9-4.3c.6-1.3 1.4-2.5 2.4-3.5s2.2-1.8 3.5-2.4c1.3-.6 2.8-.9 4.3-.9s3 .3 4.3.9c1.3.6 2.5 1.4 3.5 2.4s1.8 2.2 2.4 3.5c.6 1.3.9 2.8.9 4.3s-.3 3-.9 4.3zm-2.4-7.7c-.4-1-1-2-1.8-2.7-.8-.8-1.7-1.4-2.7-1.8s-2.1-.7-3.3-.7-2.3.2-3.3.7c-1 .4-1.9 1-2.7 1.8-.8.8-1.4 1.7-1.8 2.7-.4 1-.6 2.2-.6 3.4s.2 2.4.6 3.4c.4 1 1 2 1.8 2.7.8.8 1.7 1.4 2.7 1.8s2.1.7 3.3.7 2.3-.2 3.3-.7c1-.4 1.9-1 2.7-1.8.8-.8 1.4-1.7 1.8-2.7.4-1 .6-2.2.6-3.4s-.2-2.4-.6-3.4zm-5.8 9.3l-2.1-4.6h-1.3v4.6h-2.6v-11.8h4.8c.6 0 1.1.1 1.6.3.5.2.9.5 1.2.8.3.3.6.7.8 1.2.2.4.3.9.3 1.4 0 .8-.2 1.5-.7 2-.4.5-.9.9-1.5 1.1l2.5 4.9h-3v.1zm-.4-9.2c-.3-.3-.7-.5-1.2-.5h-1.8v3.1h1.8c.5 0 .9-.2 1.2-.5.3-.3.4-.7.4-1.1.1-.3-.1-.7-.4-1z"/><path id="XMLID_3_" class="st1" d="M198.4 318.4c-.7-.6-1.5-1.2-2.2-1.7-36.5-27.9-87.5-26.5-119.2 5.2s-33.1 82.8-5.2 119.3c.3.5.7.9 1.1 1.3 2 2.2 4.9 3.6 8.1 3.6 2.8 0 5.4-1.1 7.3-2.8l.9-.9 108.4-108.3 1.5-1.5c1.5-1.8 2.4-4.2 2.4-6.7 0-2.9-1.2-5.6-3.1-7.5z"/><path id="XMLID_2_" class="st1" d="M69 508.3c.7.6 1.5 1.2 2.2 1.7 36.6 28 87.8 26.5 119.6-5.3s33.2-83 5.2-119.7c-.3-.5-.7-.9-1.1-1.3-2-2.2-4.9-3.6-8.1-3.6-2.8 0-5.4 1.1-7.3 2.8l-.9.9L69.9 492.6l-1.5 1.5c-1.5 1.8-2.4 4.2-2.4 6.7 0 3 1.1 5.6 3 7.5z"/></svg>