<svg xmlns="http://www.w3.org/2000/svg" viewBox="0 0 63.1 78.5" enable-background="new 0 0 63.1 78.5"><style type="text/css">.st0{fill:#FFFFFF;}</style><path class="st0" d="M37 5.6c2.1 0 4.3 1.4 4.9 4.7 2.3 11.9-3.3 20.9-3.3 20.9h12.1c3.6 0 6.7 2.9 6.7 6.5s-2.4 6.5-4.8 6.5c.6 1 .9 2.1.9 3.3 0 2.7-1.7 5.1-4.1 6 .6 1 1 2.2 1 3.5 0 3.2-2.3 5.8-5.3 6.3.5.9.9 2 .9 3.2 0 3.6-2.9 6.5-6.5 6.5h-6.9c-20.3 0-16.5-7-27.2-7V39.3c6.9 0 12.8-.4 18.8-9.8 4.2-6.6 6.9-10.8 8-19.8.6-2.6 2.7-4.1 4.8-4.1M37 0c-2.4 0-4.7.8-6.6 2.4-2 1.7-3.3 4-3.6 6.6-1 7.6-3.1 11-7 17.2l-.2.3c-4.6 7.2-8.1 7.2-14.1 7.2-3.1 0-5.6 2.5-5.6 5.6v26.6c0 3.1 2.5 5.6 5.6 5.6 2.9 0 3.8.6 5.7 1.8 1.6 1.1 3.9 2.5 7.4 3.6 3.7 1.1 8.3 1.7 14.1 1.7h6.9c6.6 0 12.1-5.4 12.1-12.1v-.2c2.7-2.2 4.4-5.6 4.4-9.3 0-.4 0-.9-.1-1.3.4-.4.7-.8 1-1.3 1.4-2 2.2-4.4 2.2-6.9v-.4c2.3-2.2 3.9-5.6 3.9-9.3 0-3.3-1.3-6.3-3.7-8.6-2.3-2.2-5.4-3.4-8.6-3.4h-3.9c1.4-5.4 1.6-11 .6-16.3-.5-2.8-1.8-5.1-3.7-6.8C41.9.9 39.5 0 37 0z"/></svg>