<svg xmlns="http://www.w3.org/2000/svg" viewBox="0 0 178.6 178.6" enable-background="new 0 0 178.6 178.6"><style type="text/css">.st0{fill:#27FFDE;} .st1{fill:none;}</style><path class="st0" d="M142.5 89.1c-3.5-2.6-7.5-3.7-11.9-3.7H127c17.2-11.9 16.6-33.9 5-45.7-11.4-11.5-30.4-11.7-42.1-.2-2.3 2.3-4.2 5-5.6 7.9-11.4-7.5-27.1-6.3-37.3 3.8-11.7 11.5-12.7 33.9 4.4 45.9h-4.8c-9.7.3-18.2 8.6-18.5 18.2-.3 9.6-.1 19.1-.1 28.7 0 2.3 1.4 3.5 3.9 3.5H104c2.7 0 3.9-1.2 3.9-3.9v-7.7h39c2.7 0 3.9-1.2 3.9-3.9v-26.3c-.1-6.9-2.8-12.5-8.3-16.6zm-31.7-51.6c12.8.1 23.1 10.4 23 23.2-.1 12.7-10.5 23-23.1 23-5.3 0-10.2-1.8-14.1-4.9 2.2-9.7-.7-20-7.3-26.9 3.6-8.5 11.9-14.5 21.5-14.4zM44.8 72c.1-12.7 10.5-23 23.2-22.9 12.8.1 23.1 10.4 23 23.2-.1 12.7-10.5 23-23.1 23-12.8 0-23.2-10.5-23.1-23.3zm-10.3 68.9c0-.3-.1-.7-.1-1v-22.8c0-6.5 3.7-11.4 9.9-13 2.5-.6 5.2-.4 7.8-.5.3 0 31.5-.1 32.4-.1 2.7.1 5.3-.1 7.9.8 4.6 1.6 8.5 6.2 8.7 11.1.2 5.9.1 11.9.1 17.8v7.6c-3 .2-63.7.1-66.7.1zm73.3-11.6v-12c0-6.9-2.7-12.5-8.3-16.5-3.5-2.6-7.5-3.7-11.9-3.7H84c2.2-1.5 4.1-3.2 5.7-5 1.8-.1 3.6 0 5.4-.1.3 0 31.5-.1 32.4-.1 2.7.1 5.3-.1 7.9.8 4.6 1.6 8.5 6.2 8.7 11.1.2 5.9.1 11.9.1 17.8v7.6l-36.4.1z"/><path class="st1" d="M0 0h178.6v178.6H0z"/></svg>