<svg xmlns="http://www.w3.org/2000/svg" viewBox="0 0 303.2 162" enable-background="new 0 0 303.2 162"><style type="text/css">.st0{fill:none;} .st1{fill:#FFFFFF;} .st2{fill:#F9F9F9;}</style><path class="st0" d="M303.2 20.9V0h-22.9c12 0 21.8 9.2 22.9 20.9zM176 91.9c-2.7 0-4.6.7-5.8 2.2s-1.8 3.8-1.8 7.1v.9c0 3.7.6 6.3 1.8 7.9 1.2 1.6 3.2 2.4 5.9 2.4 2.3 0 4-.9 5.3-2.7s1.9-4.3 1.9-7.6-.6-5.8-1.9-7.5c-1.3-1.8-3.1-2.7-5.4-2.7zM68.3 90.3c-1.8 0-3.6.7-4.9 1.9-2.1 1.9-2.5 4.3-2.5 6.7 0 5.4 2.7 14.3 9.3 14.3 2.1 0 4.3-1 5.6-2.8 1.3-1.7 1.6-3.9 1.6-6.1 0-4.8-2.3-14-9.1-14zM145.2 51.2c-.5 0-1 0-1.5.1s-1 .2-1.4.4c-.4.2-.8.5-1.1.9-.3.4-.4.9-.4 1.5 0 1.1.4 1.9 1.1 2.3.6.5 1.6.7 2.8.7.7 0 1.4 0 2-.1.6 0 1-.1 1.4-.2v-5.2c-.2-.1-.6-.2-1.1-.3-.5-.1-1.1-.1-1.8-.1zM300.3 139V23c0-11-9-20-20-20H114L85.9 42.2c.1 0 .2.1.3.1V58c0 2.7-.7 4.6-2.1 5.9-1.4 1.2-3.5 1.8-6.3 1.8-1.1 0-2.1-.1-3.1-.3-1-.2-1.8-.4-2.5-.6l.6-2.7c.6.2 1.4.5 2.3.7.9.2 1.9.3 2.8.3 1.9 0 3.2-.4 4-1.1s1.2-1.9 1.2-3.5v-.9H83c-.3.2-.8.4-1.6.7s-1.7.4-2.7.4c-1.1 0-2-.2-3-.5-.3-.1-.6-.3-.9-.4L49.7 92.7c2.2 2.4 3.5 5.6 3.5 8.9 0 6.4-4.9 13.2-13.8 13.2-1.8 0-3.5-.3-4.9-.8L2.2 159h278.1c11 0 20-9 20-20zM129.6 33.8l3.1-.5v21c0 .5 0 .9.1 1.3.1.3.2.6.4.8.2.2.5.4.8.5.3.1.8.2 1.2.3l-.3 2.5c-1.9 0-3.3-.5-4.1-1.2-.8-.8-1.2-2-1.2-3.7v-21zm-19.1 12.7c.5-1.2 1-2.1 1.8-2.9.7-.8 1.6-1.3 2.6-1.7 1-.4 2-.6 3-.6 2.4 0 4.2.7 5.4 2.2 1.3 1.5 1.9 3.7 1.9 6.7v1.1h-12c.1 1.8.7 3.2 1.6 4.1.9.9 2.4 1.4 4.3 1.4 1.1 0 2-.1 2.8-.3s1.3-.4 1.7-.6l.4 2.6c-.4.2-1 .4-2 .6-1 .2-2 .3-3.2.3-1.5 0-2.8-.2-4-.7-1.1-.5-2-1.1-2.7-1.9s-1.2-1.8-1.6-2.9c-.5-.7-.7-1.9-.7-3.3 0-1.5.2-2.9.7-4.1zM91.3 42h3.1v9c0 2.1.3 3.7 1 4.6.7.9 1.8 1.4 3.4 1.4h1c.4 0 .7-.1 1-.1s.6-.1.9-.1.4-.1.6-.1V41.9h3.1v17c-.7.2-1.7.4-2.8.6-1.2.2-2.5.3-4.1.3-1.3 0-2.5-.2-3.4-.6-.9-.4-1.7-.9-2.2-1.7-.6-.7-1-1.6-1.2-2.5-.2-1-.4-2.1-.4-3.2V42zm-22.4 72.8c-8.7 0-13.3-6.8-13.3-12.9 0-7.1 5.8-13.2 14.1-13.2 8 0 13 6.3 13 12.9.1 6.4-4.9 13.2-13.8 13.2zm38.3-15.9c0 4-2.3 6-4.6 7.8-.7.7-1.5 1.5-1.5 2.7 0 1.2.8 1.9 1.4 2.3l2 1.5c2.4 2 4.6 3.9 4.6 7.6 0 5.1-5 10.3-14.4 10.3-7.9 0-11.7-3.8-11.7-7.8 0-2 1-4.7 4.2-6.7 3.4-2.1 8-2.3 10.4-2.5-.8-1-1.6-2-1.6-3.7 0-.9.3-1.5.5-2.1-.6.1-1.2.1-1.7.1-5.8 0-9.1-4.3-9.1-8.6 0-2.5 1.1-5.3 3.5-7.3 3.1-2.6 6.8-3 9.8-3h11.2l-3.5 2h-3.4c1.3 1 3.9 3.2 3.9 7.4zm14.2 15h-9.7c1.3-1.6 1.5-1.8 1.5-2.9V77.2H109l4.1-2h7.8c-1.7 1-2.3 1.3-2.5 3.2v31.4c0 2.1.4 2.4 2.2 2.6 1 .1 1.9.2 2.8.3l-2 1.2zm21.5-1c-.6.3-1.2.7-1.8 1-1.8.8-3.6 1-5.3 1-1.7 0-4.5-.1-7.2-2.1-3.9-2.7-5.5-7.4-5.5-11.5 0-8.4 6.9-12.6 12.5-12.6 2 0 4 .5 5.6 1.5 2.7 1.8 3.4 4.1 3.8 5.4l-12.8 5.2-4.2.3c1.4 6.9 6 10.9 11.2 10.9 2.8 0 4.8-1 6.6-1.9l-2.9 2.8zm6.5-23.8h-1.2v3.6h-.4v-3.6h-1.2v-.4h2.8v.4zm-.9-29.7c-.6.1-1.3.1-2 .2s-1.4.1-2.1.1c-1 0-1.9-.1-2.7-.3-.8-.2-1.5-.5-2.2-1-.6-.4-1.1-1-1.4-1.7s-.5-1.6-.5-2.6.2-1.8.6-2.5c.4-.7.9-1.3 1.6-1.7.7-.4 1.5-.7 2.4-.9.9-.2 1.8-.3 2.8-.3.3 0 .6 0 1 .1.3 0 .7.1 1 .1.3.1.6.1.8.2.2 0 .4.1.5.1v-.9c0-.5-.1-1-.2-1.5s-.3-1-.6-1.3c-.3-.4-.7-.7-1.2-.9s-1.2-.4-2-.4c-1 0-1.9.1-2.7.2-.8.1-1.4.3-1.7.5l-.4-2.6c.4-.2 1.1-.4 2-.5.8-.3 1.9-.4 3-.4 1.3 0 2.3.2 3.2.5.9.3 1.6.8 2.1 1.4.5.6.9 1.3 1.1 2.1.2.8.3 1.7.3 2.7V59c-.3 0-.6.1-1.1.2-.5.1-1 .2-1.6.2zm5.1 33.3h-.5v-3.6l-1.1 3.6h-.3l-1.1-3.6v3.6h-.4v-4h.7l1 3.2 1-3.2h.7v4zm9.6-42.1c0-1.5.2-2.9.7-4.1s1-2.1 1.8-2.9c.7-.8 1.6-1.3 2.6-1.7 1-.4 2-.6 3-.6 2.4 0 4.2.7 5.4 2.2 1.3 1.5 1.9 3.7 1.9 6.7v1.1h-12c.1 1.8.7 3.2 1.6 4.1.9.9 2.4 1.4 4.3 1.4 1.1 0 2-.1 2.8-.3s1.3-.4 1.7-.6l.4 2.6c-.4.2-1 .4-2 .6-1 .2-2 .3-3.2.3-1.5 0-2.8-.2-4-.7-1.1-.5-2-1.1-2.7-1.9s-1.2-1.8-1.6-2.9c-.4-1.1-.7-1.9-.7-3.3zm21.2 61.4c-1.8 2.4-4.4 3.6-7.8 3.6-1.7 0-3.3-.3-4.7-.9-1.4-.6-2.6-1.6-3.5-2.9h-.3c.2 1.5.3 3 .3 4.3v10.7h-4V89h3.2l.5 3.6h.2c1-1.4 2.2-2.5 3.6-3.1 1.3-.6 2.9-1 4.6-1 3.5 0 6.1 1.2 8 3.5 1.9 2.4 2.8 5.7 2.8 10s-1 7.6-2.9 10zm12.2 3.2h-4V78.1h4v37.1zm.5-55.9H194v-9.2c0-1.1-.1-2-.2-2.8-.1-.8-.4-1.4-.7-1.9-.3-.5-.8-.8-1.3-1-.6-.2-1.3-.3-2.1-.3h-1c-.4 0-.7.1-1 .1s-.6.1-.9.1-.4.1-.6.1v14.8h-3.1V42.4h-.2c.7-.2 1.7-.4 2.9-.6 1.2-.2 2.6-.3 4.1-.3 1.4 0 2.5.2 3.5.6.9.4 1.7.9 2.2 1.6s.9 1.6 1.2 2.5c.2 1 .3 2.1.3 3.3v9.8zm25 56h-2.8v-.1l-.8-3.7h-.2c-1.3 1.6-2.6 2.7-3.9 3.3-1.3.6-2.9.9-4.8.9-2.6 0-4.6-.7-6.1-2s-2.2-3.2-2.2-5.7c0-5.3 4.2-8 12.6-8.3l4.4-.1V98c0-2-.4-3.6-1.3-4.5-.9-1-2.3-1.5-4.2-1.5-2.2 0-4.6.7-7.4 2l-1.2-3c1.3-.7 2.7-1.2 4.2-1.6 1.5-.4 3.1-.6 4.6-.6 3.1 0 5.4.7 6.9 2.1 1.5 1.4 2.2 3.6 2.2 6.6v17.8zm15.6 3.4c-1.1 2.9-2.4 5-3.9 6.3-1.5 1.2-3.3 1.8-5.5 1.8-1.2 0-2.4-.1-3.6-.4v-3.2c.9.2 1.9.3 2.9.3 2.7 0 4.7-1.5 5.8-4.6l1.5-3.7L224.5 89h4.2l5.7 14.9c1.3 3.4 2 5.9 2.3 7.4h.2c.2-.8.6-2.2 1.3-4.2.7-2 2.8-8 6.5-18.1h4.2l-11.2 29.7zM46.2 110.4c1.3-1.7 1.6-3.9 1.6-6.1 0-2-.4-4.6-1.3-7.1l-10.3 14.4c1.2 1 2.7 1.6 4.4 1.6 2.2 0 4.4-1 5.6-2.8zM120.7 45.4c-.7-.9-1.7-1.4-3-1.4-.7 0-1.4.1-1.9.4-.5.3-1 .6-1.4 1.1-.4.5-.7 1-.9 1.5-.2.6-.4 1.2-.4 1.8h8.7c0-1.4-.3-2.5-1.1-3.4zM174.1 45.4c-.7-.9-1.7-1.4-3-1.4-.7 0-1.4.1-1.9.4-.5.3-1 .6-1.4 1.1-.4.5-.7 1-.9 1.5-.2.6-.4 1.2-.4 1.8h8.7c0-1.4-.3-2.5-1.1-3.4zM139.4 95.2c0-2.2-2.4-4.7-5.4-4.7-2.2 0-6.3 1.7-6.3 7.6 0 .9.1 1.9.2 2.9l9.9-4.3c1-.4 1.6-.7 1.6-1.5zM98.1 115.6c-.5 0-3.4.1-5.7.9-1.2.4-4.7 1.7-4.7 5.6 0 3.9 3.8 6.7 9.6 6.7 5.2 0 8-2.5 8-5.9.1-2.8-1.7-4.2-5.9-7.2-.4-.1-.7-.1-1.3-.1zM207.5 104c-1.4.9-2.1 2.2-2.1 4 0 1.4.4 2.5 1.3 3.3.9.7 2.1 1.1 3.7 1.1 2.5 0 4.4-.7 5.8-2 1.4-1.3 2.1-3.2 2.1-5.7v-2.4l-4 .2c-3.1.1-5.4.6-6.8 1.5zM79 55.9c.8 0 1.6-.1 2.3-.4.7-.2 1.2-.5 1.6-.8v-8.3l-6.4 8.9c.2.1.4.2.7.3.6.2 1.2.3 1.8.3zM95.5 91.3c-1.4 0-2.9.7-3.8 1.8-.9 1.1-1.2 2.6-1.2 4 0 3.7 2.1 9.7 6.8 9.7 1.4.1 2.8-.6 3.7-1.5 1.3-1.3 1.4-3 1.4-4 0-3.9-2.3-10-6.9-10zM280.3 162h22.9v-21.1c-1.1 11.8-10.9 21.1-22.9 21.1z"/><path class="st1" d="M303.2 140.9v-120C302.1 9.2 292.3 0 280.3 0H116.2L114 3h166.3c11 0 20 9 20 20v116c0 11-9 20-20 20H2.2L0 162h280.3c12 0 21.8-9.3 22.9-21.1z"/><path class="st2" d="M176.5 88.5c-1.7 0-3.3.4-4.6 1-1.4.6-2.6 1.7-3.6 3.1h-.2l-.5-3.6h-3.2v37.8h4v-10.7c0-1.3-.1-2.8-.3-4.3h.3c.9 1.3 2.1 2.3 3.5 2.9 1.4.6 3 .9 4.7.9 3.4 0 6-1.2 7.8-3.6 1.9-2.4 2.9-5.7 2.9-10s-.9-7.6-2.8-10c-1.9-2.3-4.5-3.5-8-3.5zm4.9 21.2c-1.3 1.8-3 2.7-5.3 2.7-2.7 0-4.7-.8-5.9-2.4-1.2-1.6-1.8-4.2-1.8-7.9v-.9c0-3.3.6-5.6 1.8-7.1s3.1-2.2 5.8-2.2c2.3 0 4.1.9 5.4 2.7 1.3 1.7 1.9 4.2 1.9 7.5s-.6 5.8-1.9 7.6zM192.6 78.1h4v37.1h-4zM213 88.8c-1.5 0-3.1.2-4.6.6-1.5.4-2.9.9-4.2 1.6l1.2 3c2.8-1.3 5.2-2 7.4-2 1.9 0 3.3.5 4.2 1.5.9.9 1.3 2.5 1.3 4.5v1.6l-4.4.1c-8.4.3-12.6 3-12.6 8.3 0 2.5.7 4.4 2.2 5.7s3.5 2 6.1 2c1.9 0 3.5-.3 4.8-.9 1.3-.6 2.6-1.7 3.9-3.3h.2l.8 3.7v.1h2.8V97.5c0-3-.7-5.2-2.2-6.6-1.5-1.4-3.8-2.1-6.9-2.1zm5.3 15.9c0 2.5-.7 4.4-2.1 5.7-1.4 1.3-3.3 2-5.8 2-1.6 0-2.8-.4-3.7-1.1-.9-.8-1.3-1.9-1.3-3.3 0-1.8.7-3.1 2.1-4 1.4-.9 3.7-1.4 6.8-1.5l4-.2v2.4zM238.2 107.1c-.7 2-1.1 3.4-1.3 4.2h-.2c-.3-1.5-1-4-2.3-7.4L228.7 89h-4.2l10.4 26.2-1.5 3.7c-1.1 3.1-3.1 4.6-5.8 4.6-1 0-2-.1-2.9-.3v3.2c1.2.3 2.4.4 3.6.4 2.2 0 4-.6 5.5-1.8 1.5-1.3 2.8-3.4 3.9-6.3L248.9 89h-4.2c-3.7 10.1-5.8 16.1-6.5 18.1zM110.2 89.5H99c-3 0-6.7.4-9.8 3-2.4 2-3.5 4.8-3.5 7.3 0 4.3 3.3 8.6 9.1 8.6.5 0 1.1 0 1.7-.1-.2.6-.5 1.2-.5 2.1 0 1.7.8 2.7 1.6 3.7-2.4.2-7 .4-10.4 2.5-3.2 2-4.2 4.7-4.2 6.7 0 4 3.8 7.8 11.7 7.8 9.4 0 14.4-5.2 14.4-10.3 0-3.7-2.2-5.6-4.6-7.6l-2-1.5c-.6-.4-1.4-1.1-1.4-2.3 0-1.2.8-2 1.5-2.7 2.3-1.8 4.6-3.8 4.6-7.8 0-4.2-2.6-6.4-3.9-7.4h3.4l3.5-2zm-4.9 33.4c0 3.4-2.8 5.9-8 5.9-5.8 0-9.6-2.8-9.6-6.7 0-3.9 3.5-5.2 4.7-5.6 2.3-.8 5.2-.9 5.7-.9.6 0 .9 0 1.3.1 4.2 3 6 4.4 5.9 7.2zm-4.3-17.6c-.9.9-2.3 1.6-3.7 1.5-4.7 0-6.8-6-6.8-9.7 0-1.4.3-2.9 1.2-4 .9-1.1 2.4-1.8 3.8-1.8 4.6 0 6.9 6.1 6.9 10 0 1-.1 2.7-1.4 4zM69.7 88.7c-8.3 0-14.1 6.1-14.1 13.2 0 6.1 4.6 12.9 13.3 12.9 8.9 0 13.9-6.8 13.8-13.2 0-6.6-5-12.9-13-12.9zm6.1 21.7c-1.3 1.8-3.5 2.8-5.6 2.8-6.6 0-9.3-8.9-9.3-14.3 0-2.4.4-4.8 2.5-6.7 1.3-1.2 3.1-1.9 4.9-1.9 6.8 0 9.1 9.2 9.1 14 0 2.2-.3 4.4-1.6 6.1zM53.2 101.6c0-3.3-1.2-6.5-3.5-8.9l-3.2 4.5c.9 2.5 1.3 5.2 1.3 7.1 0 2.2-.3 4.4-1.6 6.1-1.2 1.8-3.4 2.8-5.6 2.8-1.7 0-3.2-.6-4.4-1.6l-1.7 2.4c1.5.5 3.1.8 4.9.8 8.9 0 13.8-6.8 13.8-13.2zM118.4 109.8V78.4c.2-1.9.8-2.2 2.5-3.2h-7.8l-4.1 2h4.2V111c0 1.1-.2 1.3-1.5 2.9h9.7l2-1.2c-.9-.1-1.8-.2-2.8-.3-1.8-.2-2.2-.5-2.2-2.6zM128 101.1l4.2-.3 12.8-5.2c-.4-1.3-1.1-3.6-3.8-5.4-1.6-1-3.6-1.5-5.6-1.5-5.6 0-12.5 4.2-12.5 12.6 0 4.1 1.6 8.8 5.5 11.5 2.7 2 5.5 2.1 7.2 2.1 1.7 0 3.5-.2 5.3-1 .6-.3 1.2-.7 1.8-1l2.9-2.8c-1.8.9-3.8 1.9-6.6 1.9-5.2 0-9.8-4-11.2-10.9zm-.3-3c0-5.9 4.1-7.6 6.3-7.6 3 0 5.4 2.5 5.4 4.7 0 .8-.6 1.1-1.6 1.5l-9.9 4.3c-.1-1-.2-2-.2-2.9zM146.6 89.1h1.2v3.6h.4v-3.6h1.2v-.4h-2.8zM151.9 91.9l-1-3.2h-.7v4h.4v-3.6l1.1 3.6h.3l1.1-3.6v3.6h.5v-4h-.7z"/><path class="st1" d="M78.7 58.7c1 0 1.9-.1 2.7-.4s1.3-.5 1.6-.7h.1v.9c0 1.6-.4 2.8-1.2 3.5s-2.1 1.1-4 1.1c-.9 0-1.9-.1-2.8-.3-.9-.2-1.7-.5-2.3-.7l-.6 2.7c.7.2 1.5.4 2.5.6 1 .2 2 .3 3.1.3 2.8 0 4.9-.6 6.3-1.8 1.4-1.3 2.1-3.2 2.1-5.9V42.3c-.1 0-.2-.1-.3-.1l-3 4.2v8.3c-.4.3-.9.6-1.6.8-.7.3-1.5.4-2.3.4-.6 0-1.2-.1-1.8-.3-.2-.1-.5-.2-.7-.3l-1.8 2.5c.3.2.6.3.9.4 1.1.3 2 .5 3.1.5zM92.9 57.5c.5.8 1.3 1.3 2.2 1.7.9.4 2.1.6 3.4.6 1.6 0 2.9-.1 4.1-.3 1.1-.2 2.1-.4 2.8-.6v-17h-3.1v14.8c-.2 0-.3.1-.6.1s-.6.1-.9.1-.6.1-1 .1h-1c-1.6 0-2.7-.5-3.4-1.4-.7-.9-1-2.5-1-4.6v-9h-3.1v9.8c0 1.1.2 2.2.4 3.2.2.9.6 1.8 1.2 2.5zM112.1 56.8c.7.8 1.6 1.4 2.7 1.9 1.2.5 2.5.7 4 .7 1.2 0 2.2-.1 3.2-.3 1-.2 1.6-.4 2-.6l-.4-2.6c-.4.2-.9.4-1.7.6s-1.7.3-2.8.3c-1.9 0-3.4-.5-4.3-1.4-.9-.9-1.5-2.3-1.6-4.1h12v-1.1c0-3-.6-5.2-1.9-6.7-1.2-1.5-3-2.2-5.4-2.2-1 0-2 .2-3 .6-1 .4-1.9.9-2.6 1.7-.8.8-1.3 1.7-1.8 2.9s-.7 2.6-.7 4.1c0 1.4.2 2.6.7 3.3.4 1.1.9 2.1 1.6 2.9zm1.4-9.8c.2-.5.5-1 .9-1.5s.9-.8 1.4-1.1c.5-.3 1.2-.4 1.9-.4 1.3 0 2.3.5 3 1.4.8.9 1.1 2 1.1 3.4h-8.7c0-.6.2-1.2.4-1.8zM134.9 59.7l.3-2.5c-.4-.1-.9-.2-1.2-.3-.3-.1-.6-.3-.8-.5-.2-.2-.3-.5-.4-.8-.1-.4-.1-.8-.1-1.3v-21l-3.1.5v21c0 1.7.4 2.9 1.2 3.7.8.7 2.2 1.2 4.1 1.2zM151.2 48.1c0-1-.1-1.9-.3-2.7-.2-.8-.6-1.5-1.1-2.1-.5-.6-1.2-1.1-2.1-1.4-.9-.3-1.9-.5-3.2-.5-1.1 0-2.2.1-3 .4-.9.1-1.6.3-2 .5l.4 2.6c.3-.2.9-.4 1.7-.5.8-.1 1.7-.2 2.7-.2.8 0 1.5.2 2 .4s.9.5 1.2.9c.3.3.5.8.6 1.3.1.5.2 1 .2 1.5v.9c-.1 0-.3-.1-.5-.1-.2-.1-.5-.1-.8-.2-.3 0-.7-.1-1-.1-.4-.1-.7-.1-1-.1-1 0-1.9.1-2.8.3-.9.2-1.7.5-2.4.9s-1.2 1-1.6 1.7c-.4.7-.6 1.5-.6 2.5s.2 1.9.5 2.6.8 1.3 1.4 1.7c.7.5 1.4.8 2.2 1 .8.2 1.7.3 2.7.3.7 0 1.4 0 2.1-.1.7-.1 1.4-.1 2-.2.6 0 1.1-.1 1.6-.2s.8-.2 1.1-.2V48.1zm-3.1 8.7c-.4.1-.8.2-1.4.2-.6.1-1.3.1-2 .1-1.2 0-2.2-.2-2.8-.7-.7-.4-1.1-1.2-1.1-2.3 0-.6.1-1.1.4-1.5.3-.4.7-.7 1.1-.9.4-.2.9-.3 1.4-.4.5-.1 1-.1 1.5-.1.7 0 1.3 0 1.8.1s.9.2 1.1.3v5.2zM168.2 58.7c1.2.5 2.5.7 4 .7 1.2 0 2.2-.1 3.2-.3 1-.2 1.6-.4 2-.6l-.4-2.6c-.4.2-.9.4-1.7.6s-1.7.3-2.8.3c-1.9 0-3.4-.5-4.3-1.4-.9-.9-1.5-2.3-1.6-4.1h12v-1.1c0-3-.6-5.2-1.9-6.7-1.2-1.5-3-2.2-5.4-2.2-1 0-2 .2-3 .6-1 .4-1.9.9-2.6 1.7-.8.8-1.3 1.7-1.8 2.9s-.7 2.6-.7 4.1c0 1.4.3 2.2.7 3.3.4 1.1.9 2.1 1.6 2.9s1.6 1.4 2.7 1.9zM166.9 47c.2-.5.5-1 .9-1.5s.9-.8 1.4-1.1c.5-.3 1.2-.4 1.9-.4 1.3 0 2.3.5 3 1.4.8.9 1.1 2 1.1 3.4h-8.7c0-.6.2-1.2.4-1.8zM195.6 43.7c-.5-.7-1.3-1.2-2.2-1.6-1-.4-2.1-.6-3.5-.6-1.5 0-2.9.1-4.1.3-1.2.2-2.2.4-2.9.6h.2v16.8h3.1V44.4c.2 0 .3-.1.6-.1s.6-.1.9-.1.6-.1 1-.1h1c.8 0 1.5.1 2.1.3.5.2 1 .5 1.3 1 .3.5.6 1.1.7 1.9.1.8.2 1.7.2 2.8v9.2h3.1v-9.8c0-1.2-.1-2.3-.3-3.3-.3-.9-.7-1.8-1.2-2.5z"/></svg>