<svg xmlns="http://www.w3.org/2000/svg" viewBox="0 0 302.2 162" enable-background="new 0 0 302.2 162"><style type="text/css">.st0{fill:none;} .st1{fill:#FFFFFF;} .st2{fill:#F9F9F9;}</style><path class="st0" d="M0 139v23h23c-12.7 0-23-10.3-23-23zM202.7 57c1.5 0 2.7-.6 3.6-1.7.8-1.1 1.3-2.7 1.3-4.7s-.4-3.5-1.3-4.7c-.9-1.2-2.1-1.7-3.6-1.7s-2.7.6-3.6 1.7c-.9 1.2-1.3 2.7-1.3 4.7s.4 3.5 1.3 4.7c.9 1.2 2.1 1.7 3.6 1.7zM23 0H0v23C0 10.3 10.3 0 23 0zM269 44.6c-.3-.1-.7-.2-1.3-.3-.5-.1-1.2-.1-2.1-.1-1.7 0-3 .5-3.9 1.6-.9 1.1-1.4 2.6-1.4 4.4 0 1 .1 1.9.4 2.6s.6 1.3 1 1.8c.2.3.5.5.8.7l6.4-8.9.1-1.8zM23 2.9c-11 0-20 9-20 20V139c0 11 9 20 20 20h165.2l32.3-45c-5.5-2-8.4-7.2-8.4-12.1 0-7.1 5.8-13.2 14.1-13.2 4 0 7.3 1.6 9.5 4l25.1-34.9c-.5-.3-1-.7-1.5-1.2-.7-.7-1.2-1.6-1.6-2.6-.4-1.1-.6-2.3-.6-3.8 0-1.3.2-2.5.6-3.5.4-1.1.9-2 1.7-2.8.7-.8 1.6-1.4 2.7-1.8 1.1-.4 2.2-.7 3.6-.7 1.5 0 2.7.1 3.8.3 1 .2 1.8.3 2.4.5L300 3 23 2.9zm229.7 56.5h-3.1V41.9h3.1v17.5zm.5-26.2l2 2-4.7 4.6-1.6-1.4 4.3-5.2zm-11.8 20c-.6-.4-1.6-1-3-1.5-.7-.3-1.3-.5-1.9-.8-.6-.3-1.1-.6-1.6-1-.4-.4-.8-.8-1.1-1.4-.3-.5-.4-1.2-.4-2 0-1.5.6-2.8 1.7-3.7 1.1-.9 2.7-1.4 4.7-1.4.5 0 1 0 1.5.1s1 .1 1.4.2c.4.1.8.2 1.1.3.3.1.6.2.8.2l-.6 2.7c-.3-.2-.9-.4-1.6-.6s-1.6-.3-2.6-.3c-.9 0-1.6.2-2.3.5s-1 .9-1 1.6c0 .4.1.7.2 1 .1.3.4.6.7.8.3.2.7.5 1.1.7.4.2 1 .4 1.6.6.8.3 1.6.6 2.2.9.7.3 1.2.7 1.7 1.1.5.4.8.9 1.1 1.5.2.6.4 1.3.4 2.1 0 1.6-.6 2.8-1.8 3.7-1.2.9-2.9 1.2-5.1 1.2-1.5 0-2.8-.1-3.6-.4l-1.8-.6.6-2.7c.4.1.9.3 1.7.6.8.4 1.8.5 3.1.5s2.2-.2 2.8-.5c.6-.3.9-.9.9-1.6 0-.8-.3-1.4-.9-1.8zm-23.3-11.4c1.2-.2 2.6-.3 4.1-.3 1.4 0 2.5.2 3.5.6.9.4 1.7.9 2.2 1.6s.9 1.6 1.2 2.5c.2 1 .3 2.1.3 3.3v9.8h-3.1v-9.2c0-1.1-.1-2-.2-2.8-.1-.8-.4-1.4-.7-1.9-.3-.5-.8-.8-1.3-1-.6-.2-1.3-.3-2.1-.3h-1c-.4 0-.7.1-1 .1s-.6.1-.9.1-.4.1-.6.1v14.8h-3.1V42.4h-.2c.7-.2 1.7-.4 2.9-.6zM54.3 122.3V39.4c0-.4.1-.7.2-1l42.6 42.2-42.7 42.3c-.1-.2-.1-.4-.1-.6zm75.1-39.8c-1.7.9-12.4 7.1-16.2 9.3l-11.3-11.2 11.2-11.2c4 2.3 14.8 8.6 16.4 9.3 1.8 1 2 2.6-.1 3.8zm-29.9-4.3L58.8 37.9c4.9 2.9 34.6 20 34.6 20l16.7 9.7-10.6 10.6zm10.6 15.3l-16.6 9.6s-27 15.5-34.3 19.8l40.3-40 10.6 10.6zM195 46.8c.4-1.1 1-2.1 1.7-2.9.7-.8 1.6-1.4 2.6-1.9 1-.4 2.1-.7 3.3-.7 1.2 0 2.3.2 3.3.7s1.9 1.1 2.6 1.9c.7.8 1.3 1.8 1.7 2.9.4 1.2.6 2.4.6 3.8s-.2 2.6-.6 3.8c-.4 1.1-1 2.1-1.7 2.9s-1.6 1.4-2.6 1.9c-1 .4-2.1.7-3.3.7-1.2 0-2.3-.2-3.3-.7-1-.4-1.9-1.1-2.6-1.9s-1.3-1.8-1.7-2.9c-.4-1.1-.6-2.4-.6-3.8s.2-2.6.6-3.8zm-15.1.1c.4-1.1.9-2.1 1.7-2.9.7-.8 1.6-1.5 2.6-1.9 1-.5 2.2-.7 3.5-.7.8 0 1.6.1 2.4.2.8.1 1.5.3 2.3.6l-.7 2.7c-.5-.2-1-.4-1.6-.5-.6-.1-1.3-.2-2-.2-1.7 0-3.1.6-4 1.6-.9 1.1-1.4 2.7-1.4 4.8 0 .9.1 1.8.3 2.6.2.8.6 1.5 1 2 .5.6 1 1 1.8 1.3.7.3 1.6.5 2.6.5.8 0 1.6-.1 2.3-.2.7-.2 1.2-.3 1.6-.5l.4 2.6c-.2.1-.4.2-.8.3-.4.1-.7.2-1.1.3-.4.1-.9.1-1.4.2-.5.1-1.2.1-1.6.1-1.4 0-2.7-.2-3.7-.7-1.1-.5-2-1.1-2.7-1.9s-1.3-1.8-1.6-2.9c-.4-1.1-.5-2.3-.5-3.7 0-1.3.2-2.6.6-3.7zm12.4 29.5c3 0 5.8.4 8.4 1.2 4.1 1.2 6 2.6 7.2 3.4l-4.6 4.3-1.9.4 1.4-2.2c-1.9-1.8-5.3-5.1-11.7-5.1-8.7 0-15.2 6.6-15.2 16.2 0 10.3 7.5 20 19.4 20 3.5 0 5.3-.7 7-1.4v-8.8l-8.3.4 4.4-2.4H210l-1.4 1.4c-.4.3-.4.4-.5.9-.1.5-.1 2.1-.1 2.6v6.7h-.1l-7.8 1.8c-3.2.5-6 .9-9 .9-15.1 0-20.9-11.1-20.9-19.8 0-10.6 8.2-20.5 22.1-20.5zM224.7 90.3c-1.8 0-3.6.7-4.9 1.9-2.1 1.9-2.5 4.3-2.5 6.7 0 4 1.5 9.8 4.9 12.7l10.3-14.4c-1.3-3.7-3.8-6.9-7.8-6.9z"/><path class="st1" d="M23 159c-11 0-20-9-20-20V22.9c0-11 9-20 20-20V3h277l2.2-3H23C10.3 0 0 10.3 0 23v116c0 12.7 10.3 23 23 23h163l2.2-3H23zM54.5 38.4c-.1.3-.2.6-.2 1v82.9c0 .2 0 .4.1.6l42.7-42.3-42.6-42.2zM58.8 37.9l40.7 40.3 10.6-10.6-16.7-9.7s-29.7-17.1-34.6-20zM59.2 122.9c7.3-4.2 34.3-19.8 34.3-19.8l16.6-9.6-10.6-10.6-40.3 40zM101.9 80.6l11.3 11.2c3.8-2.2 14.5-8.4 16.2-9.3 2.1-1.2 1.9-2.8.1-3.8-1.5-.7-12.3-7-16.4-9.3l-11.2 11.2z"/><path class="st2" d="M226.2 88.7c-8.3 0-14.1 6.1-14.1 13.2 0 4.8 2.9 10.1 8.4 12.1l1.7-2.4c-3.4-2.8-4.9-8.7-4.9-12.7 0-2.4.4-4.8 2.5-6.7 1.3-1.2 3.1-1.9 4.9-1.9 4 0 6.5 3.2 7.8 6.9l3.2-4.5c-2.2-2.4-5.5-4-9.5-4zM191.1 116.7c3 0 5.8-.4 9-.9l7.8-1.8h.1v-6.7c0-.5 0-2.1.1-2.6s.1-.6.5-.9l1.4-1.4h-11.6l-4.4 2.4 8.3-.4v8.8c-1.7.7-3.5 1.4-7 1.4-11.9 0-19.4-9.7-19.4-20 0-9.6 6.5-16.2 15.2-16.2 6.4 0 9.8 3.3 11.7 5.1l-1.4 2.2 1.9-.4 4.6-4.3c-1.2-.8-3.1-2.2-7.2-3.4-2.6-.8-5.4-1.2-8.4-1.2-13.9 0-22.1 9.9-22.1 20.5 0 8.7 5.8 19.8 20.9 19.8z"/><path class="st1" d="M181.4 57.2c.7.8 1.6 1.4 2.7 1.9 1 .5 2.3.7 3.7.7.4 0 1.1 0 1.6-.1s1-.1 1.4-.2c.4-.1.7-.2 1.1-.3.4-.1.6-.2.8-.3l-.4-2.6c-.4.2-.9.3-1.6.5-.7.1-1.5.2-2.3.2-1 0-1.9-.2-2.6-.5-.8-.3-1.3-.7-1.8-1.3-.4-.5-.8-1.2-1-2-.2-.8-.3-1.7-.3-2.6 0-2.1.5-3.7 1.4-4.8.9-1 2.3-1.6 4-1.6.7 0 1.4.1 2 .2.6.1 1.1.3 1.6.5l.7-2.7c-.8-.3-1.5-.5-2.3-.6-.8-.1-1.6-.2-2.4-.2-1.3 0-2.5.2-3.5.7-1 .4-1.9 1.1-2.6 1.9-.8.8-1.3 1.8-1.7 2.9-.4 1.1-.6 2.4-.6 3.7 0 1.4.1 2.6.5 3.7.3 1.1.9 2.1 1.6 2.9zM196.7 57.3c.7.8 1.6 1.5 2.6 1.9 1 .5 2.1.7 3.3.7 1.2 0 2.3-.3 3.3-.7 1-.5 1.9-1.1 2.6-1.9s1.3-1.8 1.7-2.9c.4-1.2.6-2.4.6-3.8s-.2-2.6-.6-3.8c-.4-1.1-1-2.1-1.7-2.9-.7-.8-1.6-1.4-2.6-1.9s-2.1-.7-3.3-.7c-1.2 0-2.3.3-3.3.7-1 .5-1.9 1.1-2.6 1.9-.7.8-1.3 1.8-1.7 2.9-.4 1.2-.6 2.4-.6 3.8s.2 2.7.6 3.8c.4 1.1 1 2.1 1.7 2.9zm2.4-11.4c.9-1.1 2.1-1.7 3.6-1.7s2.7.5 3.6 1.7c.9 1.2 1.3 2.7 1.3 4.7s-.5 3.6-1.3 4.7c-.9 1.1-2.1 1.7-3.6 1.7s-2.7-.5-3.6-1.7c-.9-1.2-1.3-2.7-1.3-4.7s.4-3.5 1.3-4.7zM215.4 59.2h3.1V44.4c.2 0 .3-.1.6-.1s.6-.1.9-.1.6-.1 1-.1h1c.8 0 1.5.1 2.1.3.5.2 1 .5 1.3 1 .3.5.6 1.1.7 1.9.1.8.2 1.7.2 2.8v9.2h3.1v-9.8c0-1.2-.1-2.3-.3-3.3-.3-.9-.7-1.8-1.2-2.5s-1.3-1.2-2.2-1.6c-1-.4-2.1-.6-3.5-.6-1.5 0-2.9.1-4.1.3-1.2.2-2.2.4-2.9.6h.2v16.8zM241.4 56.6c-.6.3-1.5.5-2.8.5-1.3 0-2.3-.1-3.1-.5-.8-.3-1.3-.5-1.7-.6l-.6 2.7 1.8.6c.8.3 2.1.4 3.6.4 2.2 0 3.9-.3 5.1-1.2 1.2-.9 1.8-2.1 1.8-3.7 0-.8-.2-1.5-.4-2.1-.3-.6-.6-1.1-1.1-1.5-.5-.4-1-.8-1.7-1.1-.6-.3-1.4-.6-2.2-.9-.6-.2-1.2-.4-1.6-.6-.4-.2-.8-.5-1.1-.7-.3-.2-.6-.5-.7-.8-.1-.3-.2-.6-.2-1 0-.7.3-1.3 1-1.6s1.4-.5 2.3-.5c1 0 1.9.1 2.6.3s1.3.4 1.6.6l.6-2.7c-.2 0-.5-.1-.8-.2-.3-.1-.7-.2-1.1-.3-.4-.1-.9-.1-1.4-.2s-1-.1-1.5-.1c-2 0-3.6.5-4.7 1.4-1.1.9-1.7 2.2-1.7 3.7 0 .8.1 1.5.4 2 .3.6.7 1 1.1 1.4.5.4 1 .7 1.6 1 .6.3 1.2.5 1.9.8 1.4.5 2.4 1.1 3 1.5.6.4.9 1 .9 1.8 0 .7-.3 1.3-.9 1.6zM255.2 35.2l-2-2-4.3 5.2 1.6 1.4zM249.6 41.9h3.1v17.5h-3.1zM265.7 41.4c-1.4 0-2.5.3-3.6.7-1.1.4-2 1-2.7 1.8-.8.8-1.3 1.7-1.7 2.8-.4 1-.6 2.2-.6 3.5 0 1.5.2 2.7.6 3.8.4 1 .9 1.9 1.6 2.6.4.4.9.8 1.5 1.2l1.8-2.5c-.3-.2-.6-.4-.8-.7-.4-.5-.7-1.1-1-1.8s-.4-1.6-.4-2.6c0-1.8.5-3.3 1.4-4.4.9-1.1 2.2-1.6 3.9-1.6.9 0 1.6 0 2.1.1.6.1 1 .2 1.3.3h-.1v1.8l3-4.2c-.7-.2-1.5-.3-2.4-.5-1.2-.2-2.4-.3-3.9-.3z"/></svg>