<svg xmlns="http://www.w3.org/2000/svg" viewBox="0 0 178.6 178.6" enable-background="new 0 0 178.6 178.6"><style type="text/css">.st0{fill:none;} .st1{fill:#27FFDE;}</style><path class="st0" d="M0 0h178.6v178.6H0z"/><path class="st1" d="M107.4 68.9L90.8 85.5 70 64.7c-1.4-1.4-3.8-1.4-5.2 0-1.4 1.4-1.4 3.8 0 5.2l23.4 23.4c1.4 1.4 3.8 1.4 5.2 0l19.2-19.2c1.4-1.4 1.4-3.8 0-5.2-1.5-1.4-3.8-1.4-5.2 0zM167.3 34l-22.7-22.7c-.6-.6-1.3-.9-2.1-.9s-1.5.3-2.1.9L116.8 35l-.9-.9c-1.1-1.1-3-1.1-4.1 0l-9.6 9.6c-16-4.6-33.9-.7-46.5 11.9-12.5 12.5-16.5 30.2-12.1 46l-9.5 9.5c-.6.6-.9 1.3-.9 2.1s.3 1.5.9 2.1l.9.9-23.9 23.9c-1.1 1.1-1.1 3 0 4.1l22.7 22.7c.6.6 1.3.9 2.1.9s1.5-.3 2.1-.9L61.8 143l.9.9c.6.6 1.3.9 2.1.9s1.5-.3 2.1-.9l9.5-9.5c15.8 4.4 33.5.3 45.9-12.1 12.3-12.3 16.4-29.7 12.2-45.4l10-10c1.1-1.1 1.1-3 0-4.1l-.9-.9 23.6-23.6c1.2-1.3 1.2-3.1.1-4.3zM35.9 160.7l-18.5-18.5 7.1-7.1L43 153.6l-7.1 7.1zm11.2-11.3l-18.5-18.5 10.3-10.3 18.5 18.5-10.3 10.3zm17.7-11.7l-24.5-24.5 5.4-5.4c2.3 5.3 5.6 10.2 9.9 14.5 4.3 4.3 9.3 7.6 14.6 9.9l-5.4 5.5zm52.7-20.3c-15.7 15.7-41.3 15.7-57 0-15.7-15.7-15.7-41.3 0-57 15.7-15.7 41.3-15.7 57 0s15.7 41.3 0 57zm15-46.7c-2.3-5.5-5.7-10.6-10.1-15.1-4.2-4.2-9-7.4-14.1-9.7l5.6-5.6.5.5c.1.1.2.3.3.4l22.7 22.7c.1.1.3.2.4.3l.6.6-5.9 5.9zM121 39.1l11.2-11.2 18.5 18.5-11.2 11.2L121 39.1zm33.9 3.2l-18.5-18.5 6.2-6.2L161 36.1l-6.1 6.2z"/></svg>