<?xml version="1.0" encoding="utf-8"?>
<!-- Generator: Adobe Illustrator 19.0.0, SVG Export Plug-In . SVG Version: 6.00 Build 0)  -->
<svg version="1.1" id="Layer_1" xmlns="http://www.w3.org/2000/svg" xmlns:xlink="http://www.w3.org/1999/xlink" x="0px" y="0px"
	 viewBox="-56 314.8 498.9 165.2" style="enable-background:new -56 314.8 498.9 165.2;" xml:space="preserve">
<style type="text/css">
	.st0{fill:#27FFE0;}
	.st1{fill:none;}
</style>
<g>
	<g>
		<path class="st0" d="M213.6,370.6c0.4,0.5,0.9,0.8,1.5,1c0.6,0.2,1.2,0.3,1.8,0.3c0.8,0,1.6-0.1,2.3-0.4c0.7-0.2,1.2-0.5,1.6-0.8
			v-10.1h0.1c-0.3-0.1-0.7-0.2-1.3-0.3c-0.5-0.1-1.2-0.1-2.1-0.1c-1.7,0-3,0.5-3.9,1.6c-0.9,1.1-1.4,2.6-1.4,4.4
			c0,1,0.1,1.9,0.4,2.6S213.2,370.1,213.6,370.6z"/>
		<path class="st0" d="M258.7,361.4c-0.7-0.9-1.7-1.4-3-1.4c-0.7,0-1.4,0.1-1.9,0.4c-0.5,0.3-1,0.6-1.4,1.1c-0.4,0.5-0.7,1-0.9,1.5
			c-0.2,0.6-0.4,1.2-0.4,1.8h8.7C259.8,363.4,259.5,362.3,258.7,361.4z"/>
		<path class="st0" d="M218.8,406.1c-3.9,0-7.4,2.8-8.5,6.8c0,0.2-0.1,0.4-0.1,0.6c-0.1,0.6-0.2,1.2-0.2,1.7v5.6
			c0,0.9,0,1.7,0.2,2.3c1,3.8,4.4,6.5,8.3,6.5c5.7,0,9.3-4.6,9.3-12C227.8,411.9,225,406.1,218.8,406.1z"/>
		<path class="st0" d="M144.2,395.9c-0.6,2.3-1.2,4.5-1.9,6.4l-4.2,12.4h12.1l-4.2-12.3C145.3,400.1,144.7,398,144.2,395.9z"/>
		<path class="st0" d="M279.9,372.4c0.6,0.5,1.5,0.7,2.8,0.7c0.7,0,1.4,0,2-0.1c0.6,0,1-0.1,1.4-0.2v-5.2c-0.2-0.1-0.6-0.2-1.1-0.3
			c-0.5-0.1-1.1-0.1-1.8-0.1c-0.5,0-1,0-1.5,0.1c-0.5,0.1-1,0.2-1.4,0.4c-0.4,0.2-0.8,0.5-1.1,0.9c-0.3,0.4-0.4,0.9-0.4,1.5
			C278.8,371.2,279.2,372,279.9,372.4z"/>
		<path class="st0" d="M182.7,406.1c-3.9,0-7.4,2.8-8.5,6.8c0,0.2-0.1,0.4-0.1,0.6c-0.1,0.6-0.2,1.2-0.2,1.7v5.6
			c0,0.9,0,1.7,0.2,2.3c1,3.8,4.4,6.5,8.3,6.5c5.7,0,9.3-4.6,9.3-12C191.7,411.9,189,406.1,182.7,406.1z"/>
		<path class="st0" d="M315.9,405.8c-6.5,0-9.4,6.1-9.4,12.1c0,6.9,3.9,11.9,9.2,11.9h0.1c5.4,0,9.3-5.1,9.3-12.1
			C325.1,412,322.2,405.8,315.9,405.8z"/>
		<path class="st0" d="M312,361.4c-0.7-0.9-1.7-1.4-3-1.4c-0.7,0-1.4,0.1-1.9,0.4c-0.5,0.3-1,0.6-1.4,1.1c-0.4,0.5-0.7,1-0.9,1.5
			c-0.2,0.6-0.4,1.2-0.4,1.8h8.7C313.1,363.4,312.8,362.3,312,361.4z"/>
		<path class="st0" d="M154.6,373c1.5,0,2.7-0.6,3.6-1.7c0.9-1.2,1.3-2.7,1.3-4.7s-0.4-3.5-1.3-4.7c-0.9-1.2-2.1-1.7-3.6-1.7
			s-2.7,0.6-3.6,1.7c-0.9,1.2-1.3,2.7-1.3,4.7s0.4,3.5,1.3,4.7C151.9,372.5,153.1,373,154.6,373z"/>
		<path class="st0" d="M369.1,405.6c-5.3,0-7.8,4.4-8.5,8.5h16c0-1.4-0.4-4.4-2.4-6.5C373,406.3,371.2,405.6,369.1,405.6z"/>
	</g>
	<g>
		<path class="st1" d="M148.7,373.3c0.7,0.8,1.6,1.5,2.6,1.9c1,0.5,2.1,0.7,3.3,0.7c1.2,0,2.3-0.3,3.3-0.7c1-0.5,1.9-1.1,2.6-1.9
			s1.3-1.8,1.7-2.9c0.4-1.2,0.6-2.4,0.6-3.8c0-1.4-0.2-2.6-0.6-3.8c-0.4-1.1-1-2.1-1.7-2.9c-0.7-0.8-1.6-1.5-2.6-1.9
			c-1-0.5-2.1-0.7-3.3-0.7c-1.2,0-2.3,0.3-3.3,0.7c-1,0.5-1.9,1.1-2.6,1.9c-0.7,0.8-1.3,1.8-1.7,2.9c-0.4,1.2-0.6,2.4-0.6,3.8
			c0,1.4,0.2,2.7,0.6,3.8C147.4,371.5,148,372.5,148.7,373.3z"/>
		<path class="st1" d="M167.4,375.1h3.1v-14.8c0.2,0,0.3-0.1,0.6-0.1s0.6-0.1,0.9-0.1s0.6-0.1,1-0.1c0.3,0,0.7,0,1,0
			c0.8,0,1.5,0.1,2.1,0.3c0.5,0.2,1,0.5,1.3,1c0.3,0.5,0.6,1.1,0.7,1.9c0.1,0.8,0.2,1.7,0.2,2.8v9.2h3.1v-9.8c0-1.2-0.1-2.3-0.3-3.3
			c-0.3-0.9-0.6-1.8-1.2-2.5c-0.5-0.7-1.3-1.2-2.2-1.6c-1-0.4-2.1-0.6-3.5-0.6c-1.5,0-2.9,0.1-4.1,0.3c-1.2,0.2-2.2,0.4-2.9,0.6h0.2
			V375.1z"/>
		<path class="st1" d="M133.3,373.1c0.7,0.8,1.6,1.4,2.7,1.9c1,0.5,2.3,0.7,3.7,0.7c0.5,0,0.9,0,1.6-0.1c0.5-0.1,1-0.1,1.4-0.2
			c0.4-0.1,0.7-0.2,1.1-0.3c0.4-0.1,0.6-0.2,0.8-0.3l-0.4-2.6c-0.4,0.2-0.9,0.3-1.6,0.5c-0.7,0.1-1.5,0.2-2.3,0.2
			c-1,0-1.9-0.2-2.6-0.5c-0.8-0.3-1.3-0.7-1.8-1.3c-0.4-0.5-0.8-1.2-1-2s-0.3-1.7-0.3-2.6c0-2.1,0.5-3.7,1.4-4.8
			c0.9-1,2.3-1.6,4-1.6c0.7,0,1.4,0.1,2,0.2c0.6,0.1,1.1,0.3,1.6,0.5l0.7-2.7c-0.8-0.3-1.5-0.5-2.3-0.6c-0.8-0.1-1.6-0.2-2.4-0.2
			c-1.3,0-2.5,0.2-3.5,0.7c-1,0.4-1.9,1.1-2.6,1.9c-0.8,0.8-1.3,1.8-1.7,2.9c-0.4,1.1-0.6,2.4-0.6,3.7c0,1.4,0.1,2.6,0.5,3.7
			C132,371.3,132.6,372.3,133.3,373.1z"/>
		<path class="st1" d="M193.4,372.6c-0.6,0.3-1.5,0.5-2.8,0.5c-1.3,0-2.4-0.2-3.1-0.5c-0.8-0.3-1.3-0.5-1.7-0.6l-0.6,2.7
			c0.3,0.1,0.9,0.3,1.8,0.6c0.8,0.3,2.1,0.4,3.6,0.4c2.2,0,3.9-0.3,5.1-1.2c1.2-0.9,1.8-2.1,1.8-3.7c0-0.8-0.2-1.5-0.4-2.1
			c-0.3-0.6-0.6-1.1-1.1-1.5c-0.5-0.4-1-0.8-1.7-1.1c-0.6-0.3-1.4-0.6-2.2-0.9c-0.6-0.2-1.2-0.4-1.6-0.6c-0.4-0.2-0.8-0.5-1.1-0.7
			c-0.3-0.2-0.6-0.5-0.7-0.8c-0.1-0.3-0.2-0.6-0.2-1c0-0.7,0.3-1.3,1-1.6s1.4-0.5,2.3-0.5c1,0,1.9,0.1,2.6,0.3s1.3,0.4,1.6,0.6
			l0.6-2.7c-0.2,0-0.5-0.1-0.8-0.2c-0.3-0.1-0.7-0.2-1.1-0.3c-0.4-0.1-0.9-0.1-1.4-0.2s-1-0.1-1.5-0.1c-2,0-3.6,0.5-4.7,1.4
			c-1.1,0.9-1.7,2.2-1.7,3.7c0,0.8,0.1,1.5,0.4,2c0.3,0.6,0.7,1,1.1,1.4c0.5,0.4,1,0.7,1.6,1c0.6,0.3,1.2,0.5,1.9,0.8
			c1.4,0.5,2.4,1.1,3,1.5c0.6,0.4,0.9,1,0.9,1.8C194.3,371.7,194,372.3,193.4,372.6z"/>
		<path class="st1" d="M56.6,365.9c3.1-3.9,5.4-9.5,4.5-15.1c-5,0.3-10.8,3.5-14.2,7.7c-3.1,3.8-5.6,9.3-4.7,14.8
			C47.6,373.4,53.3,370.1,56.6,365.9z"/>
		<path class="st1" d="M272.8,375.7l0.3-2.5c-0.4-0.1-0.9-0.2-1.2-0.3c-0.3-0.1-0.6-0.3-0.8-0.5c-0.2-0.2-0.3-0.5-0.4-0.8
			c-0.1-0.4-0.1-0.8-0.1-1.3v-21l-3.1,0.5v21c0,1.7,0.4,2.9,1.2,3.7C269.5,375.2,270.9,375.7,272.8,375.7z"/>
		<path class="st1" d="M211.3,372.6c0.7,0.7,1.5,1.3,2.4,1.6c1,0.3,1.9,0.5,3,0.5c1,0,1.9-0.1,2.7-0.4s1.3-0.5,1.6-0.7h0.1v0.8
			c0,1.6-0.4,2.8-1.2,3.5s-2.1,1.1-4,1.1c-0.9,0-1.9-0.1-2.8-0.3c-0.9-0.2-1.7-0.5-2.3-0.7l-0.6,2.7c0.7,0.2,1.5,0.4,2.5,0.6
			c1,0.2,2,0.3,3.1,0.3c2.8,0,4.9-0.6,6.3-1.8c1.4-1.3,2.1-3.2,2.1-5.9v-15.6c-0.7-0.2-1.6-0.4-2.7-0.6c-1.1-0.2-2.3-0.3-3.8-0.3
			c-1.4,0-2.5,0.3-3.6,0.7c-1.1,0.4-2,1-2.7,1.8c-0.8,0.8-1.3,1.7-1.7,2.8c-0.4,1-0.6,2.2-0.6,3.5c0,1.5,0.2,2.7,0.6,3.8
			C210.1,371,210.6,371.9,211.3,372.6z"/>
		<path class="st1" d="M303.4,372.8c0.7,0.8,1.6,1.4,2.7,1.9c1.2,0.5,2.5,0.7,4,0.7c1.2,0,2.2-0.1,3.2-0.3c1-0.2,1.6-0.4,2-0.6
			l-0.4-2.6c-0.4,0.2-0.9,0.4-1.7,0.6s-1.7,0.3-2.8,0.3c-1.9,0-3.4-0.5-4.3-1.4c-0.9-0.9-1.5-2.3-1.6-4.1h12c0-0.2,0-0.4,0-0.6
			s0-0.4,0-0.5c0-3-0.6-5.2-1.9-6.7c-1.2-1.5-3-2.2-5.4-2.2c-1,0-2,0.2-3,0.6c-1,0.4-1.9,0.9-2.6,1.7c-0.8,0.8-1.3,1.7-1.8,2.9
			s-0.7,2.6-0.7,4.1c0,1.3,0.2,2.6,0.7,3.3C302.2,371,302.7,372,303.4,372.8z"/>
		<path class="st1" d="M277.4,374.4c0.7,0.5,1.4,0.8,2.2,1c0.8,0.2,1.7,0.3,2.7,0.3c0.7,0,1.4,0,2.1-0.1c0.7-0.1,1.4-0.1,2-0.2
			c0.6,0,1.1-0.1,1.6-0.2c0.5-0.1,0.8-0.2,1.1-0.2v-10.9c0-1-0.1-1.9-0.3-2.7c-0.2-0.8-0.6-1.5-1.1-2.1c-0.5-0.6-1.2-1.1-2.1-1.4
			c-0.9-0.3-1.9-0.5-3.2-0.5c-1.1,0-2.1,0.1-3,0.4c-0.9,0.1-1.6,0.3-2,0.5l0.4,2.6c0.3-0.2,0.9-0.4,1.7-0.5c0.8-0.1,1.7-0.2,2.7-0.2
			c0.8,0,1.5,0.2,2,0.4s0.9,0.5,1.2,0.9c0.3,0.3,0.5,0.8,0.6,1.3c0.1,0.5,0.2,1,0.2,1.5v0.9c-0.1,0-0.3-0.1-0.5-0.1
			c-0.2-0.1-0.5-0.1-0.8-0.2c-0.3,0-0.7-0.1-1-0.1c-0.4-0.1-0.7-0.1-1-0.1c-1,0-1.9,0.1-2.8,0.3c-0.9,0.2-1.7,0.5-2.4,0.9
			c-0.7,0.4-1.2,1-1.6,1.7c-0.4,0.7-0.6,1.5-0.6,2.5s0.2,1.9,0.5,2.6S276.8,374,277.4,374.4z"/>
		<path class="st1" d="M81,382.1c-4.8-6-11.5-9.5-17.9-9.5c-8.4,0-12,4-17.8,4c-6,0-10.6-4-17.9-4c-7.2,0-14.8,4.4-19.6,11.8
			c-6.7,10.4-5.6,30.1,5.4,46.8c3.9,6,9.1,12.7,16,12.8c6.1,0.1,7.8-3.9,16.1-3.9c8.2-0.1,9.8,4,15.9,3.9
			c6.8-0.1,12.4-7.5,16.3-13.5c2.9-4.3,3.9-6.4,6.1-11.3C67.7,413.1,65.1,390.7,81,382.1z"/>
		<path class="st1" d="M316.1,400.3c-9.8,0-16.7,7.3-16.7,17.8c0,10.2,6.6,17.3,16.1,17.3h0.1c8,0,16.7-5.6,16.7-17.9
			c0-5-1.5-9.3-4.5-12.4C324.9,402,320.8,400.3,316.1,400.3z"/>
		<path class="st1" d="M290.2,393.1l-6.8,2.2v5.8h-5v5.6h5v17.1c0,4.2,0.8,7.1,2.4,8.9c1.6,1.7,4,2.7,6.8,2.7c2.7,0,4.5-0.5,5.4-0.8
			l0.4-0.1l-0.3-5.6l-0.7,0.2c-0.9,0.3-1.8,0.4-3.3,0.4c-2.7,0-3.9-1.7-3.9-5.8v-17h8.5v-5.6h-8.5V393.1z"/>
		<path class="st1" d="M333.6,359.6c-0.5-0.7-1.3-1.2-2.2-1.6c-1-0.4-2.1-0.6-3.5-0.6c-1.5,0-2.9,0.1-4.1,0.3
			c-1.2,0.2-2.2,0.4-2.9,0.6h0.2v16.8h3.1v-14.8c0.2,0,0.3-0.1,0.6-0.1s0.6-0.1,0.9-0.1s0.6-0.1,1-0.1c0.3,0,0.7,0,1,0
			c0.8,0,1.5,0.1,2.1,0.3c0.5,0.2,1,0.5,1.3,1c0.3,0.5,0.6,1.1,0.7,1.9c0.1,0.8,0.2,1.7,0.2,2.8v9.2h3.1v-9.8c0-1.2-0.1-2.3-0.3-3.3
			C334.5,361.2,334.2,360.3,333.6,359.6z"/>
		<path class="st1" d="M265.8,407.9c-6.5-2.5-8.6-4.5-8.6-8.2c0-3.1,2.5-6.2,8-6.2c4.5,0,7.4,1.6,8.2,2.1l0.6,0.4l2-5.9l-0.4-0.2
			c-1.2-0.7-4.5-2.3-10.2-2.3c-8.9,0-15.2,5.3-15.2,12.8c0,6.1,3.9,10.4,12.3,13.4c6,2.2,8.2,4.5,8.2,8.4c0,4.4-3.4,7.2-8.9,7.2
			c-3.6,0-7.3-1-10.1-2.9l-0.6-0.4l-1.9,6l0.3,0.2c2.6,1.8,7.6,3,11.9,3c12.1,0,16.3-7.3,16.3-13.6
			C277.6,415.2,274.2,411.2,265.8,407.9z"/>
		<polygon class="st1" points="290.2,393.1 290.2,393.1 290.3,393.1 		"/>
		<path class="st1" d="M353.9,400.6L353.9,400.6l-0.5-0.1c-0.6-0.2-1.1-0.2-1.7-0.2c-3.7,0-7,2.2-8.8,5.6l-0.2-4.9h-6.3v0.6
			c0.2,2.8,0.3,5.9,0.3,10.1l-0.1,22.9h7v-17.8c0-1,0.1-1.9,0.2-2.7c0.8-4.3,3.7-7.1,7.4-7.1c0.7,0,1.3,0.1,1.9,0.1l0.8,0.1V400.6z"
			/>
		<path class="st1" d="M369.5,400.2c-9.3,0-15.9,7.5-15.9,18.1c0,10.3,6.5,16.9,16.5,16.9c5.3,0,9-1.2,11.1-2.1l0.4-0.2l-1.3-5.2
			l-0.6,0.2c-1.9,0.8-4.5,1.6-8.8,1.6c-3,0-10.1-1-10.5-10.2l22.6,0.1l0.1-0.4c0.1-0.7,0.2-1.7,0.2-2.9
			C383.4,408.8,379.8,400.2,369.5,400.2z"/>
		<path class="st1" d="M184.4,400.3c-4.8,0-8.6,1.8-11.1,5.3L173,401h-6.4v0.6c0.2,2.9,0.3,6,0.3,10.6v35.7h7v-16.7
			c2.2,2.6,5.6,4.1,9.6,4.1c4.1,0,7.9-1.6,10.6-4.5c3.1-3.2,4.7-7.9,4.7-13.5c0-4.9-1.4-9.2-4.1-12.3
			C192.1,402,188.5,400.3,184.4,400.3z"/>
		<polygon class="st1" points="207.1,351.2 205.1,349.2 200.8,354.4 202.4,355.8 		"/>
		<rect x="201.5" y="357.8" class="st1" width="3.1" height="17.5"/>
		<path class="st1" d="M252.8,374.7c1.2,0.5,2.5,0.7,4,0.7c1.2,0,2.2-0.1,3.2-0.3c1-0.2,1.6-0.4,2-0.6l-0.4-2.6
			c-0.4,0.2-0.9,0.4-1.7,0.6s-1.7,0.3-2.8,0.3c-1.9,0-3.4-0.5-4.3-1.4c-0.9-0.9-1.5-2.3-1.6-4.1h12c0-0.2,0-0.4,0-0.6s0-0.4,0-0.5
			c0-3-0.6-5.2-1.9-6.7c-1.2-1.5-3-2.2-5.4-2.2c-1,0-2,0.2-3,0.6c-1,0.4-1.9,0.9-2.6,1.7c-0.8,0.8-1.3,1.7-1.8,2.9s-0.7,2.6-0.7,4.1
			c0,1.3,0.2,2.6,0.7,3.3c0.4,1.1,0.9,2.1,1.6,2.9S251.7,374.2,252.8,374.7z"/>
		<polygon class="st1" points="140.4,388.3 124.7,434.7 131.9,434.7 136.6,420.5 151.8,420.5 156.6,434.7 164,434.7 148.2,388.3 		
			"/>
		<path class="st1" d="M220.6,400.3c-4.8,0-8.6,1.8-11.2,5.3l-0.3-4.6h-6.4v0.6c0.2,2.9,0.3,6,0.3,10.6v35.7h7v-16.7
			c2.2,2.6,5.6,4.1,9.6,4.1c4.1,0,7.9-1.6,10.6-4.5c3.1-3.2,4.7-7.9,4.7-13.5c0-4.9-1.4-9.2-4.1-12.3
			C228.3,402,224.6,400.3,220.6,400.3z"/>
		<path class="st1" d="M240.3,372.7c-0.2,0-0.3,0.1-0.6,0.1s-0.6,0.1-0.9,0.1s-0.6,0.1-1,0.1c-0.3,0-0.7,0-1,0
			c-1.6,0-2.7-0.5-3.4-1.4c-0.7-0.9-1-2.5-1-4.6v-9.2h-3.1v9.9c0,1.1,0.2,2.2,0.4,3.2c0.2,0.9,0.6,1.8,1.2,2.5
			c0.5,0.8,1.3,1.3,2.2,1.7c0.9,0.4,2.1,0.6,3.4,0.6c1.6,0,2.9-0.1,4.1-0.3c1.1-0.2,2.1-0.4,2.8-0.6v-17h-3.1V372.7z"/>
		<path class="st0" d="M419.6,314.8H-32.6c-12.9,0-23.4,10.5-23.4,23.4v118.4c0,12.9,10.5,23.4,23.4,23.4h452.2
			c12.8,0,23.3-10.5,23.4-23.4V338.2C443,325.3,432.5,314.8,419.6,314.8z M301.8,362.5c0.5-1.2,1-2.1,1.8-2.9
			c0.7-0.8,1.6-1.3,2.6-1.7c1-0.4,2-0.6,3-0.6c2.4,0,4.2,0.7,5.4,2.2c1.3,1.5,1.9,3.7,1.9,6.7c0,0.1,0,0.3,0,0.5s0,0.4,0,0.6h-12
			c0.1,1.8,0.7,3.2,1.6,4.1c0.9,0.9,2.4,1.4,4.3,1.4c1.1,0,2-0.1,2.8-0.3s1.3-0.4,1.7-0.6l0.4,2.6c-0.4,0.2-1,0.4-2,0.6
			c-1,0.2-2,0.3-3.2,0.3c-1.5,0-2.8-0.2-4-0.7c-1.1-0.5-2-1.1-2.7-1.9s-1.2-1.8-1.6-2.9c-0.5-0.7-0.7-2-0.7-3.3
			C301.1,365.1,301.3,363.7,301.8,362.5z M276.1,367.6c0.4-0.7,0.9-1.3,1.6-1.7c0.7-0.4,1.5-0.7,2.4-0.9c0.9-0.2,1.8-0.3,2.8-0.3
			c0.3,0,0.6,0,1,0.1c0.3,0,0.7,0.1,1,0.1c0.3,0.1,0.6,0.1,0.8,0.2c0.2,0,0.4,0.1,0.5,0.1v-0.9c0-0.5-0.1-1-0.2-1.5
			c-0.1-0.5-0.3-1-0.6-1.3c-0.3-0.4-0.7-0.7-1.2-0.9s-1.2-0.4-2-0.4c-1,0-1.9,0.1-2.7,0.2c-0.8,0.1-1.4,0.3-1.7,0.5l-0.4-2.6
			c0.4-0.2,1.1-0.4,2-0.5c0.9-0.3,1.9-0.4,3-0.4c1.3,0,2.3,0.2,3.2,0.5c0.9,0.3,1.6,0.8,2.1,1.4c0.5,0.6,0.9,1.3,1.1,2.1
			c0.2,0.8,0.3,1.7,0.3,2.7V375c-0.3,0-0.6,0.1-1.1,0.2c-0.5,0.1-1,0.2-1.6,0.2c-0.6,0.1-1.3,0.1-2,0.2c-0.7,0.1-1.4,0.1-2.1,0.1
			c-1,0-1.9-0.1-2.7-0.3c-0.8-0.2-1.5-0.5-2.2-1c-0.6-0.4-1.1-1-1.4-1.7s-0.5-1.6-0.5-2.6S275.7,368.3,276.1,367.6z M267.5,349.8
			l3.1-0.5v21c0,0.5,0,0.9,0.1,1.3c0.1,0.3,0.2,0.6,0.4,0.8c0.2,0.2,0.5,0.4,0.8,0.5c0.3,0.1,0.8,0.2,1.2,0.3l-0.3,2.5
			c-1.9,0-3.3-0.5-4.1-1.2c-0.8-0.8-1.2-2-1.2-3.7V349.8z M209.7,362.7c0.4-1.1,0.9-2,1.7-2.8c0.7-0.8,1.6-1.4,2.7-1.8
			c1.1-0.4,2.2-0.7,3.6-0.7c1.5,0,2.7,0.1,3.8,0.3c1.1,0.2,2,0.4,2.7,0.6v15.6c0,2.7-0.7,4.6-2.1,5.9c-1.4,1.2-3.5,1.8-6.3,1.8
			c-1.1,0-2.1-0.1-3.1-0.3c-1-0.2-1.8-0.4-2.5-0.6l0.6-2.7c0.6,0.2,1.4,0.5,2.3,0.7c0.9,0.2,1.9,0.3,2.8,0.3c1.9,0,3.2-0.4,4-1.1
			s1.2-1.9,1.2-3.5v-0.8H221c-0.3,0.2-0.8,0.4-1.6,0.7s-1.7,0.4-2.7,0.4c-1.1,0-2-0.2-3-0.5c-0.9-0.3-1.7-0.9-2.4-1.6
			c-0.7-0.7-1.2-1.6-1.6-2.6c-0.4-1.1-0.6-2.3-0.6-3.8C209.1,364.9,209.3,363.7,209.7,362.7z M193.4,369.2c-0.6-0.4-1.6-1-3-1.5
			c-0.7-0.3-1.3-0.5-1.9-0.8c-0.6-0.3-1.1-0.6-1.6-1c-0.4-0.4-0.8-0.8-1.1-1.4c-0.3-0.5-0.4-1.2-0.4-2c0-1.5,0.6-2.8,1.7-3.7
			c1.1-0.9,2.7-1.4,4.7-1.4c0.5,0,1,0,1.5,0.1s1,0.1,1.4,0.2c0.4,0.1,0.8,0.2,1.1,0.3c0.3,0.1,0.6,0.2,0.8,0.2l-0.6,2.7
			c-0.3-0.2-0.9-0.4-1.6-0.6s-1.6-0.3-2.6-0.3c-0.9,0-1.6,0.2-2.3,0.5s-1,0.9-1,1.6c0,0.4,0.1,0.7,0.2,1c0.1,0.3,0.4,0.6,0.7,0.8
			c0.3,0.2,0.7,0.5,1.1,0.7c0.4,0.2,1,0.4,1.6,0.6c0.8,0.3,1.6,0.6,2.2,0.9c0.7,0.3,1.2,0.7,1.7,1.1c0.5,0.4,0.8,0.9,1.1,1.5
			c0.2,0.6,0.4,1.3,0.4,2.1c0,1.6-0.6,2.8-1.8,3.7c-1.2,0.9-2.9,1.2-5.1,1.2c-1.5,0-2.8-0.1-3.6-0.4c-0.9-0.3-1.5-0.5-1.8-0.6
			l0.6-2.7c0.4,0.1,0.9,0.3,1.7,0.6c0.7,0.3,1.8,0.5,3.1,0.5c1.3,0,2.2-0.2,2.8-0.5c0.6-0.3,0.9-0.9,0.9-1.6
			C194.3,370.2,194,369.6,193.4,369.2z M170.1,357.7c1.2-0.2,2.6-0.3,4.1-0.3c1.4,0,2.5,0.2,3.5,0.6c0.9,0.4,1.7,0.9,2.2,1.6
			c0.6,0.7,0.9,1.6,1.2,2.5c0.2,1,0.3,2.1,0.3,3.3v9.8h-3.1V366c0-1.1-0.1-2-0.2-2.8c-0.1-0.8-0.4-1.4-0.7-1.9
			c-0.3-0.5-0.8-0.8-1.3-1c-0.6-0.2-1.3-0.3-2.1-0.3c-0.3,0-0.7,0-1,0c-0.4,0-0.7,0.1-1,0.1s-0.6,0.1-0.9,0.1s-0.4,0.1-0.6,0.1v14.8
			h-3.1v-16.8h-0.2C167.9,358.1,168.9,357.9,170.1,357.7z M147,362.8c0.4-1.1,1-2.1,1.7-2.9c0.7-0.8,1.6-1.4,2.6-1.9
			c1-0.4,2.1-0.7,3.3-0.7c1.2,0,2.3,0.2,3.3,0.7c1,0.4,1.9,1.1,2.6,1.9c0.7,0.8,1.3,1.8,1.7,2.9c0.4,1.2,0.6,2.4,0.6,3.8
			c0,1.4-0.2,2.6-0.6,3.8c-0.4,1.1-1,2.1-1.7,2.9s-1.6,1.4-2.6,1.9c-1,0.4-2.1,0.7-3.3,0.7c-1.2,0-2.3-0.2-3.3-0.7
			c-1-0.4-1.9-1.1-2.6-1.9s-1.3-1.8-1.7-2.9c-0.4-1.1-0.6-2.4-0.6-3.8C146.4,365.2,146.6,364,147,362.8z M131.8,362.8
			c0.4-1.1,0.9-2.1,1.7-2.9c0.7-0.8,1.6-1.5,2.6-1.9c1-0.5,2.2-0.7,3.5-0.7c0.8,0,1.6,0.1,2.4,0.2c0.8,0.1,1.5,0.3,2.3,0.6l-0.7,2.7
			c-0.5-0.2-1-0.4-1.6-0.5c-0.6-0.1-1.3-0.2-2-0.2c-1.7,0-3.1,0.6-4,1.6c-0.9,1.1-1.4,2.7-1.4,4.8c0,0.9,0.1,1.8,0.3,2.6
			s0.6,1.5,1,2c0.5,0.6,1,1,1.8,1.3c0.7,0.3,1.6,0.5,2.6,0.5c0.8,0,1.6-0.1,2.3-0.2c0.7-0.2,1.2-0.3,1.6-0.5l0.4,2.6
			c-0.2,0.1-0.4,0.2-0.8,0.3c-0.4,0.1-0.7,0.2-1.1,0.3c-0.4,0.1-0.9,0.1-1.4,0.2c-0.7,0.1-1.1,0.1-1.6,0.1c-1.4,0-2.7-0.2-3.7-0.7
			c-1.1-0.5-2-1.1-2.7-1.9c-0.7-0.8-1.3-1.8-1.6-2.9c-0.4-1.1-0.5-2.3-0.5-3.7C131.2,365.2,131.4,363.9,131.8,362.8z M46.9,358.5
			c3.4-4.2,9.2-7.4,14.2-7.7c0.9,5.6-1.4,11.2-4.5,15.1c-3.3,4.2-9,7.5-14.4,7.4C41.3,367.8,43.8,362.3,46.9,358.5z M77.5,430.5
			c-3.9,6-9.5,13.4-16.3,13.5c-6.1,0.1-7.7-4-15.9-3.9c-8.3,0-10,4-16.1,3.9c-6.9-0.1-12.1-6.8-16-12.8c-11-16.7-12.1-36.4-5.4-46.8
			c4.8-7.4,12.4-11.8,19.6-11.8c7.3,0,11.9,4,17.9,4c5.8,0,9.4-4,17.8-4c6.4,0,13.1,3.5,17.9,9.5c-15.9,8.6-13.3,31,2.6,37.1
			C81.4,424.1,80.4,426.2,77.5,430.5z M156.6,434.7l-4.8-14.2h-15.2l-4.7,14.2h-7.2l15.7-46.4h7.8l15.8,46.4H156.6z M194.1,430.8
			c-2.7,2.9-6.5,4.5-10.6,4.5c-4,0-7.4-1.5-9.6-4.1v16.7h-7v-35.7c0-4.6-0.1-7.7-0.3-10.6V401h6.4l0.3,4.6c2.5-3.5,6.3-5.3,11.1-5.3
			c4.1,0,7.7,1.7,10.3,4.7c2.7,3.1,4.1,7.4,4.1,12.3C198.8,422.9,197.2,427.6,194.1,430.8z M205.1,349.2l2,2l-4.7,4.6l-1.6-1.4
			L205.1,349.2z M201.5,357.8h3.1v17.5h-3.1V357.8z M230.2,430.8c-2.7,2.9-6.5,4.5-10.6,4.5c-4,0-7.4-1.5-9.6-4.1v16.7h-7v-35.7
			c0-4.6-0.1-7.7-0.3-10.6V401h6.4l0.3,4.6c2.6-3.5,6.4-5.3,11.2-5.3c4,0,7.7,1.7,10.2,4.7c2.7,3.1,4.1,7.4,4.1,12.3
			C234.9,422.9,233.3,427.6,230.2,430.8z M243.4,374.8c-0.7,0.2-1.7,0.4-2.8,0.6c-1.2,0.2-2.5,0.3-4.1,0.3c-1.3,0-2.5-0.2-3.4-0.6
			c-0.9-0.4-1.7-0.9-2.2-1.7c-0.6-0.7-1-1.6-1.2-2.5c-0.2-1-0.4-2.1-0.4-3.2v-9.9h3.1v9.2c0,2.1,0.3,3.7,1,4.6
			c0.7,0.9,1.8,1.4,3.4,1.4c0.3,0,0.7,0,1,0c0.4,0,0.7-0.1,1-0.1s0.6-0.1,0.9-0.1s0.4-0.1,0.6-0.1v-14.9h3.1V374.8z M247.8,366.6
			c0-1.5,0.2-2.9,0.7-4.1s1-2.1,1.8-2.9c0.7-0.8,1.6-1.3,2.6-1.7c1-0.4,2-0.6,3-0.6c2.4,0,4.2,0.7,5.4,2.2c1.3,1.5,1.9,3.7,1.9,6.7
			c0,0.1,0,0.3,0,0.5s0,0.4,0,0.6h-12c0.1,1.8,0.7,3.2,1.6,4.1c0.9,0.9,2.4,1.4,4.3,1.4c1.1,0,2-0.1,2.8-0.3s1.3-0.4,1.7-0.6
			l0.4,2.6c-0.4,0.2-1,0.4-2,0.6c-1,0.2-2,0.3-3.2,0.3c-1.5,0-2.8-0.2-4-0.7c-1.1-0.5-2-1.1-2.7-1.9s-1.2-1.8-1.6-2.9
			C248,369.2,247.8,367.9,247.8,366.6z M261.4,435.3c-4.3,0-9.3-1.2-11.9-3l-0.3-0.2l1.9-6l0.6,0.4c2.8,1.9,6.5,2.9,10.1,2.9
			c5.5,0,8.9-2.8,8.9-7.2c0-3.9-2.2-6.2-8.2-8.4c-8.4-3-12.3-7.3-12.3-13.4c0-7.5,6.3-12.8,15.2-12.8c5.7,0,9,1.6,10.2,2.3l0.4,0.2
			l-2,5.9l-0.6-0.4c-0.8-0.5-3.7-2.1-8.2-2.1c-5.5,0-8,3.1-8,6.2c0,3.7,2.1,5.7,8.6,8.2c8.4,3.3,11.8,7.3,11.9,13.8
			C277.7,428,273.5,435.3,261.4,435.3z M298.7,406.7h-8.5v17c0,4.1,1.2,5.8,3.9,5.8c1.5,0,2.4-0.1,3.3-0.4l0.7-0.2l0.3,5.6l-0.4,0.1
			c-0.9,0.3-2.7,0.8-5.4,0.8c-2.8,0-5.2-1-6.8-2.7c-1.6-1.8-2.4-4.7-2.4-8.9v-17.1h-5v-5.6h5v-5.8l6.8-2.2v0h0.1l-0.1,0v8h8.5V406.7
			z M315.6,435.4h-0.1c-9.5,0-16.1-7.1-16.1-17.3c0-10.5,6.9-17.8,16.7-17.8c4.7,0,8.8,1.7,11.7,4.8c3,3.1,4.5,7.4,4.5,12.4
			C332.3,429.8,323.6,435.4,315.6,435.4z M335.1,375.2H332V366c0-1.1-0.1-2-0.2-2.8c-0.1-0.8-0.4-1.4-0.7-1.9
			c-0.3-0.5-0.8-0.8-1.3-1c-0.6-0.2-1.3-0.3-2.1-0.3c-0.3,0-0.7,0-1,0c-0.4,0-0.7,0.1-1,0.1s-0.6,0.1-0.9,0.1s-0.4,0.1-0.6,0.1v14.8
			h-3.1v-16.8h-0.2c0.7-0.2,1.7-0.4,2.9-0.6c1.2-0.2,2.6-0.3,4.1-0.3c1.4,0,2.5,0.2,3.5,0.6c0.9,0.4,1.7,0.9,2.2,1.6
			c0.6,0.7,0.9,1.6,1.2,2.5c0.2,1,0.3,2.1,0.3,3.3V375.2z M351.2,407c-3.7,0-6.6,2.8-7.4,7.1c-0.1,0.8-0.2,1.7-0.2,2.7v17.8h-7
			l0.1-22.9c0-4.2-0.1-7.3-0.3-10.1V401h6.3l0.2,4.9c1.8-3.4,5.1-5.6,8.8-5.6c0.6,0,1.1,0,1.7,0.2l0.4,0.1h0.1v6.6l-0.8-0.1
			C352.5,407.1,351.9,407,351.2,407z M383.1,419l-0.1,0.4l-22.6-0.1c0.4,9.2,7.5,10.2,10.5,10.2c4.3,0,6.9-0.8,8.8-1.6l0.6-0.2
			l1.3,5.2l-0.4,0.2c-2.1,0.9-5.8,2.1-11.1,2.1c-10,0-16.5-6.6-16.5-16.9c0-10.6,6.6-18.1,15.9-18.1c10.3,0,13.9,8.6,13.8,15.9
			C383.3,417.3,383.2,418.3,383.1,419z"/>
	</g>
</g>
</svg>
