<?xml version="1.0" encoding="utf-8"?>
<!-- Generator: Adobe Illustrator 19.0.0, SVG Export Plug-In . SVG Version: 6.00 Build 0)  -->
<svg version="1.1" id="Layer_1" xmlns="http://www.w3.org/2000/svg" xmlns:xlink="http://www.w3.org/1999/xlink" x="0px" y="0px"
	 viewBox="0 0 498.9 165.2" style="enable-background:new 0 0 498.9 165.2;" xml:space="preserve">
<style type="text/css">
	.st0{fill:#FFFFFF;}
</style>
<g>
	<g>
		<path class="st0" d="M475.6,165.2H23.4C10.5,165.2,0,154.7,0,141.8V23.4C0,10.5,10.5,0,23.4,0h452.2c12.9,0,23.4,10.5,23.4,23.4
			v118.4C498.9,154.7,488.4,165.2,475.6,165.2z M23.4,2.9c-11.3,0-20.5,9.2-20.5,20.5v118.4c0,11.3,9.2,20.5,20.5,20.5h452.2
			c11.3,0,20.5-9.2,20.5-20.5V23.4c0-11.3-9.2-20.5-20.5-20.5H23.4z"/>
	</g>
	<g>
		<g>
			<g>
				<path class="st0" d="M139.6,104.4c-2.2,4.9-3.2,7-6.1,11.3c-3.9,6-9.5,13.4-16.3,13.5c-6.1,0.1-7.7-4-15.9-3.9
					c-8.3,0-10,4-16.1,3.9c-6.9-0.1-12.1-6.8-16-12.8c-11-16.7-12.1-36.4-5.4-46.8c4.8-7.4,12.4-11.8,19.6-11.8c7.3,0,11.9,4,17.9,4
					c5.8,0,9.4-4,17.8-4c6.4,0,13.1,3.5,17.9,9.5C121.1,75.9,123.7,98.3,139.6,104.4z"/>
			</g>
			<g>
				<g>
					<path class="st0" d="M112.6,51.1c3.1-3.9,5.4-9.5,4.5-15.1c-5,0.3-10.8,3.5-14.2,7.7c-3.1,3.8-5.6,9.3-4.7,14.8
						C103.6,58.6,109.3,55.3,112.6,51.1z"/>
				</g>
			</g>
		</g>
		<g>
			<g>
				<g>
					<path class="st0" d="M196.4,73.5l-15.7,46.4h7.2l4.7-14.2h15.2l4.8,14.2h7.4l-15.8-46.4H196.4z M200.2,81.1
						c0.5,2.1,1.1,4.2,1.8,6.5l4.2,12.3h-12.1l4.2-12.4C199,85.6,199.6,83.4,200.2,81.1z"/>
				</g>
				<g>
					<path class="st0" d="M240.4,85.5c-4.8,0-8.6,1.8-11.1,5.3l-0.3-4.6h-6.4l0,0.6c0.2,2.9,0.3,6,0.3,10.6v35.7h7v-16.7
						c2.2,2.6,5.6,4.1,9.6,4.1c4.1,0,7.9-1.6,10.6-4.5c3.1-3.2,4.7-7.9,4.7-13.5c0-4.9-1.4-9.2-4.1-12.3
						C248.1,87.2,244.5,85.5,240.4,85.5z M238.7,91.3c6.3,0,9,5.8,9,11.5c0,7.4-3.6,12-9.3,12c-3.9,0-7.3-2.7-8.3-6.5
						c-0.2-0.6-0.2-1.4-0.2-2.3v-5.6c0-0.5,0.1-1.1,0.2-1.7c0-0.2,0.1-0.4,0.1-0.6C231.3,94.1,234.8,91.3,238.7,91.3z"/>
				</g>
				<g>
					<path class="st0" d="M276.6,85.5c-4.8,0-8.6,1.8-11.2,5.3l-0.3-4.6h-6.4l0,0.6c0.2,2.9,0.3,6,0.3,10.6v35.7h7v-16.7
						c2.2,2.6,5.6,4.1,9.6,4.1c4.1,0,7.9-1.6,10.6-4.5c3.1-3.2,4.7-7.9,4.7-13.5c0-4.9-1.4-9.2-4.1-12.3
						C284.3,87.2,280.6,85.5,276.6,85.5z M274.8,91.3c6.2,0,9,5.8,9,11.5c0,7.4-3.6,12-9.3,12c-3.9,0-7.3-2.7-8.3-6.5
						c-0.2-0.6-0.2-1.4-0.2-2.3v-5.6c0-0.5,0.1-1.1,0.2-1.7c0-0.2,0.1-0.4,0.1-0.6C267.4,94.1,270.9,91.3,274.8,91.3z"/>
				</g>
				<g>
					<path class="st0" d="M321.8,93.1c-6.5-2.5-8.6-4.5-8.6-8.2c0-3.1,2.5-6.2,8-6.2c4.5,0,7.4,1.6,8.2,2.1l0.6,0.4l2-5.9l-0.4-0.2
						c-1.2-0.7-4.5-2.3-10.2-2.3c-8.9,0-15.2,5.3-15.2,12.8c0,6.1,3.9,10.4,12.3,13.4c6,2.2,8.2,4.5,8.2,8.4c0,4.4-3.4,7.2-8.9,7.2
						c-3.6,0-7.3-1-10.1-2.9l-0.6-0.4l-1.9,6l0.3,0.2c2.6,1.8,7.6,3,11.9,3c12.1,0,16.3-7.3,16.3-13.6
						C333.6,100.4,330.2,96.4,321.8,93.1z"/>
				</g>
				<g>
					<path class="st0" d="M346.3,78.3l-6.9,2.2v5.8h-5v5.6h5V109c0,4.2,0.8,7.1,2.4,8.9c1.6,1.7,4,2.7,6.8,2.7
						c2.7,0,4.5-0.5,5.4-0.8l0.4-0.1l-0.3-5.6l-0.7,0.2c-0.9,0.3-1.8,0.4-3.3,0.4c-2.7,0-3.9-1.7-3.9-5.8v-17h8.5v-5.6h-8.5V78.3z"
						/>
				</g>
				<g>
					<path class="st0" d="M372.1,85.5c-9.8,0-16.7,7.3-16.7,17.8c0,10.2,6.6,17.3,16.1,17.3h0.1c8,0,16.7-5.6,16.7-17.9
						c0-5-1.5-9.3-4.5-12.4C380.9,87.2,376.8,85.5,372.1,85.5z M371.9,91c6.3,0,9.2,6.2,9.2,11.9c0,7-3.9,12.1-9.3,12.1h-0.1
						c-5.3,0-9.2-5-9.2-11.9C362.5,97.1,365.4,91,371.9,91z"/>
				</g>
				<g>
					<path class="st0" d="M409.8,85.8l-0.4-0.1c-0.6-0.2-1.1-0.2-1.7-0.2c-3.7,0-7,2.2-8.8,5.6l-0.2-4.9h-6.3l0,0.6
						c0.2,2.8,0.3,5.9,0.3,10.1l-0.1,22.9h7V102c0-1,0.1-1.9,0.2-2.7c0.8-4.3,3.7-7.1,7.4-7.1c0.7,0,1.3,0.1,1.9,0.1l0.8,0.1V85.8z"
						/>
				</g>
				<g>
					<path class="st0" d="M425.5,85.4c-9.3,0-15.9,7.5-15.9,18.1c0,10.3,6.5,16.9,16.5,16.9c5.3,0,9-1.2,11.1-2.1l0.4-0.2l-1.3-5.2
						l-0.6,0.2c-1.9,0.8-4.5,1.6-8.8,1.6c-3,0-10.1-1-10.5-10.2l22.6,0.1l0.1-0.4c0.1-0.7,0.2-1.7,0.2-2.9
						C439.4,94,435.8,85.4,425.5,85.4z M425.1,90.8c2.1,0,3.9,0.7,5.1,2c2,2.1,2.4,5.1,2.4,6.5h-16
						C417.3,95.2,419.8,90.8,425.1,90.8z"/>
				</g>
			</g>
			<g>
				<g>
					<path class="st0" d="M195.7,60.9c-1.4,0-2.7-0.2-3.7-0.7c-1.1-0.5-2-1.1-2.7-1.9c-0.7-0.8-1.3-1.8-1.6-2.9
						c-0.4-1.1-0.5-2.3-0.5-3.7c0-1.3,0.2-2.6,0.6-3.7c0.4-1.1,0.9-2.1,1.7-2.9c0.7-0.8,1.6-1.5,2.6-1.9c1-0.5,2.2-0.7,3.5-0.7
						c0.8,0,1.6,0.1,2.4,0.2c0.8,0.1,1.5,0.3,2.3,0.6l-0.7,2.7c-0.5-0.2-1-0.4-1.6-0.5c-0.6-0.1-1.3-0.2-2-0.2c-1.7,0-3.1,0.6-4,1.6
						c-0.9,1.1-1.4,2.7-1.4,4.8c0,0.9,0.1,1.8,0.3,2.6c0.2,0.8,0.6,1.5,1,2c0.5,0.6,1,1,1.8,1.3c0.7,0.3,1.6,0.5,2.6,0.5
						c0.8,0,1.6-0.1,2.3-0.2c0.7-0.2,1.2-0.3,1.6-0.5l0.4,2.6c-0.2,0.1-0.4,0.2-0.8,0.3s-0.7,0.2-1.1,0.3c-0.4,0.1-0.9,0.1-1.4,0.2
						C196.6,60.9,196.2,60.9,195.7,60.9z"/>
				</g>
				<g>
					<path class="st0" d="M218.8,51.8c0,1.4-0.2,2.6-0.6,3.8c-0.4,1.1-1,2.1-1.7,2.9c-0.7,0.8-1.6,1.4-2.6,1.9
						c-1,0.4-2.1,0.7-3.3,0.7s-2.3-0.2-3.3-0.7c-1-0.4-1.9-1.1-2.6-1.9c-0.7-0.8-1.3-1.8-1.7-2.9c-0.4-1.1-0.6-2.4-0.6-3.8
						c0-1.4,0.2-2.6,0.6-3.8c0.4-1.1,1-2.1,1.7-2.9c0.7-0.8,1.6-1.4,2.6-1.9c1-0.4,2.1-0.7,3.3-0.7s2.3,0.2,3.3,0.7
						c1,0.4,1.9,1.1,2.6,1.9c0.7,0.8,1.3,1.8,1.7,2.9C218.6,49.2,218.8,50.4,218.8,51.8z M215.5,51.8c0-2-0.4-3.5-1.3-4.7
						c-0.9-1.2-2.1-1.7-3.6-1.7s-2.7,0.6-3.6,1.7c-0.9,1.2-1.3,2.7-1.3,4.7c0,2,0.4,3.5,1.3,4.7c0.9,1.2,2.1,1.7,3.6,1.7
						s2.7-0.6,3.6-1.7C215.1,55.3,215.5,53.8,215.5,51.8z"/>
				</g>
				<g>
					<path class="st0" d="M223.2,43.5c0.7-0.2,1.7-0.4,2.9-0.6s2.6-0.3,4.1-0.3c1.4,0,2.5,0.2,3.5,0.6c0.9,0.4,1.7,0.9,2.2,1.6
						c0.6,0.7,0.9,1.6,1.2,2.5c0.2,1,0.3,2.1,0.3,3.3v9.8h-3.1v-9.2c0-1.1-0.1-2-0.2-2.8c-0.1-0.8-0.4-1.4-0.7-1.9
						c-0.3-0.5-0.8-0.8-1.3-1c-0.6-0.2-1.3-0.3-2.1-0.3c-0.3,0-0.7,0-1,0c-0.4,0-0.7,0.1-1,0.1c-0.3,0-0.6,0.1-0.9,0.1
						c-0.3,0-0.4,0.1-0.6,0.1v14.8h-3.1V43.5z"/>
				</g>
				<g>
					<path class="st0" d="M246.6,58.3c1.3,0,2.2-0.2,2.8-0.5s0.9-0.9,0.9-1.6c0-0.8-0.3-1.4-0.9-1.8c-0.6-0.4-1.6-1-3-1.5
						c-0.7-0.3-1.3-0.5-1.9-0.8c-0.6-0.3-1.1-0.6-1.6-1c-0.4-0.4-0.8-0.8-1.1-1.4c-0.3-0.5-0.4-1.2-0.4-2c0-1.5,0.6-2.8,1.7-3.7
						c1.1-0.9,2.7-1.4,4.7-1.4c0.5,0,1,0,1.5,0.1c0.5,0.1,1,0.1,1.4,0.2c0.4,0.1,0.8,0.2,1.1,0.3c0.3,0.1,0.6,0.2,0.8,0.2l-0.6,2.7
						c-0.3-0.2-0.9-0.4-1.6-0.6c-0.7-0.2-1.6-0.3-2.6-0.3c-0.9,0-1.6,0.2-2.3,0.5c-0.7,0.3-1,0.9-1,1.6c0,0.4,0.1,0.7,0.2,1
						c0.1,0.3,0.4,0.6,0.7,0.8c0.3,0.2,0.7,0.5,1.1,0.7c0.4,0.2,1,0.4,1.6,0.6c0.8,0.3,1.6,0.6,2.2,0.9c0.7,0.3,1.2,0.7,1.7,1.1
						c0.5,0.4,0.8,0.9,1.1,1.5c0.2,0.6,0.4,1.3,0.4,2.1c0,1.6-0.6,2.8-1.8,3.7s-2.9,1.2-5.1,1.2c-1.5,0-2.8-0.1-3.6-0.4
						c-0.9-0.3-1.5-0.5-1.8-0.6l0.6-2.7c0.4,0.1,0.9,0.3,1.7,0.6C244.2,58.1,245.3,58.3,246.6,58.3z"/>
				</g>
				<g>
					<path class="st0" d="M263.1,36.4l-4.7,4.6l-1.6-1.4l4.3-5.2L263.1,36.4z M260.6,60.5h-3.1V43h3.1V60.5z"/>
				</g>
				<g>
					<path class="st0" d="M277,58.8c-0.3,0.2-0.8,0.4-1.6,0.7c-0.8,0.3-1.7,0.4-2.7,0.4c-1.1,0-2-0.2-3-0.5
						c-0.9-0.3-1.7-0.9-2.4-1.6c-0.7-0.7-1.2-1.6-1.6-2.6c-0.4-1.1-0.6-2.3-0.6-3.8c0-1.3,0.2-2.5,0.6-3.5c0.4-1.1,0.9-2,1.7-2.8
						c0.7-0.8,1.6-1.4,2.7-1.8c1.1-0.4,2.2-0.7,3.6-0.7c1.5,0,2.7,0.1,3.8,0.3c1.1,0.2,2,0.4,2.7,0.6v15.6c0,2.7-0.7,4.6-2.1,5.9
						c-1.4,1.2-3.5,1.8-6.3,1.8c-1.1,0-2.1-0.1-3.1-0.3c-1-0.2-1.8-0.4-2.5-0.6l0.6-2.7c0.6,0.2,1.4,0.5,2.3,0.7
						c0.9,0.2,1.9,0.3,2.8,0.3c1.9,0,3.2-0.4,4-1.1c0.8-0.7,1.2-1.9,1.2-3.5V58.8z M276.9,45.8c-0.3-0.1-0.7-0.2-1.3-0.3
						c-0.5-0.1-1.2-0.1-2.1-0.1c-1.7,0-3,0.5-3.9,1.6c-0.9,1.1-1.4,2.6-1.4,4.4c0,1,0.1,1.9,0.4,2.6c0.3,0.7,0.6,1.3,1,1.8
						c0.4,0.5,0.9,0.8,1.5,1c0.6,0.2,1.2,0.3,1.8,0.3c0.8,0,1.6-0.1,2.3-0.4c0.7-0.2,1.2-0.5,1.6-0.8V45.8z"/>
				</g>
				<g>
					<path class="st0" d="M299.4,60c-0.7,0.2-1.7,0.4-2.8,0.6c-1.2,0.2-2.5,0.3-4.1,0.3c-1.3,0-2.5-0.2-3.4-0.6
						c-0.9-0.4-1.7-0.9-2.2-1.7c-0.6-0.7-1-1.6-1.2-2.5c-0.2-1-0.4-2.1-0.4-3.2V43h3.1v9.2c0,2.1,0.3,3.7,1,4.6
						c0.7,0.9,1.8,1.4,3.4,1.4c0.3,0,0.7,0,1,0c0.4,0,0.7-0.1,1-0.1c0.3,0,0.6-0.1,0.9-0.1c0.3,0,0.4-0.1,0.6-0.1V43h3.1V60z"/>
				</g>
				<g>
					<path class="st0" d="M303.8,51.8c0-1.5,0.2-2.9,0.7-4.1c0.5-1.2,1-2.1,1.8-2.9c0.7-0.8,1.6-1.3,2.6-1.7c1-0.4,2-0.6,3-0.6
						c2.4,0,4.2,0.7,5.4,2.2c1.3,1.5,1.9,3.7,1.9,6.7c0,0.1,0,0.3,0,0.5s0,0.4,0,0.6h-12c0.1,1.8,0.7,3.2,1.6,4.1
						c0.9,0.9,2.4,1.4,4.3,1.4c1.1,0,2-0.1,2.8-0.3c0.8-0.2,1.3-0.4,1.7-0.6l0.4,2.6c-0.4,0.2-1,0.4-2,0.6c-1,0.2-2,0.3-3.2,0.3
						c-1.5,0-2.8-0.2-4-0.7c-1.1-0.5-2-1.1-2.7-1.9c-0.7-0.8-1.2-1.8-1.6-2.9C304,54.4,303.8,53.1,303.8,51.8z M315.8,50.1
						c0-1.4-0.3-2.6-1.1-3.5c-0.7-0.9-1.7-1.4-3-1.4c-0.7,0-1.4,0.1-1.9,0.4c-0.5,0.3-1,0.6-1.4,1.1c-0.4,0.5-0.7,1-0.9,1.5
						c-0.2,0.6-0.4,1.2-0.4,1.8H315.8z"/>
				</g>
				<g>
					<path class="st0" d="M328.8,60.9c-1.9,0-3.3-0.5-4.1-1.2c-0.8-0.8-1.2-2-1.2-3.7V35l3.1-0.5v21c0,0.5,0,0.9,0.1,1.3
						c0.1,0.3,0.2,0.6,0.4,0.8c0.2,0.2,0.5,0.4,0.8,0.5c0.3,0.1,0.8,0.2,1.2,0.3L328.8,60.9z"/>
				</g>
				<g>
					<path class="st0" d="M338.4,42.6c1.3,0,2.3,0.2,3.2,0.5c0.9,0.3,1.6,0.8,2.1,1.4c0.5,0.6,0.9,1.3,1.1,2.1
						c0.2,0.8,0.3,1.7,0.3,2.7v10.9c-0.3,0-0.6,0.1-1.1,0.2c-0.5,0.1-1,0.2-1.6,0.2c-0.6,0.1-1.3,0.1-2,0.2
						c-0.7,0.1-1.4,0.1-2.1,0.1c-1,0-1.9-0.1-2.7-0.3c-0.8-0.2-1.5-0.5-2.2-1c-0.6-0.4-1.1-1-1.4-1.7c-0.3-0.7-0.5-1.6-0.5-2.6
						c0-1,0.2-1.8,0.6-2.5c0.4-0.7,0.9-1.3,1.6-1.7c0.7-0.4,1.5-0.7,2.4-0.9c0.9-0.2,1.8-0.3,2.8-0.3c0.3,0,0.6,0,1,0.1
						c0.3,0,0.7,0.1,1,0.1c0.3,0.1,0.6,0.1,0.8,0.2c0.2,0,0.4,0.1,0.5,0.1v-0.9c0-0.5-0.1-1-0.2-1.5c-0.1-0.5-0.3-1-0.6-1.3
						c-0.3-0.4-0.7-0.7-1.2-0.9c-0.5-0.2-1.2-0.4-2-0.4c-1,0-1.9,0.1-2.7,0.2s-1.4,0.3-1.7,0.5l-0.4-2.6c0.4-0.2,1.1-0.4,2-0.5
						C336.3,42.7,337.3,42.6,338.4,42.6z M338.7,58.3c0.7,0,1.4,0,2-0.1c0.6,0,1-0.1,1.4-0.2v-5.2c-0.2-0.1-0.6-0.2-1.1-0.3
						c-0.5-0.1-1.1-0.1-1.8-0.1c-0.5,0-1,0-1.5,0.1c-0.5,0.1-1,0.2-1.4,0.4c-0.4,0.2-0.8,0.5-1.1,0.9s-0.4,0.9-0.4,1.5
						c0,1.1,0.4,1.9,1.1,2.3C336.5,58.1,337.4,58.3,338.7,58.3z"/>
				</g>
				<g>
					<path class="st0" d="M357.1,51.8c0-1.5,0.2-2.9,0.7-4.1c0.5-1.2,1-2.1,1.8-2.9c0.7-0.8,1.6-1.3,2.6-1.7c1-0.4,2-0.6,3-0.6
						c2.4,0,4.2,0.7,5.4,2.2c1.3,1.5,1.9,3.7,1.9,6.7c0,0.1,0,0.3,0,0.5s0,0.4,0,0.6h-12c0.1,1.8,0.7,3.2,1.6,4.1
						c0.9,0.9,2.4,1.4,4.3,1.4c1.1,0,2-0.1,2.8-0.3c0.8-0.2,1.3-0.4,1.7-0.6l0.4,2.6c-0.4,0.2-1,0.4-2,0.6c-1,0.2-2,0.3-3.2,0.3
						c-1.5,0-2.8-0.2-4-0.7c-1.1-0.5-2-1.1-2.7-1.9c-0.7-0.8-1.2-1.8-1.6-2.9C357.3,54.4,357.1,53.1,357.1,51.8z M369.1,50.1
						c0-1.4-0.3-2.6-1.1-3.5c-0.7-0.9-1.7-1.4-3-1.4c-0.7,0-1.4,0.1-1.9,0.4c-0.5,0.3-1,0.6-1.4,1.1c-0.4,0.5-0.7,1-0.9,1.5
						c-0.2,0.6-0.4,1.2-0.4,1.8H369.1z"/>
				</g>
				<g>
					<path class="st0" d="M376.9,43.5c0.7-0.2,1.7-0.4,2.9-0.6s2.6-0.3,4.1-0.3c1.4,0,2.5,0.2,3.5,0.6c0.9,0.4,1.7,0.9,2.2,1.6
						c0.6,0.7,0.9,1.6,1.2,2.5c0.2,1,0.3,2.1,0.3,3.3v9.8h-3.1v-9.2c0-1.1-0.1-2-0.2-2.8c-0.1-0.8-0.4-1.4-0.7-1.9
						c-0.3-0.5-0.8-0.8-1.3-1c-0.6-0.2-1.3-0.3-2.1-0.3c-0.3,0-0.7,0-1,0c-0.4,0-0.7,0.1-1,0.1c-0.3,0-0.6,0.1-0.9,0.1
						c-0.3,0-0.4,0.1-0.6,0.1v14.8h-3.1V43.5z"/>
				</g>
			</g>
		</g>
	</g>
</g>
</svg>
