<?xml version="1.0" encoding="utf-8"?>
<!-- Generator: Adobe Illustrator 19.0.0, SVG Export Plug-In . SVG Version: 6.00 Build 0)  -->
<svg version="1.1" id="Layer_1" xmlns="http://www.w3.org/2000/svg" xmlns:xlink="http://www.w3.org/1999/xlink" x="0px" y="0px"
	 viewBox="0 0 190 62.9" style="enable-background:new 0 0 190 62.9;" xml:space="preserve">
<style type="text/css">
	.st0{fill:#212121;}
</style>
<g>
	<g>
		<path class="st0" d="M181.1,62.9H8.9C4,62.9,0,58.9,0,54V8.9C0,4,4,0,8.9,0h172.2c4.9,0,8.9,4,8.9,8.9V54
			C190,58.9,186,62.9,181.1,62.9z M8.9,1.1c-4.3,0-7.8,3.5-7.8,7.8V54c0,4.3,3.5,7.8,7.8,7.8h172.2c4.3,0,7.8-3.5,7.8-7.8V8.9
			c0-4.3-3.5-7.8-7.8-7.8H8.9z"/>
	</g>
	<g>
		<g>
			<g>
				<path class="st0" d="M53.1,39.7c-0.8,1.8-1.2,2.7-2.3,4.3c-1.5,2.3-3.6,5.1-6.2,5.1c-2.3,0-2.9-1.5-6.1-1.5
					c-3.2,0-3.8,1.5-6.1,1.5c-2.6,0-4.6-2.6-6.1-4.9c-4.2-6.4-4.6-13.9-2-17.8c1.8-2.8,4.7-4.5,7.5-4.5c2.8,0,4.5,1.5,6.8,1.5
					c2.2,0,3.6-1.5,6.8-1.5c2.4,0,5,1.3,6.8,3.6C46.1,28.9,47.1,37.5,53.1,39.7z"/>
			</g>
			<g>
				<g>
					<path class="st0" d="M42.9,19.5c1.2-1.5,2-3.6,1.7-5.8c-1.9,0.1-4.1,1.3-5.4,2.9c-1.2,1.4-2.2,3.6-1.8,5.6
						C39.5,22.3,41.6,21.1,42.9,19.5z"/>
				</g>
			</g>
		</g>
		<g>
			<g>
				<g>
					<path class="st0" d="M74.8,28l-6,17.7h2.7l1.8-5.4h5.8l1.8,5.4h2.8l-6-17.7H74.8z M76.2,30.9c0.2,0.8,0.4,1.6,0.7,2.5l1.6,4.7
						h-4.6l1.6-4.7C75.8,32.6,76,31.8,76.2,30.9z"/>
				</g>
				<g>
					<path class="st0" d="M91.6,32.6c-1.8,0-3.3,0.7-4.2,2l-0.1-1.8h-2.4l0,0.2c0.1,1.1,0.1,2.3,0.1,4v13.6h2.7v-6.3
						c0.8,1,2.2,1.6,3.7,1.6c1.6,0,3-0.6,4-1.7c1.2-1.2,1.8-3,1.8-5.1c0-1.9-0.5-3.5-1.6-4.7C94.5,33.2,93.1,32.6,91.6,32.6z
						 M90.9,34.8c2.4,0,3.4,2.2,3.4,4.4c0,2.8-1.4,4.6-3.5,4.6c-1.5,0-2.8-1-3.1-2.5c-0.1-0.2-0.1-0.5-0.1-0.9v-2.1
						c0-0.2,0-0.4,0.1-0.7c0-0.1,0-0.1,0-0.2C88.1,35.8,89.4,34.8,90.9,34.8z"/>
				</g>
				<g>
					<path class="st0" d="M105.3,32.6c-1.8,0-3.3,0.7-4.2,2l-0.1-1.8h-2.4l0,0.2c0.1,1.1,0.1,2.3,0.1,4v13.6h2.7v-6.3
						c0.8,1,2.2,1.6,3.6,1.6c1.6,0,3-0.6,4-1.7c1.2-1.2,1.8-3,1.8-5.1c0-1.9-0.5-3.5-1.6-4.7C108.2,33.2,106.9,32.6,105.3,32.6z
						 M104.7,34.8c2.4,0,3.4,2.2,3.4,4.4c0,2.8-1.4,4.6-3.5,4.6c-1.5,0-2.8-1-3.1-2.5c-0.1-0.2-0.1-0.5-0.1-0.9v-2.1
						c0-0.2,0-0.4,0.1-0.7c0-0.1,0-0.1,0-0.2C101.8,35.8,103.2,34.8,104.7,34.8z"/>
				</g>
				<g>
					<path class="st0" d="M122.5,35.5c-2.5-1-3.3-1.7-3.3-3.1c0-1.2,0.9-2.4,3-2.4c1.7,0,2.8,0.6,3.1,0.8l0.2,0.1l0.8-2.2l-0.1-0.1
						c-0.4-0.3-1.7-0.9-3.9-0.9c-3.4,0-5.8,2-5.8,4.9c0,2.3,1.5,3.9,4.7,5.1c2.3,0.8,3.1,1.7,3.1,3.2c0,1.7-1.3,2.7-3.4,2.7
						c-1.4,0-2.8-0.4-3.8-1.1l-0.2-0.1l-0.7,2.3l0.1,0.1c1,0.7,2.9,1.2,4.5,1.2c4.6,0,6.2-2.8,6.2-5.2
						C127.1,38.2,125.7,36.7,122.5,35.5z"/>
				</g>
				<g>
					<path class="st0" d="M131.9,29.8l-2.6,0.8v2.2h-1.9V35h1.9v6.5c0,1.6,0.3,2.7,0.9,3.4c0.6,0.7,1.5,1,2.6,1c1,0,1.7-0.2,2.1-0.3
						l0.1-0.1l-0.1-2.1l-0.3,0.1c-0.3,0.1-0.7,0.1-1.2,0.1c-1,0-1.5-0.7-1.5-2.2V35h3.2v-2.1h-3.2V29.8z"/>
				</g>
				<g>
					<path class="st0" d="M141.7,32.6c-3.7,0-6.3,2.8-6.3,6.8c0,3.9,2.5,6.6,6.1,6.6h0c3.1,0,6.3-2.1,6.3-6.8c0-1.9-0.6-3.5-1.7-4.7
						C145,33.2,143.5,32.6,141.7,32.6z M141.6,34.7c2.4,0,3.5,2.3,3.5,4.5c0,2.7-1.5,4.6-3.5,4.6h0c-2,0-3.5-1.9-3.5-4.5
						C138,37,139.2,34.7,141.6,34.7z"/>
				</g>
				<g>
					<path class="st0" d="M156,32.7l-0.2,0c-0.2-0.1-0.4-0.1-0.7-0.1c-1.4,0-2.7,0.8-3.3,2.2l-0.1-1.9h-2.4l0,0.2
						c0.1,1.1,0.1,2.2,0.1,3.8l0,8.7h2.7v-6.8c0-0.4,0-0.7,0.1-1c0.3-1.6,1.4-2.7,2.8-2.7c0.3,0,0.5,0,0.7,0l0.3,0V32.7z"/>
				</g>
				<g>
					<path class="st0" d="M162,32.5c-3.6,0-6,2.8-6,6.9c0,3.9,2.5,6.4,6.3,6.4c2,0,3.4-0.4,4.2-0.8l0.2-0.1l-0.5-2l-0.2,0.1
						c-0.7,0.3-1.7,0.6-3.3,0.6c-1.2,0-3.8-0.4-4-3.9l8.6,0l0-0.2c0.1-0.3,0.1-0.6,0.1-1.1C167.3,35.8,166,32.5,162,32.5z
						 M161.9,34.6c0.8,0,1.5,0.3,2,0.7c0.8,0.8,0.9,1.9,0.9,2.5h-6.1C158.9,36.3,159.9,34.6,161.9,34.6z"/>
				</g>
			</g>
			<g>
				<g>
					<path class="st0" d="M74.5,23.2c-0.5,0-1-0.1-1.4-0.3c-0.4-0.2-0.7-0.4-1-0.7c-0.3-0.3-0.5-0.7-0.6-1.1s-0.2-0.9-0.2-1.4
						c0-0.5,0.1-1,0.2-1.4c0.1-0.4,0.4-0.8,0.6-1.1c0.3-0.3,0.6-0.6,1-0.7c0.4-0.2,0.8-0.3,1.3-0.3c0.3,0,0.6,0,0.9,0.1
						c0.3,0.1,0.6,0.1,0.9,0.2l-0.3,1c-0.2-0.1-0.4-0.2-0.6-0.2c-0.2-0.1-0.5-0.1-0.7-0.1c-0.7,0-1.2,0.2-1.5,0.6
						c-0.4,0.4-0.5,1-0.5,1.8c0,0.4,0,0.7,0.1,1c0.1,0.3,0.2,0.6,0.4,0.8c0.2,0.2,0.4,0.4,0.7,0.5c0.3,0.1,0.6,0.2,1,0.2
						c0.3,0,0.6,0,0.9-0.1c0.3-0.1,0.5-0.1,0.6-0.2l0.2,1c-0.1,0-0.2,0.1-0.3,0.1c-0.1,0-0.3,0.1-0.4,0.1c-0.2,0-0.3,0.1-0.5,0.1
						C74.9,23.2,74.7,23.2,74.5,23.2z"/>
				</g>
				<g>
					<path class="st0" d="M83.3,19.7c0,0.5-0.1,1-0.2,1.4c-0.2,0.4-0.4,0.8-0.6,1.1c-0.3,0.3-0.6,0.5-1,0.7
						c-0.4,0.2-0.8,0.2-1.3,0.2c-0.5,0-0.9-0.1-1.3-0.2c-0.4-0.2-0.7-0.4-1-0.7c-0.3-0.3-0.5-0.7-0.6-1.1c-0.2-0.4-0.2-0.9-0.2-1.4
						c0-0.5,0.1-1,0.2-1.4c0.2-0.4,0.4-0.8,0.6-1.1c0.3-0.3,0.6-0.5,1-0.7c0.4-0.2,0.8-0.2,1.3-0.2c0.5,0,0.9,0.1,1.3,0.2
						c0.4,0.2,0.7,0.4,1,0.7c0.3,0.3,0.5,0.7,0.6,1.1C83.2,18.7,83.3,19.2,83.3,19.7z M82.1,19.7c0-0.8-0.2-1.3-0.5-1.8
						c-0.3-0.4-0.8-0.7-1.4-0.7s-1,0.2-1.4,0.7c-0.3,0.4-0.5,1-0.5,1.8c0,0.8,0.2,1.3,0.5,1.8c0.3,0.4,0.8,0.7,1.4,0.7
						s1-0.2,1.4-0.7C81.9,21.1,82.1,20.5,82.1,19.7z"/>
				</g>
				<g>
					<path class="st0" d="M85,16.6c0.3-0.1,0.6-0.1,1.1-0.2c0.5-0.1,1-0.1,1.6-0.1c0.5,0,1,0.1,1.3,0.2c0.4,0.1,0.6,0.4,0.8,0.6
						c0.2,0.3,0.4,0.6,0.4,1c0.1,0.4,0.1,0.8,0.1,1.2V23h-1.2v-3.5c0-0.4,0-0.8-0.1-1.1c-0.1-0.3-0.1-0.5-0.3-0.7
						c-0.1-0.2-0.3-0.3-0.5-0.4c-0.2-0.1-0.5-0.1-0.8-0.1c-0.1,0-0.3,0-0.4,0c-0.1,0-0.3,0-0.4,0c-0.1,0-0.2,0-0.3,0
						c-0.1,0-0.2,0-0.2,0V23H85V16.6z"/>
				</g>
				<g>
					<path class="st0" d="M93.9,22.2c0.5,0,0.8-0.1,1.1-0.2c0.2-0.1,0.4-0.3,0.4-0.6c0-0.3-0.1-0.5-0.3-0.7
						c-0.2-0.2-0.6-0.4-1.1-0.6c-0.3-0.1-0.5-0.2-0.7-0.3c-0.2-0.1-0.4-0.2-0.6-0.4c-0.2-0.1-0.3-0.3-0.4-0.5
						c-0.1-0.2-0.2-0.5-0.2-0.8c0-0.6,0.2-1.1,0.7-1.4c0.4-0.3,1-0.5,1.8-0.5c0.2,0,0.4,0,0.6,0c0.2,0,0.4,0,0.5,0.1
						c0.2,0,0.3,0.1,0.4,0.1c0.1,0,0.2,0.1,0.3,0.1l-0.2,1c-0.1-0.1-0.3-0.1-0.6-0.2c-0.3-0.1-0.6-0.1-1-0.1c-0.3,0-0.6,0.1-0.9,0.2
						c-0.2,0.1-0.4,0.3-0.4,0.6c0,0.1,0,0.3,0.1,0.4c0.1,0.1,0.1,0.2,0.3,0.3c0.1,0.1,0.3,0.2,0.4,0.2c0.2,0.1,0.4,0.2,0.6,0.2
						c0.3,0.1,0.6,0.2,0.8,0.4c0.2,0.1,0.5,0.2,0.6,0.4c0.2,0.2,0.3,0.3,0.4,0.6c0.1,0.2,0.1,0.5,0.1,0.8c0,0.6-0.2,1.1-0.7,1.4
						c-0.5,0.3-1.1,0.5-2,0.5c-0.6,0-1.1,0-1.4-0.1c-0.3-0.1-0.6-0.2-0.7-0.2l0.2-1c0.1,0.1,0.4,0.1,0.7,0.2
						C93,22.1,93.4,22.2,93.9,22.2z"/>
				</g>
				<g>
					<path class="st0" d="M100.2,13.9l-1.8,1.8l-0.6-0.5l1.6-2L100.2,13.9z M99.2,23h-1.2v-6.7h1.2V23z"/>
				</g>
				<g>
					<path class="st0" d="M105.5,22.4c-0.1,0.1-0.3,0.2-0.6,0.3c-0.3,0.1-0.6,0.2-1,0.2c-0.4,0-0.8-0.1-1.1-0.2
						c-0.4-0.1-0.7-0.3-0.9-0.6c-0.3-0.3-0.5-0.6-0.6-1c-0.2-0.4-0.2-0.9-0.2-1.4c0-0.5,0.1-0.9,0.2-1.3c0.1-0.4,0.4-0.8,0.6-1.1
						c0.3-0.3,0.6-0.5,1-0.7c0.4-0.2,0.9-0.2,1.4-0.2c0.6,0,1,0,1.5,0.1c0.4,0.1,0.8,0.2,1,0.2v5.9c0,1-0.3,1.8-0.8,2.2
						c-0.5,0.5-1.3,0.7-2.4,0.7c-0.4,0-0.8,0-1.2-0.1c-0.4-0.1-0.7-0.1-1-0.2l0.2-1c0.2,0.1,0.5,0.2,0.9,0.2
						c0.3,0.1,0.7,0.1,1.1,0.1c0.7,0,1.2-0.1,1.5-0.4c0.3-0.3,0.5-0.7,0.5-1.3V22.4z M105.5,17.4c-0.1,0-0.3-0.1-0.5-0.1
						c-0.2,0-0.5,0-0.8,0c-0.6,0-1.1,0.2-1.5,0.6c-0.3,0.4-0.5,1-0.5,1.7c0,0.4,0,0.7,0.1,1c0.1,0.3,0.2,0.5,0.4,0.7
						c0.2,0.2,0.4,0.3,0.6,0.4c0.2,0.1,0.4,0.1,0.7,0.1c0.3,0,0.6,0,0.9-0.1c0.3-0.1,0.5-0.2,0.6-0.3V17.4z"/>
				</g>
				<g>
					<path class="st0" d="M114,22.9c-0.3,0.1-0.6,0.1-1.1,0.2c-0.4,0.1-1,0.1-1.6,0.1c-0.5,0-0.9-0.1-1.3-0.2
						c-0.3-0.1-0.6-0.4-0.8-0.6c-0.2-0.3-0.4-0.6-0.5-1c-0.1-0.4-0.1-0.8-0.1-1.2v-3.7h1.2v3.5c0,0.8,0.1,1.4,0.4,1.7
						c0.3,0.4,0.7,0.5,1.3,0.5c0.1,0,0.3,0,0.4,0c0.1,0,0.3,0,0.4,0c0.1,0,0.2,0,0.3,0c0.1,0,0.2,0,0.2,0v-5.6h1.2V22.9z"/>
				</g>
				<g>
					<path class="st0" d="M115.7,19.7c0-0.6,0.1-1.1,0.3-1.5c0.2-0.4,0.4-0.8,0.7-1.1c0.3-0.3,0.6-0.5,1-0.7
						c0.4-0.1,0.7-0.2,1.1-0.2c0.9,0,1.6,0.3,2.1,0.8c0.5,0.6,0.7,1.4,0.7,2.6c0,0.1,0,0.1,0,0.2c0,0.1,0,0.2,0,0.2h-4.6
						c0.1,0.7,0.3,1.2,0.6,1.6c0.3,0.4,0.9,0.5,1.6,0.5c0.4,0,0.8,0,1.1-0.1c0.3-0.1,0.5-0.1,0.6-0.2l0.2,1
						c-0.1,0.1-0.4,0.2-0.8,0.2c-0.4,0.1-0.8,0.1-1.2,0.1c-0.6,0-1.1-0.1-1.5-0.3c-0.4-0.2-0.8-0.4-1-0.7c-0.3-0.3-0.5-0.7-0.6-1.1
						C115.8,20.7,115.7,20.2,115.7,19.7z M120.3,19.1c0-0.5-0.1-1-0.4-1.3c-0.3-0.3-0.7-0.5-1.1-0.5c-0.3,0-0.5,0.1-0.7,0.2
						c-0.2,0.1-0.4,0.2-0.5,0.4c-0.1,0.2-0.3,0.4-0.3,0.6c-0.1,0.2-0.1,0.4-0.2,0.7H120.3z"/>
				</g>
				<g>
					<path class="st0" d="M125.2,23.2c-0.7,0-1.3-0.2-1.6-0.5c-0.3-0.3-0.5-0.8-0.5-1.4v-8l1.2-0.2v8c0,0.2,0,0.4,0.1,0.5
						c0,0.1,0.1,0.2,0.2,0.3c0.1,0.1,0.2,0.1,0.3,0.2c0.1,0,0.3,0.1,0.5,0.1L125.2,23.2z"/>
				</g>
				<g>
					<path class="st0" d="M128.9,16.2c0.5,0,0.9,0.1,1.2,0.2c0.3,0.1,0.6,0.3,0.8,0.5c0.2,0.2,0.3,0.5,0.4,0.8
						c0.1,0.3,0.1,0.7,0.1,1v4.2c-0.1,0-0.2,0-0.4,0.1c-0.2,0-0.4,0.1-0.6,0.1c-0.2,0-0.5,0-0.7,0.1c-0.3,0-0.5,0-0.8,0
						c-0.4,0-0.7,0-1-0.1c-0.3-0.1-0.6-0.2-0.8-0.4c-0.2-0.2-0.4-0.4-0.5-0.7c-0.1-0.3-0.2-0.6-0.2-1c0-0.4,0.1-0.7,0.2-0.9
						c0.1-0.3,0.4-0.5,0.6-0.6c0.3-0.2,0.6-0.3,0.9-0.4c0.3-0.1,0.7-0.1,1.1-0.1c0.1,0,0.2,0,0.4,0c0.1,0,0.2,0,0.4,0.1
						c0.1,0,0.2,0,0.3,0.1c0.1,0,0.1,0,0.2,0v-0.3c0-0.2,0-0.4-0.1-0.6c0-0.2-0.1-0.4-0.2-0.5c-0.1-0.1-0.3-0.3-0.5-0.4
						c-0.2-0.1-0.4-0.1-0.7-0.1c-0.4,0-0.7,0-1,0.1c-0.3,0.1-0.5,0.1-0.7,0.2l-0.1-1c0.2-0.1,0.4-0.1,0.8-0.2
						C128.1,16.3,128.5,16.2,128.9,16.2z M129,22.2c0.3,0,0.5,0,0.7,0c0.2,0,0.4,0,0.5-0.1v-2c-0.1,0-0.2-0.1-0.4-0.1
						c-0.2,0-0.4,0-0.7,0c-0.2,0-0.4,0-0.6,0c-0.2,0-0.4,0.1-0.6,0.2c-0.2,0.1-0.3,0.2-0.4,0.3c-0.1,0.1-0.2,0.3-0.2,0.6
						c0,0.4,0.1,0.7,0.4,0.9C128.1,22.1,128.5,22.2,129,22.2z"/>
				</g>
				<g>
					<path class="st0" d="M136,19.7c0-0.6,0.1-1.1,0.3-1.5c0.2-0.4,0.4-0.8,0.7-1.1c0.3-0.3,0.6-0.5,1-0.7c0.4-0.1,0.7-0.2,1.1-0.2
						c0.9,0,1.6,0.3,2.1,0.8c0.5,0.6,0.7,1.4,0.7,2.6c0,0.1,0,0.1,0,0.2c0,0.1,0,0.2,0,0.2h-4.6c0.1,0.7,0.3,1.2,0.6,1.6
						c0.3,0.4,0.9,0.5,1.6,0.5c0.4,0,0.8,0,1.1-0.1c0.3-0.1,0.5-0.1,0.6-0.2l0.2,1c-0.1,0.1-0.4,0.2-0.8,0.2
						c-0.4,0.1-0.8,0.1-1.2,0.1c-0.6,0-1.1-0.1-1.5-0.3c-0.4-0.2-0.8-0.4-1-0.7c-0.3-0.3-0.5-0.7-0.6-1.1
						C136.1,20.7,136,20.2,136,19.7z M140.6,19.1c0-0.5-0.1-1-0.4-1.3c-0.3-0.3-0.7-0.5-1.1-0.5c-0.3,0-0.5,0.1-0.7,0.2
						c-0.2,0.1-0.4,0.2-0.5,0.4c-0.1,0.2-0.3,0.4-0.3,0.6c-0.1,0.2-0.1,0.4-0.2,0.7H140.6z"/>
				</g>
				<g>
					<path class="st0" d="M143.5,16.6c0.3-0.1,0.6-0.1,1.1-0.2c0.5-0.1,1-0.1,1.6-0.1c0.5,0,1,0.1,1.3,0.2c0.4,0.1,0.6,0.4,0.8,0.6
						c0.2,0.3,0.4,0.6,0.4,1c0.1,0.4,0.1,0.8,0.1,1.2V23h-1.2v-3.5c0-0.4,0-0.8-0.1-1.1c-0.1-0.3-0.1-0.5-0.3-0.7
						c-0.1-0.2-0.3-0.3-0.5-0.4c-0.2-0.1-0.5-0.1-0.8-0.1c-0.1,0-0.3,0-0.4,0c-0.1,0-0.3,0-0.4,0c-0.1,0-0.2,0-0.3,0
						c-0.1,0-0.2,0-0.2,0V23h-1.2V16.6z"/>
				</g>
			</g>
		</g>
	</g>
</g>
</svg>
