<?xml version="1.0" encoding="utf-8"?>
<!-- Generator: Adobe Illustrator 19.0.0, SVG Export Plug-In . SVG Version: 6.00 Build 0)  -->
<svg version="1.1" id="Layer_1" xmlns="http://www.w3.org/2000/svg" xmlns:xlink="http://www.w3.org/1999/xlink" x="0px" y="0px"
	 viewBox="0 0 178.6 178.6" style="enable-background:new 0 0 178.6 178.6;" xml:space="preserve">
<style type="text/css">
	.st0{fill:#27FFDE;}
	.st1{fill:none;}
</style>
<g>
	<path class="st0" d="M144.4,140.2H36.6L52.2,109l16.2,10.5c1,0.7,2.3,0.8,3.5,0.3c1.1-0.5,2-1.5,2.2-2.7l6.3-29.7l17.8,9.1
		c1.5,0.8,3.3,0.4,4.5-0.8l23.7-25.4l0.5,5c0.2,1.9,1.8,3.4,3.7,3.4c0.1,0,0.2,0,0.4,0c2-0.2,3.5-2,3.4-4.1l-1.3-14.1
		c-0.2-2-2-3.6-4.1-3.4l-14.1,1.3c-2,0.2-3.5,2-3.4,4.1c0.2,2,2,3.6,4.1,3.4l5.4-0.5L99,88.6l-19.5-10c-1-0.5-2.2-0.5-3.3,0
		c-1,0.5-1.8,1.5-2,2.6l-6.2,29.1l-15.1-9.8c-0.9-0.6-2-0.7-3-0.5c-1,0.3-1.9,1-2.4,1.9L32,132.9V43.6c0-2.1-1.7-3.7-3.7-3.7
		s-3.7,1.7-3.7,3.7v100.3c0,2.1,1.7,3.7,3.7,3.7h116.1c2.1,0,3.7-1.7,3.7-3.7C148.1,141.9,146.4,140.2,144.4,140.2z"/>
	<rect class="st1" width="178.6" height="178.6"/>
</g>
</svg>
