<?xml version="1.0" encoding="utf-8"?>
<!-- Generator: Adobe Illustrator 19.0.0, SVG Export Plug-In . SVG Version: 6.00 Build 0)  -->
<svg version="1.1" id="Layer_1" xmlns="http://www.w3.org/2000/svg" xmlns:xlink="http://www.w3.org/1999/xlink" x="0px" y="0px"
	 viewBox="-49 141 512 512" style="enable-background:new -49 141 512 512;" xml:space="preserve">
<style type="text/css">
	.st0{fill:#27FFE0;}
</style>
<g>
	<g>
		<path class="st0" d="M194.7,423.4C135.5,381.6,139,304,179.5,264.3c40.5-39.9,106.4-39.4,145.8,0.6
			c40.3,40.9,42.4,117.2-17.2,158.4c4.9,0,8.7,0,12.5,0c15.1-0.2,29.1,3.8,41.3,12.7c19.3,14.1,28.7,33.4,28.7,57.3
			c0,30.4,0,60.8,0,91.2c0,9.3-4.3,13.5-13.6,13.5c-83.2,0-166.5,0-249.7,0c-8.8,0-13.6-4-13.6-12.1c0-33.1-0.5-66.3,0.4-99.4
			c0.9-33.4,30.6-62,64-63.1C183.6,423.2,189.2,423.4,194.7,423.4z M367.8,575c0-9,0-17.7,0-26.3c-0.1-20.6,0.3-41.2-0.4-61.7
			c-0.6-17-14.1-33-30.1-38.5c-9-3.1-18.2-2.3-27.4-2.7c-3.1-0.1-111,0.2-112.2,0.2c-9,0.2-18.4-0.6-27,1.6
			c-21.6,5.5-34.2,22.6-34.4,44.9c-0.2,26.3-0.1,52.7,0,79c0,1.1,0.3,2.3,0.4,3.4C146.9,575,357.3,575,367.8,575z M252.3,257.1
			c-43.8-0.3-79.8,35.3-80.2,79.2c-0.4,44.1,35.7,80.5,79.9,80.6c43.7,0.1,79.7-35.8,80-79.6C332.2,293.3,296.6,257.3,252.3,257.1z"
			/>
	</g>
</g>
<g>
	<path class="st0" d="M98.1,315c-1.3,0-2.5-0.5-3.4-1.5l-54.9-59.2c0,0,0,0,0,0c-6.7-7.4-10.3-17.2-10.3-27.5s3.7-20.2,10.3-27.5
		l0.8-0.9c6.8-7.5,15.8-11.6,25.5-11.6s18.7,4.1,25.5,11.6l6.5,7.2l6.5-7.2c6.8-7.5,15.8-11.6,25.5-11.6c9.7,0,18.7,4.1,25.5,11.6
		l0.8,0.9c6.7,7.4,10.3,17.2,10.3,27.5c0,10.4-3.7,20.2-10.3,27.5c0,0,0,0,0,0l-54.9,59.2C100.6,314.4,99.4,315,98.1,315z M46.6,248
		l51.5,55.5l51.5-55.5c10.6-11.7,10.6-30.8,0-42.6l-0.8-0.9c-5-5.5-11.6-8.6-18.6-8.6c-7,0-13.6,3-18.6,8.6l-10,11
		c-0.9,1-2.1,1.5-3.4,1.5s-2.6-0.6-3.4-1.5l-10-11c-5-5.5-11.6-8.6-18.6-8.6s-13.6,3-18.6,8.6l-0.8,0.9C36,217.2,36,236.3,46.6,248z
		"/>
</g>
</svg>
