<?xml version="1.0" encoding="utf-8"?>
<!-- Generator: Adobe Illustrator 19.0.0, SVG Export Plug-In . SVG Version: 6.00 Build 0)  -->
<svg version="1.1" id="Layer_1" xmlns="http://www.w3.org/2000/svg" xmlns:xlink="http://www.w3.org/1999/xlink" x="0px" y="0px"
	 viewBox="52 263 715.8 267" style="enable-background:new 52 263 715.8 267;" xml:space="preserve">
<style type="text/css">
	.st0{fill:#FFFFFF;}
	.st1{fill:#27FFE0;}
</style>
<path id="XMLID_30_" class="st0" d="M340.1,527.7v-194h48.8v194.1L340.1,527.7L340.1,527.7z"/>
<path id="XMLID_28_" class="st0" d="M340.1,306.7v-43.4h48.8v43.4H340.1z"/>
<path id="XMLID_26_" class="st0" d="M544.4,523.5c-10.3,4.3-22.2,6.5-35.6,6.5c-9.7,0-19.7-1.5-30-4.5s-19.7-8.3-28.1-15.8
	c-8.4-7.6-15.3-17.8-20.8-30.5c-5.5-12.8-8.3-29-8.3-48.6s2.8-35.8,8.3-48.6s12.4-22.9,20.8-30.4c8.4-7.4,17.7-12.7,28.1-15.6
	c10.3-3,20.3-4.5,30-4.5c13.4,0,25.3,2.1,35.6,6.3c10.3,4.2,19.8,10.8,28.5,19.7l-32.8,32.8c-5-5.5-9.8-9.4-14.5-11.7
	c-4.7-2.4-10.3-3.5-16.8-3.5c-11.4,0-20.6,4.2-27.6,12.7c-3.7,4.7-6.5,10.4-8.2,17.1s-2.6,15.3-2.6,25.7c0,19.9,3.6,34.3,10.8,43.2
	c6.9,8.4,16.1,12.7,27.6,12.7c6.5,0,12-1.2,16.8-3.5c4.7-2.4,9.6-6.3,14.5-11.7l32.8,32.4C564.2,512.5,554.7,519.1,544.4,523.5z"/>
<path id="XMLID_23_" class="st0" d="M625.9,445.8c0,12.7,3.7,23,11,31.1c7.3,8.1,17.8,12.1,31.5,12.1c10.7,0,19.1-1.5,25.3-4.5
	s12.4-7.6,18.6-13.8l29.4,28.7c-5,5-9.9,9.3-14.9,13c-5,3.7-10.4,6.9-16.2,9.5s-12.2,4.6-19.2,6s-14.8,2-23.5,2
	c-11.4,0-22.5-1.5-33.3-4.5s-20.4-8.3-28.7-15.8c-8.3-7.6-15-17.8-20.1-30.5c-5.1-12.8-7.6-29-7.6-48.6c0-15.9,2-30,6.1-42.3
	c4.1-12.3,9.9-22.7,17.3-31.1c7.4-8.4,16.3-14.8,26.6-19.2c10.3-4.3,21.8-6.5,34.5-6.5c13.4,0,25.4,2.4,35.9,7.1
	c10.6,4.7,19.4,11.2,26.6,19.4c7.2,8.2,12.7,17.9,16.4,29.2c3.7,11.3,5.6,23.7,5.6,37.1v21.6L625.9,445.8L625.9,445.8z M698.4,401.7
	c-0.6-3.1-1.7-6.4-3.2-9.9c-2.7-5.7-6.8-10.5-12.1-14.3s-12.1-5.8-20.3-5.8s-15,1.9-20.3,5.8s-9.4,8.6-12.1,14.3
	c-1.5,3.5-2.5,6.8-3.2,9.9c-0.6,3.1-1.1,6.8-1.3,11h73.8C699.4,408.4,699,404.8,698.4,401.7z"/>
<rect id="XMLID_22_" x="250.8" y="263" class="st0" width="48.8" height="264.8"/>
<g id="XMLID_16_">
	<path id="XMLID_17_" class="st0" d="M766.9,346.8c-0.6,1.3-1.4,2.5-2.4,3.5s-2.2,1.8-3.5,2.4c-1.3,0.6-2.8,0.9-4.3,0.9
		s-3-0.3-4.3-0.9c-1.3-0.6-2.5-1.4-3.5-2.4s-1.8-2.2-2.4-3.5c-0.6-1.3-0.9-2.8-0.9-4.3s0.3-3,0.9-4.3c0.6-1.3,1.4-2.5,2.4-3.5
		s2.2-1.8,3.5-2.4c1.3-0.6,2.8-0.9,4.3-0.9s3,0.3,4.3,0.9c1.3,0.6,2.5,1.4,3.5,2.4s1.8,2.2,2.4,3.5c0.6,1.3,0.9,2.8,0.9,4.3
		C767.8,344,767.5,345.5,766.9,346.8z M764.5,339.1c-0.4-1-1-2-1.8-2.7c-0.8-0.8-1.7-1.4-2.7-1.8s-2.1-0.7-3.3-0.7s-2.3,0.2-3.3,0.7
		c-1,0.4-1.9,1-2.7,1.8c-0.8,0.8-1.4,1.7-1.8,2.7c-0.4,1-0.6,2.2-0.6,3.4s0.2,2.4,0.6,3.4c0.4,1,1,2,1.8,2.7
		c0.8,0.8,1.7,1.4,2.7,1.8s2.1,0.7,3.3,0.7s2.3-0.2,3.3-0.7c1-0.4,1.9-1,2.7-1.8c0.8-0.8,1.4-1.7,1.8-2.7c0.4-1,0.6-2.2,0.6-3.4
		S764.9,340.1,764.5,339.1z M758.7,348.4l-2.1-4.6h-1.3v4.6h-2.6v-11.8h4.8c0.6,0,1.1,0.1,1.6,0.3c0.5,0.2,0.9,0.5,1.2,0.8
		c0.3,0.3,0.6,0.7,0.8,1.2c0.2,0.4,0.3,0.9,0.3,1.4c0,0.8-0.2,1.5-0.7,2c-0.4,0.5-0.9,0.9-1.5,1.1l2.5,4.9h-3V348.4z M758.3,339.2
		c-0.3-0.3-0.7-0.5-1.2-0.5h-1.8v3.1h1.8c0.5,0,0.9-0.2,1.2-0.5c0.3-0.3,0.4-0.7,0.4-1.1C758.8,339.9,758.6,339.5,758.3,339.2z"/>
</g>
<path id="XMLID_3_" class="st1" d="M198.4,318.4c-0.7-0.6-1.5-1.2-2.2-1.7c-36.5-27.9-87.5-26.5-119.2,5.2s-33.1,82.8-5.2,119.3
	c0.3,0.5,0.7,0.9,1.1,1.3c2,2.2,4.9,3.6,8.1,3.6c2.8,0,5.4-1.1,7.3-2.8l0.9-0.9l108.4-108.3l1.5-1.5c1.5-1.8,2.4-4.2,2.4-6.7
	C201.5,323,200.3,320.3,198.4,318.4z"/>
<path id="XMLID_2_" class="st1" d="M69,508.3c0.7,0.6,1.5,1.2,2.2,1.7c36.6,28,87.8,26.5,119.6-5.3s33.2-83,5.2-119.7
	c-0.3-0.5-0.7-0.9-1.1-1.3c-2-2.2-4.9-3.6-8.1-3.6c-2.8,0-5.4,1.1-7.3,2.8l-0.9,0.9L69.9,492.6l-1.5,1.5c-1.5,1.8-2.4,4.2-2.4,6.7
	C66,503.8,67.1,506.4,69,508.3z"/>
</svg>
