<?xml version="1.0" encoding="utf-8"?>
<!-- Generator: Adobe Illustrator 19.0.0, SVG Export Plug-In . SVG Version: 6.00 Build 0)  -->
<svg version="1.1" id="Layer_1" xmlns="http://www.w3.org/2000/svg" xmlns:xlink="http://www.w3.org/1999/xlink" x="0px" y="0px"
	 viewBox="-216 307.4 178.6 178.6" style="enable-background:new -216 307.4 178.6 178.6;" xml:space="preserve">
<style type="text/css">
	.st0{fill:#27FFE0;}
</style>
<g id="XMLID_15_">
	<path id="XMLID_21_" class="st0" d="M-71.8,378.3c0-24.2-19.7-43.8-43.8-43.8c-13.4,0-25.5,6.1-33.5,15.6H-178
		c-2,0-3.6,1.6-3.6,3.6v101.7c0,2,1.6,3.6,3.6,3.6h62.6c2,0,3.6-1.6,3.6-3.6v-33.5C-89.4,419.9-71.8,401.1-71.8,378.3z
		 M-174.4,357.2h20.3c-1.2,2.1-2.1,4.3-2.9,6.6h-17.4V357.2z M-118.9,451.8h-55.5v-6.6h23c0.8,1.9,2.6,3.2,4.8,3.2
		c2.1,0,4-1.3,4.8-3.2h23V451.8z M-174.4,438v-67h15.5c-0.4,2.4-0.6,4.8-0.6,7.3c0,23.1,17.9,42,40.5,43.7v16H-174.4z M-115.6,414.9
		c-20.2,0-36.6-16.4-36.6-36.6c0-20.2,16.4-36.6,36.6-36.6c20.2,0,36.6,16.4,36.6,36.6C-79,398.5-95.4,414.9-115.6,414.9z"/>
	<g id="XMLID_16_">
		<path id="XMLID_17_" class="st0" d="M-92.2,368.1c0-2.8-1.8-4.6-4.6-4.6c-13.5,0-22.9,0-36.4,0c-2.8,0-4.5,1.8-4.5,4.5
			c0,6.4,0,12.8,0,19.3c0,0.7,0.1,1.5,0.5,2.1c0.8,1.8,2.4,2.4,4.3,2.4c13.4,0,22.6,0,36,0c0.1,0,0.2,0,0.3,0
			c2.7-0.1,4.4-1.8,4.4-4.5C-92.2,385.9-92.2,369.3-92.2,368.1z M-132.9,366.8c6.7,0,9.2,0,15.9,0c6.7,0,13.3,0,20,0
			c1.3,0,1.6,0.2,1.6,1.6c0,4,0,8,0,12h-39c0-4,0-8,0-12C-134.4,367-134.2,366.8-132.9,366.8z M-97,388.6c-13.3,0-22.5,0-35.9,0
			c-1.3,0-1.6-0.3-1.6-1.6c0-1.1,0-2.3,0-3.4h39c0,1.1,0,2.3,0,3.4C-95.5,388.3-95.7,388.6-97,388.6z"/>
	</g>
</g>
</svg>
