<?xml version="1.0" encoding="utf-8"?>
<!-- Generator: Adobe Illustrator 19.0.0, SVG Export Plug-In . SVG Version: 6.00 Build 0)  -->
<svg version="1.1" id="Layer_1" xmlns="http://www.w3.org/2000/svg" xmlns:xlink="http://www.w3.org/1999/xlink" x="0px" y="0px"
	 viewBox="0 0 63.1 78.5" style="enable-background:new 0 0 63.1 78.5;" xml:space="preserve">
<style type="text/css">
	.st0{fill:#FFFFFF;}
</style>
<g>
	<g>
		<g>
			<g>
				<path class="st0" d="M37,5.6c2.1,0,4.3,1.4,4.9,4.7c2.3,11.9-3.3,20.9-3.3,20.9h12.1c3.6,0,6.7,2.9,6.7,6.5
					c0,3.6-2.4,6.5-4.8,6.5c0.6,1,0.9,2.1,0.9,3.3c0,2.7-1.7,5.1-4.1,6c0.6,1,1,2.2,1,3.5c0,3.2-2.3,5.8-5.3,6.3
					c0.5,0.9,0.9,2,0.9,3.2c0,3.6-2.9,6.5-6.5,6.5l-6.9,0c-20.3,0-16.5-7-27.2-7V39.3c6.9,0,12.8-0.4,18.8-9.8
					c4.2-6.6,6.9-10.8,8-19.8C32.8,7.1,34.9,5.6,37,5.6 M37,0L37,0c-2.4,0-4.7,0.8-6.6,2.4c-2,1.7-3.3,4-3.6,6.6
					c-1,7.6-3.1,11-7,17.2l-0.2,0.3c-4.6,7.2-8.1,7.2-14.1,7.2c-3.1,0-5.6,2.5-5.6,5.6v26.6c0,3.1,2.5,5.6,5.6,5.6
					c2.9,0,3.8,0.6,5.7,1.8c1.6,1.1,3.9,2.5,7.4,3.6c3.7,1.1,8.3,1.7,14.1,1.7l6.9,0c6.6,0,12.1-5.4,12.1-12.1c0-0.1,0-0.2,0-0.2
					c2.7-2.2,4.4-5.6,4.4-9.3c0-0.4,0-0.9-0.1-1.3c0.4-0.4,0.7-0.8,1-1.3c1.4-2,2.2-4.4,2.2-6.9c0-0.1,0-0.3,0-0.4
					c2.3-2.2,3.9-5.6,3.9-9.3c0-3.3-1.3-6.3-3.7-8.6c-2.3-2.2-5.4-3.4-8.6-3.4h-3.9c1.4-5.4,1.6-11,0.6-16.3
					c-0.5-2.8-1.8-5.1-3.7-6.8C41.9,0.9,39.5,0,37,0L37,0z"/>
			</g>
		</g>
	</g>
</g>
</svg>
