<?xml version="1.0" encoding="utf-8"?>
<!-- Generator: Adobe Illustrator 19.0.0, SVG Export Plug-In . SVG Version: 6.00 Build 0)  -->
<svg version="1.1" id="Layer_1" xmlns="http://www.w3.org/2000/svg" xmlns:xlink="http://www.w3.org/1999/xlink" x="0px" y="0px"
	 viewBox="0 0 178.6 178.6" style="enable-background:new 0 0 178.6 178.6;" xml:space="preserve">
<style type="text/css">
	.st0{fill:#27FFDE;}
	.st1{fill:none;}
</style>
<g>
	<g>
		<path class="st0" d="M142.5,89.1c-3.5-2.6-7.5-3.7-11.9-3.7c-1.1,0-2.2,0-3.6,0c17.2-11.9,16.6-33.9,5-45.7
			c-11.4-11.5-30.4-11.7-42.1-0.2c-2.3,2.3-4.2,5-5.6,7.9c-11.4-7.5-27.1-6.3-37.3,3.8c-11.7,11.5-12.7,33.9,4.4,45.9
			c-1.6,0-3.2,0-4.8,0c-9.7,0.3-18.2,8.6-18.5,18.2c-0.3,9.6-0.1,19.1-0.1,28.7c0,2.3,1.4,3.5,3.9,3.5c24,0,48.1,0,72.1,0
			c2.7,0,3.9-1.2,3.9-3.9c0-2.6,0-5.2,0-7.7c13,0,26,0,39,0c2.7,0,3.9-1.2,3.9-3.9c0-8.8,0-17.6,0-26.3
			C150.7,98.8,148,93.2,142.5,89.1z M110.8,37.5c12.8,0.1,23.1,10.4,23,23.2c-0.1,12.7-10.5,23-23.1,23c-5.3,0-10.2-1.8-14.1-4.9
			c2.2-9.7-0.7-20-7.3-26.9C92.9,43.4,101.2,37.4,110.8,37.5z M44.8,72c0.1-12.7,10.5-23,23.2-22.9c12.8,0.1,23.1,10.4,23,23.2
			c-0.1,12.7-10.5,23-23.1,23C55.1,95.3,44.7,84.8,44.8,72z M34.5,140.9c0-0.3-0.1-0.7-0.1-1c0-7.6,0-15.2,0-22.8
			c0-6.5,3.7-11.4,9.9-13c2.5-0.6,5.2-0.4,7.8-0.5c0.3,0,31.5-0.1,32.4-0.1c2.7,0.1,5.3-0.1,7.9,0.8c4.6,1.6,8.5,6.2,8.7,11.1
			c0.2,5.9,0.1,11.9,0.1,17.8c0,2.5,0,5,0,7.6C98.2,141,37.5,140.9,34.5,140.9z M107.8,129.3c0-4,0-8,0-12c0-6.9-2.7-12.5-8.3-16.5
			c-3.5-2.6-7.5-3.7-11.9-3.7c-1.1,0-2.2,0-3.6,0c2.2-1.5,4.1-3.2,5.7-5c1.8-0.1,3.6,0,5.4-0.1c0.3,0,31.5-0.1,32.4-0.1
			c2.7,0.1,5.3-0.1,7.9,0.8c4.6,1.6,8.5,6.2,8.7,11.1c0.2,5.9,0.1,11.9,0.1,17.8c0,2.5,0,5,0,7.6L107.8,129.3z"/>
	</g>
	<rect class="st1" width="178.6" height="178.6"/>
</g>
</svg>
