<?xml version="1.0" encoding="utf-8"?>
<!-- Generator: Adobe Illustrator 19.0.0, SVG Export Plug-In . SVG Version: 6.00 Build 0)  -->
<svg version="1.1" id="Layer_1" xmlns="http://www.w3.org/2000/svg" xmlns:xlink="http://www.w3.org/1999/xlink" x="0px" y="0px"
	 viewBox="0 0 303.2 162" style="enable-background:new 0 0 303.2 162;" xml:space="preserve">
<style type="text/css">
	.st0{fill:none;}
	.st1{fill:#FFFFFF;}
	.st2{fill:#F9F9F9;}
</style>
<g>
	<path class="st0" d="M303.2,20.9V0h-22.9C292.3,0,302.1,9.2,303.2,20.9z"/>
	<path class="st0" d="M176,91.9c-2.7,0-4.6,0.7-5.8,2.2s-1.8,3.8-1.8,7.1v0.9c0,3.7,0.6,6.3,1.8,7.9c1.2,1.6,3.2,2.4,5.9,2.4
		c2.3,0,4-0.9,5.3-2.7s1.9-4.3,1.9-7.6c0-3.3-0.6-5.8-1.9-7.5C180.1,92.8,178.3,91.9,176,91.9z"/>
	<path class="st0" d="M68.3,90.3c-1.8,0-3.6,0.7-4.9,1.9c-2.1,1.9-2.5,4.3-2.5,6.7c0,5.4,2.7,14.3,9.3,14.3c2.1,0,4.3-1,5.6-2.8
		c1.3-1.7,1.6-3.9,1.6-6.1C77.4,99.5,75.1,90.3,68.3,90.3z"/>
	<path class="st0" d="M145.2,51.2c-0.5,0-1,0-1.5,0.1c-0.5,0.1-1,0.2-1.4,0.4c-0.4,0.2-0.8,0.5-1.1,0.9c-0.3,0.4-0.4,0.9-0.4,1.5
		c0,1.1,0.4,1.9,1.1,2.3c0.6,0.5,1.6,0.7,2.8,0.7c0.7,0,1.4,0,2-0.1c0.6,0,1-0.1,1.4-0.2v-5.2c-0.2-0.1-0.6-0.2-1.1-0.3
		C146.5,51.2,145.9,51.2,145.2,51.2z"/>
	<path class="st0" d="M300.3,139V23c0-11-9-20-20-20H114L85.9,42.2c0.1,0,0.2,0.1,0.3,0.1V58c0,2.7-0.7,4.6-2.1,5.9
		c-1.4,1.2-3.5,1.8-6.3,1.8c-1.1,0-2.1-0.1-3.1-0.3c-1-0.2-1.8-0.4-2.5-0.6l0.6-2.7c0.6,0.2,1.4,0.5,2.3,0.7
		c0.9,0.2,1.9,0.3,2.8,0.3c1.9,0,3.2-0.4,4-1.1s1.2-1.9,1.2-3.5v-0.9H83c-0.3,0.2-0.8,0.4-1.6,0.7s-1.7,0.4-2.7,0.4
		c-1.1,0-2-0.2-3-0.5c-0.3-0.1-0.6-0.3-0.9-0.4L49.7,92.7c2.2,2.4,3.5,5.6,3.5,8.9c0,6.4-4.9,13.2-13.8,13.2c-1.8,0-3.5-0.3-4.9-0.8
		L2.2,159h278.1C291.3,159,300.3,150,300.3,139z M129.6,33.8l3.1-0.5v21c0,0.5,0,0.9,0.1,1.3c0.1,0.3,0.2,0.6,0.4,0.8
		c0.2,0.2,0.5,0.4,0.8,0.5c0.3,0.1,0.8,0.2,1.2,0.3l-0.3,2.5c-1.9,0-3.3-0.5-4.1-1.2c-0.8-0.8-1.2-2-1.2-3.7V33.8z M110.5,46.5
		c0.5-1.2,1-2.1,1.8-2.9c0.7-0.8,1.6-1.3,2.6-1.7c1-0.4,2-0.6,3-0.6c2.4,0,4.2,0.7,5.4,2.2c1.3,1.5,1.9,3.7,1.9,6.7
		c0,0.1,0,0.3,0,0.5s0,0.4,0,0.6h-12c0.1,1.8,0.7,3.2,1.6,4.1c0.9,0.9,2.4,1.4,4.3,1.4c1.1,0,2-0.1,2.8-0.3s1.3-0.4,1.7-0.6l0.4,2.6
		c-0.4,0.2-1,0.4-2,0.6c-1,0.2-2,0.3-3.2,0.3c-1.5,0-2.8-0.2-4-0.7c-1.1-0.5-2-1.1-2.7-1.9s-1.2-1.8-1.6-2.9
		c-0.5-0.7-0.7-1.9-0.7-3.3C109.8,49.1,110,47.7,110.5,46.5z M91.3,42h3.1v9c0,2.1,0.3,3.7,1,4.6c0.7,0.9,1.8,1.4,3.4,1.4
		c0.3,0,0.7,0,1,0c0.4,0,0.7-0.1,1-0.1s0.6-0.1,0.9-0.1s0.4-0.1,0.6-0.1V41.9h3.1v17c-0.7,0.2-1.7,0.4-2.8,0.6
		c-1.2,0.2-2.5,0.3-4.1,0.3c-1.3,0-2.5-0.2-3.4-0.6c-0.9-0.4-1.7-0.9-2.2-1.7c-0.6-0.7-1-1.6-1.2-2.5c-0.2-1-0.4-2.1-0.4-3.2V42z
		 M68.9,114.8c-8.7,0-13.3-6.8-13.3-12.9c0-7.1,5.8-13.2,14.1-13.2c8,0,13,6.3,13,12.9C82.8,108,77.8,114.8,68.9,114.8z M107.2,98.9
		c0,4-2.3,6-4.6,7.8c-0.7,0.7-1.5,1.5-1.5,2.7c0,1.2,0.8,1.9,1.4,2.3l2,1.5c2.4,2,4.6,3.9,4.6,7.6c0,5.1-5,10.3-14.4,10.3
		c-7.9,0-11.7-3.8-11.7-7.8c0-2,1-4.7,4.2-6.7c3.4-2.1,8-2.3,10.4-2.5c-0.8-1-1.6-2-1.6-3.7c0-0.9,0.3-1.5,0.5-2.1
		c-0.6,0.1-1.2,0.1-1.7,0.1c-5.8,0-9.1-4.3-9.1-8.6c0-2.5,1.1-5.3,3.5-7.3c3.1-2.6,6.8-3,9.8-3h11.2l-3.5,2h-3.4
		C104.6,92.5,107.2,94.7,107.2,98.9z M121.4,113.9h-9.7c1.3-1.6,1.5-1.8,1.5-2.9v-1.8v-32H109l4.1-2h7.8c-1.7,1-2.3,1.3-2.5,3.2
		c0,0.2,0,0.3,0,0.4v30.4v0.6c0,2.1,0.4,2.4,2.2,2.6c1,0.1,1.9,0.2,2.8,0.3L121.4,113.9z M142.9,112.9c-0.6,0.3-1.2,0.7-1.8,1
		c-1.8,0.8-3.6,1-5.3,1c-1.7,0-4.5-0.1-7.2-2.1c-3.9-2.7-5.5-7.4-5.5-11.5c0-8.4,6.9-12.6,12.5-12.6c2,0,4,0.5,5.6,1.5
		c2.7,1.8,3.4,4.1,3.8,5.4l-12.8,5.2l-4.2,0.3c1.4,6.9,6,10.9,11.2,10.9c2.8,0,4.8-1,6.6-1.9L142.9,112.9z M149.4,89.1h-1.2v3.6
		h-0.4v-3.6h-1.2v-0.4h2.8V89.1z M148.5,59.4c-0.6,0.1-1.3,0.1-2,0.2c-0.7,0.1-1.4,0.1-2.1,0.1c-1,0-1.9-0.1-2.7-0.3
		c-0.8-0.2-1.5-0.5-2.2-1c-0.6-0.4-1.1-1-1.4-1.7s-0.5-1.6-0.5-2.6s0.2-1.8,0.6-2.5c0.4-0.7,0.9-1.3,1.6-1.7
		c0.7-0.4,1.5-0.7,2.4-0.9c0.9-0.2,1.8-0.3,2.8-0.3c0.3,0,0.6,0,1,0.1c0.3,0,0.7,0.1,1,0.1c0.3,0.1,0.6,0.1,0.8,0.2
		c0.2,0,0.4,0.1,0.5,0.1v-0.9c0-0.5-0.1-1-0.2-1.5c-0.1-0.5-0.3-1-0.6-1.3c-0.3-0.4-0.7-0.7-1.2-0.9s-1.2-0.4-2-0.4
		c-1,0-1.9,0.1-2.7,0.2c-0.8,0.1-1.4,0.3-1.7,0.5l-0.4-2.6c0.4-0.2,1.1-0.4,2-0.5c0.8-0.3,1.9-0.4,3-0.4c1.3,0,2.3,0.2,3.2,0.5
		c0.9,0.3,1.6,0.8,2.1,1.4c0.5,0.6,0.9,1.3,1.1,2.1c0.2,0.8,0.3,1.7,0.3,2.7V59c-0.3,0-0.6,0.1-1.1,0.2
		C149.6,59.3,149.1,59.4,148.5,59.4z M153.6,92.7h-0.5v-3.6l-1.1,3.6h-0.3l-1.1-3.6v3.6h-0.4v-4h0.7l1,3.2l1-3.2h0.7V92.7z
		 M163.2,50.6c0-1.5,0.2-2.9,0.7-4.1s1-2.1,1.8-2.9c0.7-0.8,1.6-1.3,2.6-1.7c1-0.4,2-0.6,3-0.6c2.4,0,4.2,0.7,5.4,2.2
		c1.3,1.5,1.9,3.7,1.9,6.7c0,0.1,0,0.3,0,0.5s0,0.4,0,0.6h-12c0.1,1.8,0.7,3.2,1.6,4.1c0.9,0.9,2.4,1.4,4.3,1.4c1.1,0,2-0.1,2.8-0.3
		s1.3-0.4,1.7-0.6l0.4,2.6c-0.4,0.2-1,0.4-2,0.6c-1,0.2-2,0.3-3.2,0.3c-1.5,0-2.8-0.2-4-0.7c-1.1-0.5-2-1.1-2.7-1.9
		s-1.2-1.8-1.6-2.9C163.5,52.8,163.2,52,163.2,50.6z M184.4,112c-1.8,2.4-4.4,3.6-7.8,3.6c-1.7,0-3.3-0.3-4.7-0.9
		c-1.4-0.6-2.6-1.6-3.5-2.9h-0.3c0.2,1.5,0.3,3,0.3,4.3v10.7h-4V89h3.2l0.5,3.6h0.2c1-1.4,2.2-2.5,3.6-3.1c1.3-0.6,2.9-1,4.6-1
		c3.5,0,6.1,1.2,8,3.5c1.9,2.4,2.8,5.7,2.8,10S186.3,109.6,184.4,112z M196.6,115.2h-4V78.1h4V115.2z M197.1,59.3H194v-9.2
		c0-1.1-0.1-2-0.2-2.8c-0.1-0.8-0.4-1.4-0.7-1.9c-0.3-0.5-0.8-0.8-1.3-1c-0.6-0.2-1.3-0.3-2.1-0.3c-0.3,0-0.7,0-1,0
		c-0.4,0-0.7,0.1-1,0.1s-0.6,0.1-0.9,0.1s-0.4,0.1-0.6,0.1v14.8h-3.1V42.4h-0.2c0.7-0.2,1.7-0.4,2.9-0.6c1.2-0.2,2.6-0.3,4.1-0.3
		c1.4,0,2.5,0.2,3.5,0.6c0.9,0.4,1.7,0.9,2.2,1.6s0.9,1.6,1.2,2.5c0.2,1,0.3,2.1,0.3,3.3V59.3z M222.1,115.3h-2.8v-0.1l-0.8-3.7
		h-0.2c-1.3,1.6-2.6,2.7-3.9,3.3c-1.3,0.6-2.9,0.9-4.8,0.9c-2.6,0-4.6-0.7-6.1-2s-2.2-3.2-2.2-5.7c0-5.3,4.2-8,12.6-8.3l4.4-0.1V98
		c0-2-0.4-3.6-1.3-4.5c-0.9-1-2.3-1.5-4.2-1.5c-2.2,0-4.6,0.7-7.4,2l-1.2-3c1.3-0.7,2.7-1.2,4.2-1.6c1.5-0.4,3.1-0.6,4.6-0.6
		c3.1,0,5.4,0.7,6.9,2.1c1.5,1.4,2.2,3.6,2.2,6.6V115.3z M237.7,118.7c-1.1,2.9-2.4,5-3.9,6.3c-1.5,1.2-3.3,1.8-5.5,1.8
		c-1.2,0-2.4-0.1-3.6-0.4v-3.2c0.9,0.2,1.9,0.3,2.9,0.3c2.7,0,4.7-1.5,5.8-4.6l1.5-3.7L224.5,89h4.2l5.7,14.9c1.3,3.4,2,5.9,2.3,7.4
		h0.2c0.2-0.8,0.6-2.2,1.3-4.2c0.7-2,2.8-8,6.5-18.1h4.2L237.7,118.7z"/>
	<path class="st0" d="M46.2,110.4c1.3-1.7,1.6-3.9,1.6-6.1c0-2-0.4-4.6-1.3-7.1l-10.3,14.4c1.2,1,2.7,1.6,4.4,1.6
		C42.8,113.2,45,112.2,46.2,110.4z"/>
	<path class="st0" d="M120.7,45.4c-0.7-0.9-1.7-1.4-3-1.4c-0.7,0-1.4,0.1-1.9,0.4c-0.5,0.3-1,0.6-1.4,1.1c-0.4,0.5-0.7,1-0.9,1.5
		c-0.2,0.6-0.4,1.2-0.4,1.8h8.7C121.8,47.4,121.5,46.3,120.7,45.4z"/>
	<path class="st0" d="M174.1,45.4c-0.7-0.9-1.7-1.4-3-1.4c-0.7,0-1.4,0.1-1.9,0.4c-0.5,0.3-1,0.6-1.4,1.1c-0.4,0.5-0.7,1-0.9,1.5
		c-0.2,0.6-0.4,1.2-0.4,1.8h8.7C175.2,47.4,174.9,46.3,174.1,45.4z"/>
	<path class="st0" d="M139.4,95.2c0-2.2-2.4-4.7-5.4-4.7c-2.2,0-6.3,1.7-6.3,7.6c0,0.9,0.1,1.9,0.2,2.9l9.9-4.3
		C138.8,96.3,139.4,96,139.4,95.2z"/>
	<path class="st0" d="M98.1,115.6c-0.5,0-3.4,0.1-5.7,0.9c-1.2,0.4-4.7,1.7-4.7,5.6c0,3.9,3.8,6.7,9.6,6.7c5.2,0,8-2.5,8-5.9
		c0.1-2.8-1.7-4.2-5.9-7.2C99,115.6,98.7,115.6,98.1,115.6z"/>
	<path class="st0" d="M207.5,104c-1.4,0.9-2.1,2.2-2.1,4c0,1.4,0.4,2.5,1.3,3.3c0.9,0.7,2.1,1.1,3.7,1.1c2.5,0,4.4-0.7,5.8-2
		c1.4-1.3,2.1-3.2,2.1-5.7v-2.4l-4,0.2C211.2,102.6,208.9,103.1,207.5,104z"/>
	<path class="st0" d="M79,55.9c0.8,0,1.6-0.1,2.3-0.4c0.7-0.2,1.2-0.5,1.6-0.8v-8.3l-6.4,8.9c0.2,0.1,0.4,0.2,0.7,0.3
		C77.8,55.8,78.4,55.9,79,55.9z"/>
	<path class="st0" d="M95.5,91.3c-1.4,0-2.9,0.7-3.8,1.8c-0.9,1.1-1.2,2.6-1.2,4c0,3.7,2.1,9.7,6.8,9.7c1.4,0.1,2.8-0.6,3.7-1.5
		c1.3-1.3,1.4-3,1.4-4C102.4,97.4,100.1,91.3,95.5,91.3z"/>
	<path class="st0" d="M280.3,162h22.9v-21.1C302.1,152.7,292.3,162,280.3,162z"/>
	<path class="st1" d="M303.2,140.9v-120C302.1,9.2,292.3,0,280.3,0H116.2L114,3h166.3c11,0,20,9,20,20v116c0,11-9,20-20,20H2.2
		L0,162h280.3C292.3,162,302.1,152.7,303.2,140.9z"/>
	<path class="st2" d="M176.5,88.5c-1.7,0-3.3,0.4-4.6,1c-1.4,0.6-2.6,1.7-3.6,3.1h-0.2l-0.5-3.6h-3.2v37.8h4v-10.7
		c0-1.3-0.1-2.8-0.3-4.3h0.3c0.9,1.3,2.1,2.3,3.5,2.9c1.4,0.6,3,0.9,4.7,0.9c3.4,0,6-1.2,7.8-3.6c1.9-2.4,2.9-5.7,2.9-10
		s-0.9-7.6-2.8-10C182.6,89.7,180,88.5,176.5,88.5z M181.4,109.7c-1.3,1.8-3,2.7-5.3,2.7c-2.7,0-4.7-0.8-5.9-2.4
		c-1.2-1.6-1.8-4.2-1.8-7.9v-0.9c0-3.3,0.6-5.6,1.8-7.1s3.1-2.2,5.8-2.2c2.3,0,4.1,0.9,5.4,2.7c1.3,1.7,1.9,4.2,1.9,7.5
		C183.3,105.4,182.7,107.9,181.4,109.7z"/>
	<rect x="192.6" y="78.1" class="st2" width="4" height="37.1"/>
	<path class="st2" d="M213,88.8c-1.5,0-3.1,0.2-4.6,0.6c-1.5,0.4-2.9,0.9-4.2,1.6l1.2,3c2.8-1.3,5.2-2,7.4-2c1.9,0,3.3,0.5,4.2,1.5
		c0.9,0.9,1.3,2.5,1.3,4.5v1.6l-4.4,0.1c-8.4,0.3-12.6,3-12.6,8.3c0,2.5,0.7,4.4,2.2,5.7s3.5,2,6.1,2c1.9,0,3.5-0.3,4.8-0.9
		c1.3-0.6,2.6-1.7,3.9-3.3h0.2l0.8,3.7v0.1h2.8V97.5c0-3-0.7-5.2-2.2-6.6C218.4,89.5,216.1,88.8,213,88.8z M218.3,104.7
		c0,2.5-0.7,4.4-2.1,5.7c-1.4,1.3-3.3,2-5.8,2c-1.6,0-2.8-0.4-3.7-1.1c-0.9-0.8-1.3-1.9-1.3-3.3c0-1.8,0.7-3.1,2.1-4
		c1.4-0.9,3.7-1.4,6.8-1.5l4-0.2V104.7z"/>
	<path class="st2" d="M238.2,107.1c-0.7,2-1.1,3.4-1.3,4.2h-0.2c-0.3-1.5-1-4-2.3-7.4L228.7,89h-4.2l10.4,26.2l-1.5,3.7
		c-1.1,3.1-3.1,4.6-5.8,4.6c-1,0-2-0.1-2.9-0.3v3.2c1.2,0.3,2.4,0.4,3.6,0.4c2.2,0,4-0.6,5.5-1.8c1.5-1.3,2.8-3.4,3.9-6.3L248.9,89
		h-4.2C241,99.1,238.9,105.1,238.2,107.1z"/>
	<path class="st2" d="M110.2,89.5H99c-3,0-6.7,0.4-9.8,3c-2.4,2-3.5,4.8-3.5,7.3c0,4.3,3.3,8.6,9.1,8.6c0.5,0,1.1,0,1.7-0.1
		c-0.2,0.6-0.5,1.2-0.5,2.1c0,1.7,0.8,2.7,1.6,3.7c-2.4,0.2-7,0.4-10.4,2.5c-3.2,2-4.2,4.7-4.2,6.7c0,4,3.8,7.8,11.7,7.8
		c9.4,0,14.4-5.2,14.4-10.3c0-3.7-2.2-5.6-4.6-7.6l-2-1.5c-0.6-0.4-1.4-1.1-1.4-2.3c0-1.2,0.8-2,1.5-2.7c2.3-1.8,4.6-3.8,4.6-7.8
		c0-4.2-2.6-6.4-3.9-7.4h3.4L110.2,89.5z M105.3,122.9c0,3.4-2.8,5.9-8,5.9c-5.8,0-9.6-2.8-9.6-6.7c0-3.9,3.5-5.2,4.7-5.6
		c2.3-0.8,5.2-0.9,5.7-0.9c0.6,0,0.9,0,1.3,0.1C103.6,118.7,105.4,120.1,105.3,122.9z M101,105.3c-0.9,0.9-2.3,1.6-3.7,1.5
		c-4.7,0-6.8-6-6.8-9.7c0-1.4,0.3-2.9,1.2-4c0.9-1.1,2.4-1.8,3.8-1.8c4.6,0,6.9,6.1,6.9,10C102.4,102.3,102.3,104,101,105.3z"/>
	<path class="st2" d="M69.7,88.7c-8.3,0-14.1,6.1-14.1,13.2c0,6.1,4.6,12.9,13.3,12.9c8.9,0,13.9-6.8,13.8-13.2
		C82.7,95,77.7,88.7,69.7,88.7z M75.8,110.4c-1.3,1.8-3.5,2.8-5.6,2.8c-6.6,0-9.3-8.9-9.3-14.3c0-2.4,0.4-4.8,2.5-6.7
		c1.3-1.2,3.1-1.9,4.9-1.9c6.8,0,9.1,9.2,9.1,14C77.4,106.5,77.1,108.7,75.8,110.4z"/>
	<path class="st2" d="M53.2,101.6c0-3.3-1.2-6.5-3.5-8.9l-3.2,4.5c0.9,2.5,1.3,5.2,1.3,7.1c0,2.2-0.3,4.4-1.6,6.1
		c-1.2,1.8-3.4,2.8-5.6,2.8c-1.7,0-3.2-0.6-4.4-1.6l-1.7,2.4c1.5,0.5,3.1,0.8,4.9,0.8C48.3,114.8,53.2,108,53.2,101.6z"/>
	<path class="st2" d="M118.4,109.8v-0.6V78.8c0-0.1,0-0.2,0-0.4c0.2-1.9,0.8-2.2,2.5-3.2h-7.8l-4.1,2h4.2v32v1.8
		c0,1.1-0.2,1.3-1.5,2.9h9.7l2-1.2c-0.9-0.1-1.8-0.2-2.8-0.3C118.8,112.2,118.4,111.9,118.4,109.8z"/>
	<path class="st2" d="M128,101.1l4.2-0.3l12.8-5.2c-0.4-1.3-1.1-3.6-3.8-5.4c-1.6-1-3.6-1.5-5.6-1.5c-5.6,0-12.5,4.2-12.5,12.6
		c0,4.1,1.6,8.8,5.5,11.5c2.7,2,5.5,2.1,7.2,2.1c1.7,0,3.5-0.2,5.3-1c0.6-0.3,1.2-0.7,1.8-1l2.9-2.8c-1.8,0.9-3.8,1.9-6.6,1.9
		C134,112,129.4,108,128,101.1z M127.7,98.1c0-5.9,4.1-7.6,6.3-7.6c3,0,5.4,2.5,5.4,4.7c0,0.8-0.6,1.1-1.6,1.5l-9.9,4.3
		C127.8,100,127.7,99,127.7,98.1z"/>
	<polygon class="st2" points="146.6,89.1 147.8,89.1 147.8,92.7 148.2,92.7 148.2,89.1 149.4,89.1 149.4,88.7 146.6,88.7 	"/>
	<polygon class="st2" points="151.9,91.9 150.9,88.7 150.2,88.7 150.2,92.7 150.6,92.7 150.6,89.1 151.7,92.7 152,92.7 153.1,89.1 
		153.1,92.7 153.6,92.7 153.6,88.7 152.9,88.7 	"/>
	<path class="st1" d="M78.7,58.7c1,0,1.9-0.1,2.7-0.4s1.3-0.5,1.6-0.7h0.1v0.9c0,1.6-0.4,2.8-1.2,3.5s-2.1,1.1-4,1.1
		c-0.9,0-1.9-0.1-2.8-0.3c-0.9-0.2-1.7-0.5-2.3-0.7l-0.6,2.7c0.7,0.2,1.5,0.4,2.5,0.6c1,0.2,2,0.3,3.1,0.3c2.8,0,4.9-0.6,6.3-1.8
		c1.4-1.3,2.1-3.2,2.1-5.9V42.3c-0.1,0-0.2-0.1-0.3-0.1l-3,4.2v8.3c-0.4,0.3-0.9,0.6-1.6,0.8c-0.7,0.3-1.5,0.4-2.3,0.4
		c-0.6,0-1.2-0.1-1.8-0.3c-0.2-0.1-0.5-0.2-0.7-0.3l-1.8,2.5c0.3,0.2,0.6,0.3,0.9,0.4C76.7,58.5,77.6,58.7,78.7,58.7z"/>
	<path class="st1" d="M92.9,57.5c0.5,0.8,1.3,1.3,2.2,1.7c0.9,0.4,2.1,0.6,3.4,0.6c1.6,0,2.9-0.1,4.1-0.3c1.1-0.2,2.1-0.4,2.8-0.6
		v-17h-3.1v14.8c-0.2,0-0.3,0.1-0.6,0.1s-0.6,0.1-0.9,0.1s-0.6,0.1-1,0.1c-0.3,0-0.7,0-1,0c-1.6,0-2.7-0.5-3.4-1.4
		c-0.7-0.9-1-2.5-1-4.6v-9h-3.1v9.8c0,1.1,0.2,2.2,0.4,3.2C91.9,55.9,92.3,56.8,92.9,57.5z"/>
	<path class="st1" d="M112.1,56.8c0.7,0.8,1.6,1.4,2.7,1.9c1.2,0.5,2.5,0.7,4,0.7c1.2,0,2.2-0.1,3.2-0.3c1-0.2,1.6-0.4,2-0.6
		l-0.4-2.6c-0.4,0.2-0.9,0.4-1.7,0.6s-1.7,0.3-2.8,0.3c-1.9,0-3.4-0.5-4.3-1.4c-0.9-0.9-1.5-2.3-1.6-4.1h12c0-0.2,0-0.4,0-0.6
		s0-0.4,0-0.5c0-3-0.6-5.2-1.9-6.7c-1.2-1.5-3-2.2-5.4-2.2c-1,0-2,0.2-3,0.6c-1,0.4-1.9,0.9-2.6,1.7c-0.8,0.8-1.3,1.7-1.8,2.9
		s-0.7,2.6-0.7,4.1c0,1.4,0.2,2.6,0.7,3.3C110.9,55,111.4,56,112.1,56.8z M113.5,47c0.2-0.5,0.5-1,0.9-1.5c0.4-0.5,0.9-0.8,1.4-1.1
		c0.5-0.3,1.2-0.4,1.9-0.4c1.3,0,2.3,0.5,3,1.4c0.8,0.9,1.1,2,1.1,3.4h-8.7C113.1,48.2,113.3,47.6,113.5,47z"/>
	<path class="st1" d="M134.9,59.7l0.3-2.5c-0.4-0.1-0.9-0.2-1.2-0.3c-0.3-0.1-0.6-0.3-0.8-0.5c-0.2-0.2-0.3-0.5-0.4-0.8
		c-0.1-0.4-0.1-0.8-0.1-1.3v-21l-3.1,0.5v21c0,1.7,0.4,2.9,1.2,3.7C131.6,59.2,133,59.7,134.9,59.7z"/>
	<path class="st1" d="M151.2,48.1c0-1-0.1-1.9-0.3-2.7c-0.2-0.8-0.6-1.5-1.1-2.1c-0.5-0.6-1.2-1.1-2.1-1.4c-0.9-0.3-1.9-0.5-3.2-0.5
		c-1.1,0-2.2,0.1-3,0.4c-0.9,0.1-1.6,0.3-2,0.5l0.4,2.6c0.3-0.2,0.9-0.4,1.7-0.5c0.8-0.1,1.7-0.2,2.7-0.2c0.8,0,1.5,0.2,2,0.4
		s0.9,0.5,1.2,0.9c0.3,0.3,0.5,0.8,0.6,1.3c0.1,0.5,0.2,1,0.2,1.5v0.9c-0.1,0-0.3-0.1-0.5-0.1c-0.2-0.1-0.5-0.1-0.8-0.2
		c-0.3,0-0.7-0.1-1-0.1c-0.4-0.1-0.7-0.1-1-0.1c-1,0-1.9,0.1-2.8,0.3c-0.9,0.2-1.7,0.5-2.4,0.9c-0.7,0.4-1.2,1-1.6,1.7
		c-0.4,0.7-0.6,1.5-0.6,2.5s0.2,1.9,0.5,2.6s0.8,1.3,1.4,1.7c0.7,0.5,1.4,0.8,2.2,1c0.8,0.2,1.7,0.3,2.7,0.3c0.7,0,1.4,0,2.1-0.1
		c0.7-0.1,1.4-0.1,2-0.2c0.6,0,1.1-0.1,1.6-0.2c0.5-0.1,0.8-0.2,1.1-0.2V48.1z M148.1,56.8c-0.4,0.1-0.8,0.2-1.4,0.2
		c-0.6,0.1-1.3,0.1-2,0.1c-1.2,0-2.2-0.2-2.8-0.7c-0.7-0.4-1.1-1.2-1.1-2.3c0-0.6,0.1-1.1,0.4-1.5c0.3-0.4,0.7-0.7,1.1-0.9
		c0.4-0.2,0.9-0.3,1.4-0.4c0.5-0.1,1-0.1,1.5-0.1c0.7,0,1.3,0,1.8,0.1c0.5,0.1,0.9,0.2,1.1,0.3V56.8z"/>
	<path class="st1" d="M168.2,58.7c1.2,0.5,2.5,0.7,4,0.7c1.2,0,2.2-0.1,3.2-0.3c1-0.2,1.6-0.4,2-0.6l-0.4-2.6
		c-0.4,0.2-0.9,0.4-1.7,0.6s-1.7,0.3-2.8,0.3c-1.9,0-3.4-0.5-4.3-1.4c-0.9-0.9-1.5-2.3-1.6-4.1h12c0-0.2,0-0.4,0-0.6s0-0.4,0-0.5
		c0-3-0.6-5.2-1.9-6.7c-1.2-1.5-3-2.2-5.4-2.2c-1,0-2,0.2-3,0.6c-1,0.4-1.9,0.9-2.6,1.7c-0.8,0.8-1.3,1.7-1.8,2.9s-0.7,2.6-0.7,4.1
		c0,1.4,0.3,2.2,0.7,3.3c0.4,1.1,0.9,2.1,1.6,2.9S167.1,58.2,168.2,58.7z M166.9,47c0.2-0.5,0.5-1,0.9-1.5c0.4-0.5,0.9-0.8,1.4-1.1
		c0.5-0.3,1.2-0.4,1.9-0.4c1.3,0,2.3,0.5,3,1.4c0.8,0.9,1.1,2,1.1,3.4h-8.7C166.5,48.2,166.7,47.6,166.9,47z"/>
	<path class="st1" d="M195.6,43.7c-0.5-0.7-1.3-1.2-2.2-1.6c-1-0.4-2.1-0.6-3.5-0.6c-1.5,0-2.9,0.1-4.1,0.3
		c-1.2,0.2-2.2,0.4-2.9,0.6h0.2v16.8h3.1V44.4c0.2,0,0.3-0.1,0.6-0.1s0.6-0.1,0.9-0.1s0.6-0.1,1-0.1c0.3,0,0.7,0,1,0
		c0.8,0,1.5,0.1,2.1,0.3c0.5,0.2,1,0.5,1.3,1c0.3,0.5,0.6,1.1,0.7,1.9c0.1,0.8,0.2,1.7,0.2,2.8v9.2h3.1v-9.8c0-1.2-0.1-2.3-0.3-3.3
		C196.5,45.3,196.1,44.4,195.6,43.7z"/>
</g>
</svg>
