<?xml version="1.0" encoding="utf-8"?>
<!-- Generator: Adobe Illustrator 19.0.0, SVG Export Plug-In . SVG Version: 6.00 Build 0)  -->
<svg version="1.1" id="Layer_1" xmlns="http://www.w3.org/2000/svg" xmlns:xlink="http://www.w3.org/1999/xlink" x="0px" y="0px"
	 viewBox="0 0 190 61.7" style="enable-background:new 0 0 190 61.7;" xml:space="preserve">
<style type="text/css">
	.st0{fill:#27FFE0;}
</style>
<g>
	<path class="st0" d="M108.3,44.1c-0.2,0-1.3,0-2.2,0.3c-0.5,0.2-1.8,0.7-1.8,2.1c0,1.5,1.4,2.5,3.7,2.5c2,0,3.1-1,3.1-2.2
		c0-1.1-0.7-1.6-2.3-2.7C108.6,44.1,108.5,44.1,108.3,44.1z"/>
	<path class="st0" d="M85.7,34.5c-0.7,0-1.4,0.3-1.9,0.7c-0.8,0.7-1,1.6-1,2.5c0,2.1,1,5.4,3.5,5.4c0.8,0,1.6-0.4,2.1-1.1
		c0.5-0.7,0.6-1.5,0.6-2.3C89.1,37.9,88.2,34.5,85.7,34.5z"/>
	<path class="st0" d="M77.2,16.8c-0.6,0-1,0.2-1.4,0.7c-0.3,0.4-0.5,1-0.5,1.8c0,0.8,0.2,1.3,0.5,1.8c0.3,0.4,0.8,0.7,1.4,0.7
		c0.6,0,1-0.2,1.4-0.7c0.3-0.4,0.5-1,0.5-1.8c0-0.8-0.2-1.3-0.5-1.8C78.3,17.1,77.8,16.8,77.2,16.8z"/>
	<path class="st0" d="M137.2,17.3c-0.3-0.3-0.7-0.5-1.1-0.5c-0.3,0-0.5,0.1-0.7,0.2c-0.2,0.1-0.4,0.2-0.5,0.4
		c-0.1,0.2-0.3,0.4-0.3,0.6c-0.1,0.2-0.1,0.4-0.2,0.7h3.3C137.7,18.1,137.5,17.7,137.2,17.3z"/>
	<path class="st0" d="M99.8,20.8c0.2,0.2,0.4,0.3,0.6,0.4c0.2,0.1,0.4,0.1,0.7,0.1c0.3,0,0.6,0,0.9-0.1c0.3-0.1,0.5-0.2,0.6-0.3V17
		c-0.1,0-0.3-0.1-0.5-0.1c-0.2,0-0.5,0-0.8,0c-0.6,0-1.1,0.2-1.5,0.6c-0.3,0.4-0.5,1-0.5,1.7c0,0.4,0,0.7,0.1,1
		C99.5,20.4,99.6,20.6,99.8,20.8z"/>
	<path class="st0" d="M107.3,34.8c-0.5,0-1.1,0.3-1.5,0.7c-0.4,0.4-0.5,1-0.5,1.5c0,1.4,0.8,3.7,2.6,3.7c0.5,0,1.1-0.2,1.4-0.6
		c0.5-0.5,0.5-1.1,0.5-1.5C109.9,37.1,109,34.8,107.3,34.8z"/>
	<path class="st0" d="M124,36.3c0-0.8-0.9-1.8-2.1-1.8c-0.8,0-2.4,0.6-2.4,2.9c0,0.4,0,0.7,0.1,1.1l3.8-1.6
		C123.8,36.7,124,36.6,124,36.3z"/>
	<path class="st0" d="M96.9,34.5c-0.7,0-1.4,0.3-1.9,0.7c-0.8,0.7-1,1.6-1,2.5c0,2.1,1,5.4,3.5,5.4c0.8,0,1.6-0.4,2.1-1.1
		c0.5-0.7,0.6-1.5,0.6-2.3C100.4,37.9,99.5,34.5,96.9,34.5z"/>
	<path class="st0" d="M126.2,19.5c-0.2,0-0.4,0-0.6,0c-0.2,0-0.4,0.1-0.6,0.2c-0.2,0.1-0.3,0.2-0.4,0.3c-0.1,0.1-0.2,0.3-0.2,0.6
		c0,0.4,0.1,0.7,0.4,0.9c0.3,0.2,0.6,0.3,1.1,0.3c0.3,0,0.5,0,0.8,0c0.2,0,0.4,0,0.5-0.1v-2c-0.1,0-0.2-0.1-0.4-0.1
		C126.7,19.5,126.5,19.5,126.2,19.5z"/>
	<path class="st0" d="M150,39.6c-0.5,0.3-0.8,0.8-0.8,1.5c0,0.5,0.2,1,0.5,1.2c0.3,0.3,0.8,0.4,1.4,0.4c0.9,0,1.7-0.3,2.2-0.8
		c0.5-0.5,0.8-1.2,0.8-2.2V39l-1.5,0.1C151.4,39.1,150.5,39.3,150,39.6z"/>
	<path class="st0" d="M116.9,17.3c-0.3-0.3-0.7-0.5-1.1-0.5c-0.3,0-0.5,0.1-0.7,0.2c-0.2,0.1-0.4,0.2-0.5,0.4
		c-0.1,0.2-0.3,0.4-0.3,0.6c-0.1,0.2-0.1,0.4-0.2,0.7h3.3C117.3,18.1,117.2,17.7,116.9,17.3z"/>
	<path class="st0" d="M138,35c-1,0-1.8,0.3-2.2,0.8c-0.5,0.6-0.7,1.5-0.7,2.7v0.3c0,1.4,0.2,2.4,0.7,3c0.5,0.6,1.2,0.9,2.2,0.9
		c0.9,0,1.5-0.3,2-1c0.5-0.7,0.7-1.7,0.7-2.9c0-1.2-0.2-2.2-0.7-2.9C139.5,35.4,138.8,35,138,35z"/>
	<path class="st0" d="M181.1,0H8.9C4,0,0,3.9,0,8.8V53c0,4.8,4,8.8,8.9,8.8h172.2c4.9,0,8.9-3.9,8.9-8.8V8.8C190,3.9,186,0,181.1,0z
		 M120.3,12.9l1.2-0.2v8c0,0.2,0,0.4,0.1,0.5c0,0.1,0.1,0.2,0.2,0.3c0.1,0.1,0.2,0.1,0.3,0.2c0.1,0,0.3,0.1,0.5,0.1l-0.2,1
		c-0.7,0-1.3-0.2-1.6-0.5c-0.3-0.3-0.5-0.8-0.5-1.4V12.9z M113,17.8c0.2-0.4,0.4-0.8,0.7-1.1c0.3-0.3,0.6-0.5,1-0.7
		c0.4-0.1,0.7-0.2,1.1-0.2c0.9,0,1.6,0.3,2.1,0.8c0.5,0.6,0.7,1.4,0.7,2.6c0,0.1,0,0.1,0,0.2c0,0.1,0,0.2,0,0.2H114
		c0.1,0.7,0.3,1.2,0.6,1.6c0.4,0.4,0.9,0.5,1.6,0.5c0.4,0,0.8,0,1.1-0.1c0.3-0.1,0.5-0.1,0.6-0.2l0.2,1c-0.1,0.1-0.4,0.2-0.8,0.2
		c-0.4,0.1-0.8,0.1-1.2,0.1c-0.6,0-1.1-0.1-1.5-0.3c-0.4-0.2-0.8-0.4-1-0.7c-0.3-0.3-0.5-0.7-0.6-1.1c-0.1-0.4-0.2-0.9-0.2-1.4
		C112.7,18.7,112.8,18.2,113,17.8z M105.7,16h1.2v3.5c0,0.8,0.1,1.4,0.4,1.7c0.3,0.4,0.7,0.5,1.3,0.5c0.1,0,0.3,0,0.4,0
		c0.1,0,0.3,0,0.4,0c0.1,0,0.2,0,0.3,0c0.1,0,0.2,0,0.2,0V16h1.2v6.5c-0.3,0.1-0.6,0.1-1.1,0.2c-0.4,0.1-1,0.1-1.6,0.1
		c-0.5,0-0.9-0.1-1.3-0.2c-0.4-0.1-0.6-0.4-0.8-0.6c-0.2-0.3-0.4-0.6-0.5-1c-0.1-0.4-0.1-0.8-0.1-1.2V16z M98.2,17.8
		c0.1-0.4,0.4-0.8,0.6-1.1c0.3-0.3,0.6-0.5,1-0.7c0.4-0.2,0.9-0.2,1.4-0.2c0.6,0,1,0,1.5,0.1c0.4,0.1,0.8,0.2,1,0.2v5.9
		c0,1-0.3,1.8-0.8,2.2c-0.5,0.5-1.3,0.7-2.4,0.7c-0.4,0-0.8,0-1.2-0.1c-0.4-0.1-0.7-0.2-1-0.2l0.2-1c0.2,0.1,0.5,0.2,0.9,0.2
		c0.3,0.1,0.7,0.1,1.1,0.1c0.7,0,1.2-0.1,1.5-0.4c0.3-0.3,0.5-0.7,0.5-1.3V22c-0.1,0.1-0.3,0.2-0.6,0.3c-0.3,0.1-0.6,0.2-1,0.2
		c-0.4,0-0.8-0.1-1.1-0.2c-0.4-0.1-0.7-0.3-0.9-0.6c-0.3-0.3-0.5-0.6-0.6-1c-0.2-0.4-0.2-0.9-0.2-1.4C98,18.7,98,18.2,98.2,17.8z
		 M96.5,12.7l0.8,0.8l-1.8,1.8l-0.6-0.5L96.5,12.7z M96.3,16v6.7h-1.2V16H96.3z M92,20.3c-0.2-0.2-0.6-0.4-1.1-0.6
		c-0.3-0.1-0.5-0.2-0.7-0.3c-0.2-0.1-0.4-0.2-0.6-0.4c-0.2-0.1-0.3-0.3-0.4-0.5C89,18.3,89,18,89,17.7c0-0.6,0.2-1.1,0.7-1.4
		c0.4-0.3,1-0.5,1.8-0.5c0.2,0,0.4,0,0.6,0c0.2,0,0.4,0,0.5,0.1c0.2,0,0.3,0.1,0.4,0.1c0.1,0,0.2,0.1,0.3,0.1l-0.2,1
		c-0.1-0.1-0.3-0.1-0.6-0.2c-0.3-0.1-0.6-0.1-1-0.1c-0.3,0-0.6,0.1-0.9,0.2c-0.2,0.1-0.4,0.3-0.4,0.6c0,0.1,0,0.3,0.1,0.4
		c0.1,0.1,0.1,0.2,0.3,0.3c0.1,0.1,0.3,0.2,0.4,0.3c0.2,0.1,0.4,0.2,0.6,0.2c0.3,0.1,0.6,0.2,0.8,0.4c0.2,0.1,0.5,0.3,0.6,0.4
		c0.2,0.2,0.3,0.3,0.4,0.6c0.1,0.2,0.1,0.5,0.1,0.8c0,0.6-0.2,1.1-0.7,1.4c-0.5,0.3-1.1,0.5-2,0.5c-0.6,0-1.1,0-1.4-0.1
		c-0.3-0.1-0.6-0.2-0.7-0.2l0.2-1c0.1,0.1,0.4,0.1,0.7,0.2c0.3,0.1,0.7,0.2,1.2,0.2c0.5,0,0.8-0.1,1.1-0.2c0.2-0.1,0.4-0.3,0.4-0.6
		C92.4,20.7,92.3,20.4,92,20.3z M82,16.1c0.3-0.1,0.6-0.1,1.1-0.2c0.5-0.1,1-0.1,1.6-0.1c0.5,0,1,0.1,1.3,0.2
		c0.4,0.2,0.6,0.4,0.8,0.6c0.2,0.3,0.4,0.6,0.4,1c0.1,0.4,0.1,0.8,0.1,1.2v3.7h-1.2v-3.5c0-0.4,0-0.8-0.1-1.1s-0.1-0.5-0.3-0.7
		c-0.1-0.2-0.3-0.3-0.5-0.4c-0.2-0.1-0.5-0.1-0.8-0.1c-0.1,0-0.3,0-0.4,0c-0.1,0-0.3,0-0.4,0c-0.1,0-0.2,0-0.3,0c-0.1,0-0.2,0-0.2,0
		v5.6H82V16.1z M68.5,17.9c0.1-0.4,0.4-0.8,0.6-1.1c0.3-0.3,0.6-0.6,1-0.7c0.4-0.2,0.8-0.3,1.3-0.3c0.3,0,0.6,0,0.9,0.1
		c0.3,0.1,0.6,0.1,0.9,0.2l-0.3,1c-0.2-0.1-0.4-0.2-0.6-0.2c-0.2-0.1-0.5-0.1-0.8-0.1c-0.7,0-1.2,0.2-1.5,0.6
		c-0.4,0.4-0.5,1-0.5,1.8c0,0.4,0,0.7,0.1,1c0.1,0.3,0.2,0.6,0.4,0.8c0.2,0.2,0.4,0.4,0.7,0.5c0.3,0.1,0.6,0.2,1,0.2
		c0.3,0,0.6,0,0.9-0.1c0.3-0.1,0.5-0.1,0.6-0.2l0.2,1c-0.1,0-0.2,0.1-0.3,0.1c-0.1,0-0.3,0.1-0.4,0.1c-0.2,0-0.3,0.1-0.5,0.1
		c-0.2,0-0.4,0-0.5,0c-0.5,0-1-0.1-1.4-0.3c-0.4-0.2-0.7-0.4-1-0.7c-0.3-0.3-0.5-0.7-0.6-1.1c-0.1-0.4-0.2-0.9-0.2-1.4
		C68.3,18.8,68.4,18.3,68.5,17.9z M35.6,22.1l6.4,3.7l-4.1,4L22.5,14.6C24.8,15.9,35.6,22.1,35.6,22.1z M20.7,46.7c0-0.7,0-16,0-16
		s0-14.1,0-15.6c0-0.2,0-0.3,0.1-0.5L37,30.7L20.7,46.9C20.7,46.8,20.7,46.7,20.7,46.7z M35.6,39.3c0,0-10.2,5.9-13,7.5l15.4-15.2
		l4.1,4L35.6,39.3z M49.2,31.4c-0.6,0.4-4.6,2.7-6.1,3.5l-4.3-4.3l4.3-4.3c1.5,0.9,5.6,3.3,6.2,3.6C49.9,30.4,50,31,49.2,31.4z
		 M79.5,39.6c-0.1,0.1-0.2,0.2-0.2,0.3c0,0.2,0,0.8,0,1v2.5l-3,0.7c-1.2,0.2-2.3,0.4-3.4,0.4c-5.8,0-8-4.2-8-7.6
		c0-4.1,3.1-7.8,8.4-7.8c1.1,0,2.2,0.2,3.2,0.4c1.6,0.4,2.3,1,2.8,1.3l-1.7,1.7l-0.7,0.2l0.5-0.8c-0.7-0.7-2-2-4.5-2
		c-3.3,0-5.8,2.5-5.8,6.2c0,3.9,2.8,7.6,7.4,7.6c1.3,0,2-0.3,2.7-0.5v-3.4l-3.2,0.2l1.7-0.9H80L79.5,39.6z M80.1,20.7
		c-0.2,0.4-0.4,0.8-0.6,1.1c-0.3,0.3-0.6,0.5-1,0.7c-0.4,0.2-0.8,0.2-1.3,0.2c-0.5,0-0.9-0.1-1.3-0.2c-0.4-0.2-0.7-0.4-1-0.7
		c-0.3-0.3-0.5-0.7-0.6-1.1c-0.2-0.4-0.2-0.9-0.2-1.4c0-0.5,0.1-1,0.2-1.4c0.2-0.4,0.4-0.8,0.6-1.1c0.3-0.3,0.6-0.5,1-0.7
		c0.4-0.2,0.8-0.2,1.3-0.2c0.5,0,0.9,0.1,1.3,0.2c0.4,0.2,0.7,0.4,1,0.7c0.3,0.3,0.5,0.7,0.6,1.1c0.2,0.4,0.2,0.9,0.2,1.4
		C80.3,19.8,80.3,20.3,80.1,20.7z M85.9,43.8c-3.3,0-5.1-2.6-5.1-4.9c0-2.7,2.2-5,5.4-5c3.1,0,5,2.4,5,4.9
		C91.2,41.2,89.3,43.8,85.9,43.8z M97.2,43.8c-3.3,0-5.1-2.6-5.1-4.9c0-2.7,2.2-5,5.4-5c3.1,0,5,2.4,5,4.9
		C102.4,41.2,100.5,43.8,97.2,43.8z M111.7,37.7c0,1.5-0.9,2.3-1.7,3c-0.3,0.3-0.6,0.6-0.6,1c0,0.5,0.3,0.7,0.5,0.9l0.7,0.6
		c0.9,0.8,1.7,1.5,1.7,2.9c0,2-1.9,3.9-5.5,3.9c-3,0-4.5-1.4-4.5-3c0-0.7,0.4-1.8,1.6-2.5c1.3-0.8,3-0.9,4-1
		c-0.3-0.4-0.6-0.8-0.6-1.4c0-0.4,0.1-0.6,0.2-0.8c-0.2,0-0.5,0-0.7,0c-2.2,0-3.5-1.6-3.5-3.3c0-1,0.4-2,1.3-2.8
		c1.2-1,2.6-1.1,3.7-1.1h4.3l-1.3,0.7h-1.3C110.7,35.3,111.7,36.1,111.7,37.7z M117.2,43.4h-3.7c0.5-0.6,0.6-0.7,0.6-1.1v-0.7V29.4
		l0,0v0h-1.6l1.6-0.8h3c-0.6,0.4-0.9,0.5-0.9,1.2c0,0,0,0.1,0,0.1v11.6v0.2c0,0.8,0.1,0.9,0.8,1c0.4,0,0.7,0.1,1.1,0.1L117.2,43.4z
		 M125.4,43c-0.2,0.1-0.5,0.3-0.7,0.4c-0.7,0.3-1.4,0.4-2,0.4c-0.7,0-1.7,0-2.8-0.8c-1.5-1-2.1-2.8-2.1-4.4c0-3.2,2.6-4.8,4.8-4.8
		c0.7,0,1.5,0.2,2.1,0.6c1,0.7,1.3,1.6,1.5,2.1l-4.9,2l-1.6,0.1c0.5,2.6,2.3,4.2,4.3,4.2c1.1,0,1.8-0.4,2.5-0.7L125.4,43z M127.8,34
		h-0.5v1.4h-0.2V34h-0.5v-0.1h1.1V34z M127.5,22.7c-0.2,0-0.5,0.1-0.7,0.1c-0.3,0-0.5,0-0.8,0c-0.4,0-0.7,0-1-0.1
		c-0.3-0.1-0.6-0.2-0.8-0.4c-0.2-0.2-0.4-0.4-0.5-0.7c-0.1-0.3-0.2-0.6-0.2-1c0-0.4,0.1-0.7,0.2-0.9c0.1-0.3,0.4-0.5,0.6-0.6
		c0.3-0.2,0.6-0.3,0.9-0.4c0.3-0.1,0.7-0.1,1.1-0.1c0.1,0,0.2,0,0.4,0c0.1,0,0.3,0,0.4,0.1c0.1,0,0.2,0,0.3,0.1c0.1,0,0.1,0,0.2,0
		v-0.3c0-0.2,0-0.4-0.1-0.6c0-0.2-0.1-0.4-0.2-0.5c-0.1-0.1-0.3-0.3-0.5-0.4c-0.2-0.1-0.4-0.1-0.8-0.1c-0.4,0-0.7,0-1,0.1
		c-0.3,0.1-0.5,0.1-0.7,0.2l-0.1-1c0.2-0.1,0.4-0.1,0.8-0.2c0.4-0.1,0.7-0.1,1.2-0.1c0.5,0,0.9,0.1,1.2,0.2c0.3,0.1,0.6,0.3,0.8,0.5
		c0.2,0.2,0.3,0.5,0.4,0.8c0.1,0.3,0.1,0.7,0.1,1v4.2c-0.1,0-0.2,0-0.4,0.1C127.9,22.6,127.7,22.6,127.5,22.7z M129.4,35.3h-0.1V34
		h0l-0.4,1.4h-0.1l-0.4-1.4h0v1.4h-0.2v-1.5h0.3l0.4,1.2h0l0.4-1.2h0.3V35.3z M133.1,19.3c0-0.6,0.1-1.1,0.3-1.5
		c0.2-0.4,0.4-0.8,0.7-1.1c0.3-0.3,0.6-0.5,1-0.7c0.4-0.1,0.7-0.2,1.1-0.2c0.9,0,1.6,0.3,2.1,0.8c0.5,0.6,0.7,1.4,0.7,2.6
		c0,0.1,0,0.1,0,0.2c0,0.1,0,0.2,0,0.2h-4.6c0.1,0.7,0.3,1.2,0.6,1.6c0.4,0.4,0.9,0.5,1.6,0.5c0.4,0,0.8,0,1.1-0.1
		c0.3-0.1,0.5-0.1,0.6-0.2l0.2,1c-0.1,0.1-0.4,0.2-0.8,0.2c-0.4,0.1-0.8,0.1-1.2,0.1c-0.6,0-1.1-0.1-1.5-0.3c-0.4-0.2-0.8-0.4-1-0.7
		c-0.3-0.3-0.5-0.7-0.6-1.1C133.1,20.3,133.1,19.8,133.1,19.3z M141.2,42.7c-0.7,0.9-1.7,1.4-3,1.4c-0.6,0-1.2-0.1-1.8-0.4
		c-0.5-0.2-1-0.6-1.3-1.1h-0.1c0.1,0.6,0.1,1.1,0.1,1.7v4.1h-1.5V33.9h1.2l0.2,1.4h0.1c0.4-0.5,0.8-0.9,1.4-1.2
		c0.5-0.2,1.1-0.4,1.8-0.4c1.3,0,2.3,0.5,3.1,1.4c0.7,0.9,1.1,2.2,1.1,3.8C142.3,40.5,141.9,41.8,141.2,42.7z M145.8,43.9h-1.5V29.8
		h1.5V43.9z M146,22.6h-1.2v-3.5c0-0.4,0-0.8-0.1-1.1c-0.1-0.3-0.1-0.5-0.3-0.7c-0.1-0.2-0.3-0.3-0.5-0.4c-0.2-0.1-0.5-0.1-0.8-0.1
		c-0.1,0-0.3,0-0.4,0c-0.1,0-0.3,0-0.4,0c-0.1,0-0.2,0-0.3,0c-0.1,0-0.2,0-0.2,0v5.6h-1.2v-6.5c0.3-0.1,0.6-0.1,1.1-0.2
		c0.5-0.1,1-0.1,1.6-0.1c0.5,0,1,0.1,1.3,0.2c0.4,0.2,0.6,0.4,0.8,0.6c0.2,0.3,0.4,0.6,0.4,1c0.1,0.4,0.1,0.8,0.1,1.2V22.6z
		 M155.6,43.9h-1.1l-0.3-1.4h-0.1c-0.5,0.6-1,1-1.5,1.3c-0.5,0.2-1.1,0.3-1.8,0.3c-1,0-1.8-0.3-2.3-0.8c-0.6-0.5-0.8-1.2-0.8-2.2
		c0-2,1.6-3.1,4.8-3.2l1.7-0.1v-0.6c0-0.8-0.2-1.4-0.5-1.7c-0.3-0.4-0.9-0.6-1.6-0.6c-0.8,0-1.8,0.3-2.8,0.8l-0.5-1.2
		c0.5-0.3,1-0.5,1.6-0.6c0.6-0.2,1.2-0.2,1.8-0.2c1.2,0,2.1,0.3,2.6,0.8c0.6,0.5,0.9,1.4,0.9,2.5V43.9z M161.5,45.3
		c-0.4,1.1-0.9,1.9-1.5,2.4c-0.6,0.5-1.3,0.7-2.1,0.7c-0.5,0-0.9-0.1-1.4-0.2V47c0.3,0.1,0.7,0.1,1.1,0.1c1,0,1.8-0.6,2.2-1.7
		l0.6-1.4l-4-10h1.6l2.2,5.7c0.5,1.3,0.8,2.2,0.9,2.8h0.1c0.1-0.3,0.2-0.8,0.5-1.6c0.3-0.7,1.1-3,2.5-6.9h1.6L161.5,45.3z"/>
</g>
</svg>
