<?xml version="1.0" encoding="utf-8"?>
<!-- Generator: Adobe Illustrator 19.0.0, SVG Export Plug-In . SVG Version: 6.00 Build 0)  -->
<svg version="1.1" id="Layer_1" xmlns="http://www.w3.org/2000/svg" xmlns:xlink="http://www.w3.org/1999/xlink" x="0px" y="0px"
	 viewBox="0 0 190 61.7" style="enable-background:new 0 0 190 61.7;" xml:space="preserve">
<style type="text/css">
	.st0{fill:#212121;}
	.st1{clip-path:url(#SVGID_1_);}
</style>
<g>
	<g>
		<path class="st0" d="M181.1,61.7H8.9C4,61.7,0,57.8,0,53V8.8C0,3.9,4,0,8.9,0h172.2c4.9,0,8.9,3.9,8.9,8.8V53
			C190,57.8,186,61.7,181.1,61.7z M8.9,1.1c-4.3,0-7.8,3.4-7.8,7.6V53c0,4.2,3.5,7.6,7.8,7.6h172.2c4.3,0,7.8-3.4,7.8-7.6V8.8
			c0-4.2-3.5-7.6-7.8-7.6H8.9z"/>
	</g>
	<g>
		<g id="PLAY_3_">
			<defs>
				<path id="SVGID_3_" d="M42.5,26.1l-7-4c0,0-12.7-7.3-13.4-7.8c-0.7-0.4-1.5-0.2-1.5,0.7c0,1.5,0,15.6,0,15.6s0,15.3,0,16
					c0,0.7,0.5,1,1.2,0.6c0.6-0.4,13.7-7.9,13.7-7.9l7-4c0,0,5.9-3.4,6.7-3.9c0.8-0.5,0.7-1.1,0-1.4C48.6,29.6,42.5,26.1,42.5,26.1z
					"/>
			</defs>
			<use xlink:href="#SVGID_3_"  style="overflow:visible;fill:#212121;"/>
			<clipPath id="SVGID_1_">
				<use xlink:href="#SVGID_3_"  style="overflow:visible;"/>
			</clipPath>
			<g class="st1">
				<polygon class="st0" points="19.8,47.8 37,30.7 19.8,13.6 19.8,30.7 				"/>
			</g>
			<g class="st1">
				<polygon class="st0" points="20.7,12.7 37.9,29.8 42.5,25.2 35.6,21.2 20.7,12.6 				"/>
			</g>
			<g class="st1">
				<polygon class="st0" points="20.7,48.7 20.7,48.8 35.6,40.2 42.5,36.2 37.9,31.6 				"/>
			</g>
			<g class="st1">
				<polygon class="st0" points="43.5,35.3 51.4,30.7 43.5,26.1 38.8,30.7 				"/>
			</g>
		</g>
		<g>
			<g>
				<g>
					<g>
						<path class="st0" d="M138.2,44.1c-0.6,0-1.2-0.1-1.8-0.4c-0.5-0.2-1-0.6-1.3-1.1h-0.1c0.1,0.6,0.1,1.1,0.1,1.7v4.1h-1.5V33.9
							h1.2l0.2,1.4h0.1c0.4-0.5,0.8-0.9,1.4-1.2c0.5-0.2,1.1-0.4,1.8-0.4c1.3,0,2.3,0.5,3.1,1.4c0.7,0.9,1.1,2.2,1.1,3.8
							c0,1.6-0.4,2.9-1.1,3.8C140.5,43.6,139.5,44.1,138.2,44.1z M138,35c-1,0-1.8,0.3-2.2,0.8c-0.5,0.6-0.7,1.5-0.7,2.7v0.3
							c0,1.4,0.2,2.4,0.7,3c0.5,0.6,1.2,0.9,2.2,0.9c0.9,0,1.5-0.3,2-1c0.5-0.7,0.7-1.7,0.7-2.9c0-1.2-0.2-2.2-0.7-2.9
							C139.5,35.4,138.8,35,138,35z"/>
					</g>
					<g>
						<path class="st0" d="M145.8,43.9h-1.5V29.8h1.5V43.9z"/>
					</g>
					<g>
						<path class="st0" d="M154.5,43.9l-0.3-1.4h-0.1c-0.5,0.6-1,1-1.5,1.3c-0.5,0.2-1.1,0.3-1.8,0.3c-1,0-1.8-0.3-2.3-0.8
							s-0.8-1.2-0.8-2.2c0-2,1.6-3.1,4.8-3.2l1.7-0.1v-0.6c0-0.8-0.2-1.4-0.5-1.7c-0.3-0.4-0.9-0.6-1.6-0.6c-0.8,0-1.8,0.3-2.8,0.8
							l-0.5-1.2c0.5-0.3,1-0.5,1.6-0.6c0.6-0.2,1.2-0.2,1.8-0.2c1.2,0,2.1,0.3,2.6,0.8c0.6,0.5,0.9,1.4,0.9,2.5v6.8H154.5z
							 M151.1,42.8c0.9,0,1.7-0.3,2.2-0.8c0.5-0.5,0.8-1.2,0.8-2.2V39l-1.5,0.1c-1.2,0-2.1,0.2-2.6,0.6c-0.5,0.3-0.8,0.8-0.8,1.5
							c0,0.5,0.2,1,0.5,1.2C150,42.7,150.5,42.8,151.1,42.8z"/>
					</g>
					<g>
						<path class="st0" d="M156.5,33.9h1.6l2.2,5.7c0.5,1.3,0.8,2.2,0.9,2.8h0.1c0.1-0.3,0.2-0.8,0.5-1.6c0.3-0.7,1.1-3,2.5-6.9h1.6
							l-4.3,11.3c-0.4,1.1-0.9,1.9-1.5,2.4c-0.6,0.5-1.3,0.7-2.1,0.7c-0.5,0-0.9-0.1-1.4-0.2V47c0.3,0.1,0.7,0.1,1.1,0.1
							c1,0,1.8-0.6,2.2-1.7l0.6-1.4L156.5,33.9z"/>
					</g>
				</g>
				<g>
					<g>
						<path class="st0" d="M110.3,34.9c0.5,0.4,1.5,1.2,1.5,2.8c0,1.5-0.9,2.3-1.7,3c-0.3,0.3-0.6,0.6-0.6,1c0,0.5,0.3,0.7,0.5,0.9
							l0.7,0.6c0.9,0.8,1.7,1.5,1.7,2.9c0,2-1.9,3.9-5.5,3.9c-3,0-4.5-1.4-4.5-3c0-0.7,0.4-1.8,1.6-2.5c1.3-0.8,3-0.9,4-1
							c-0.3-0.4-0.6-0.8-0.6-1.4c0-0.4,0.1-0.6,0.2-0.8c-0.2,0-0.5,0-0.7,0c-2.2,0-3.5-1.6-3.5-3.3c0-1,0.4-2,1.3-2.8
							c1.2-1,2.6-1.1,3.7-1.1h4.3l-1.3,0.7H110.3z M108.8,44.1c-0.2,0-0.3,0-0.5,0c-0.2,0-1.3,0-2.2,0.3c-0.5,0.2-1.8,0.7-1.8,2.1
							c0,1.5,1.4,2.5,3.7,2.5c2,0,3.1-1,3.1-2.2C111.1,45.8,110.4,45.2,108.8,44.1z M109.4,40.1c0.5-0.5,0.5-1.1,0.5-1.5
							c0-1.5-0.9-3.8-2.6-3.8c-0.5,0-1.1,0.3-1.5,0.7c-0.4,0.4-0.5,1-0.5,1.5c0,1.4,0.8,3.7,2.6,3.7
							C108.5,40.7,109.1,40.5,109.4,40.1z"/>
					</g>
					<g>
						<path class="st0" d="M97.2,43.8c-3.3,0-5.1-2.6-5.1-4.9c0-2.7,2.2-5,5.4-5c3.1,0,5,2.4,5,4.9C102.4,41.2,100.5,43.8,97.2,43.8
							z M99.8,42.1c0.5-0.7,0.6-1.5,0.6-2.3c0-1.8-0.9-5.3-3.4-5.3c-0.7,0-1.4,0.3-1.9,0.7c-0.8,0.7-1,1.6-1,2.5
							c0,2.1,1,5.4,3.5,5.4C98.5,43.1,99.3,42.8,99.8,42.1z"/>
					</g>
					<g>
						<path class="st0" d="M85.9,43.8c-3.3,0-5.1-2.6-5.1-4.9c0-2.7,2.2-5,5.4-5c3.1,0,5,2.4,5,4.9C91.2,41.2,89.3,43.8,85.9,43.8z
							 M88.5,42.1c0.5-0.7,0.6-1.5,0.6-2.3c0-1.8-0.9-5.3-3.4-5.3c-0.7,0-1.4,0.3-1.9,0.7c-0.8,0.7-1,1.6-1,2.5c0,2.1,1,5.4,3.5,5.4
							C87.2,43.1,88,42.8,88.5,42.1z"/>
					</g>
					<g>
						<path class="st0" d="M79.2,43.4l-3,0.7c-1.2,0.2-2.3,0.4-3.4,0.4c-5.8,0-8-4.2-8-7.6c0-4.1,3.1-7.8,8.4-7.8
							c1.1,0,2.2,0.2,3.2,0.4c1.6,0.4,2.3,1,2.8,1.3l-1.7,1.7l-0.7,0.2l0.5-0.8c-0.7-0.7-2-2-4.5-2c-3.3,0-5.8,2.5-5.8,6.2
							c0,3.9,2.8,7.6,7.4,7.6c1.3,0,2-0.3,2.7-0.5v-3.4l-3.2,0.2l1.7-0.9H80l-0.5,0.5c-0.1,0.1-0.2,0.2-0.2,0.3c0,0.2,0,0.8,0,1
							V43.4z"/>
					</g>
					<g>
						<path class="st0" d="M116.9,42.8c-0.7-0.1-0.8-0.2-0.8-1v-0.2V30c0,0,0-0.1,0-0.1c0.1-0.7,0.3-0.9,0.9-1.2h-3l-1.6,0.8h1.6v0
							l0,0v12.2v0.7c0,0.4-0.1,0.5-0.6,1.1h3.7l0.8-0.5C117.6,42.9,117.2,42.9,116.9,42.8z"/>
					</g>
					<g>
						<path class="st0" d="M125.4,43c-0.2,0.1-0.5,0.3-0.7,0.4c-0.7,0.3-1.4,0.4-2,0.4c-0.7,0-1.7,0-2.8-0.8c-1.5-1-2.1-2.8-2.1-4.4
							c0-3.2,2.6-4.8,4.8-4.8c0.7,0,1.5,0.2,2.1,0.6c1,0.7,1.3,1.6,1.5,2.1l-4.9,2l-1.6,0.1c0.5,2.6,2.3,4.2,4.3,4.2
							c1.1,0,1.8-0.4,2.5-0.7L125.4,43z M123.4,36.9c0.4-0.1,0.6-0.3,0.6-0.6c0-0.8-0.9-1.8-2.1-1.8c-0.8,0-2.4,0.6-2.4,2.9
							c0,0.4,0,0.7,0.1,1.1L123.4,36.9z"/>
					</g>
					<g>
						<g>
							<path class="st0" d="M127.4,34v1.4h-0.2V34h-0.5v-0.1h1.1V34H127.4z"/>
						</g>
						<g>
							<path class="st0" d="M129.2,35.3V34h0l-0.4,1.4h-0.1l-0.4-1.4h0v1.4h-0.2v-1.5h0.3l0.4,1.2h0l0.4-1.2h0.3v1.5H129.2z"/>
						</g>
					</g>
				</g>
			</g>
			<g>
				<g>
					<path class="st0" d="M71.6,22.8c-0.5,0-1-0.1-1.4-0.3c-0.4-0.2-0.7-0.4-1-0.7c-0.3-0.3-0.5-0.7-0.6-1.1
						c-0.1-0.4-0.2-0.9-0.2-1.4c0-0.5,0.1-1,0.2-1.4c0.1-0.4,0.4-0.8,0.6-1.1c0.3-0.3,0.6-0.6,1-0.7c0.4-0.2,0.8-0.3,1.3-0.3
						c0.3,0,0.6,0,0.9,0.1c0.3,0.1,0.6,0.1,0.9,0.2l-0.3,1c-0.2-0.1-0.4-0.2-0.6-0.2c-0.2-0.1-0.5-0.1-0.8-0.1
						c-0.7,0-1.2,0.2-1.5,0.6c-0.4,0.4-0.5,1-0.5,1.8c0,0.4,0,0.7,0.1,1c0.1,0.3,0.2,0.6,0.4,0.8c0.2,0.2,0.4,0.4,0.7,0.5
						c0.3,0.1,0.6,0.2,1,0.2c0.3,0,0.6,0,0.9-0.1c0.3-0.1,0.5-0.1,0.6-0.2l0.2,1c-0.1,0-0.2,0.1-0.3,0.1c-0.1,0-0.3,0.1-0.4,0.1
						c-0.2,0-0.3,0.1-0.5,0.1C71.9,22.8,71.7,22.8,71.6,22.8z"/>
				</g>
				<g>
					<path class="st0" d="M80.3,19.3c0,0.5-0.1,1-0.2,1.4c-0.2,0.4-0.4,0.8-0.6,1.1c-0.3,0.3-0.6,0.5-1,0.7
						c-0.4,0.2-0.8,0.3-1.3,0.3s-0.9-0.1-1.3-0.3c-0.4-0.2-0.7-0.4-1-0.7c-0.3-0.3-0.5-0.7-0.6-1.1c-0.2-0.4-0.2-0.9-0.2-1.4
						c0-0.5,0.1-1,0.2-1.4c0.2-0.4,0.4-0.8,0.6-1.1c0.3-0.3,0.6-0.5,1-0.7c0.4-0.2,0.8-0.2,1.3-0.2s0.9,0.1,1.3,0.2
						c0.4,0.2,0.7,0.4,1,0.7c0.3,0.3,0.5,0.7,0.6,1.1C80.3,18.3,80.3,18.8,80.3,19.3z M79.1,19.3c0-0.8-0.2-1.3-0.5-1.8
						c-0.3-0.4-0.8-0.7-1.4-0.7c-0.6,0-1,0.2-1.4,0.7c-0.3,0.4-0.5,1-0.5,1.8c0,0.8,0.2,1.3,0.5,1.8c0.3,0.4,0.8,0.7,1.4,0.7
						c0.6,0,1-0.2,1.4-0.7C78.9,20.6,79.1,20,79.1,19.3z"/>
				</g>
				<g>
					<path class="st0" d="M82,16.1c0.3-0.1,0.6-0.1,1.1-0.2c0.5-0.1,1-0.1,1.6-0.1c0.5,0,1,0.1,1.3,0.2c0.4,0.2,0.6,0.4,0.8,0.6
						c0.2,0.3,0.4,0.6,0.4,1c0.1,0.4,0.1,0.8,0.1,1.2v3.7h-1.2v-3.5c0-0.4,0-0.8-0.1-1.1c-0.1-0.3-0.1-0.5-0.3-0.7
						c-0.1-0.2-0.3-0.3-0.5-0.4c-0.2-0.1-0.5-0.1-0.8-0.1c-0.1,0-0.3,0-0.4,0c-0.1,0-0.3,0-0.4,0c-0.1,0-0.2,0-0.3,0
						c-0.1,0-0.2,0-0.2,0v5.6H82V16.1z"/>
				</g>
				<g>
					<path class="st0" d="M90.9,21.8c0.5,0,0.8-0.1,1.1-0.2c0.2-0.1,0.4-0.3,0.4-0.6c0-0.3-0.1-0.5-0.3-0.7
						c-0.2-0.2-0.6-0.4-1.1-0.6c-0.3-0.1-0.5-0.2-0.7-0.3c-0.2-0.1-0.4-0.2-0.6-0.4c-0.2-0.1-0.3-0.3-0.4-0.5C89,18.3,89,18,89,17.7
						c0-0.6,0.2-1.1,0.7-1.4c0.4-0.3,1-0.5,1.8-0.5c0.2,0,0.4,0,0.6,0c0.2,0,0.4,0,0.5,0.1c0.2,0,0.3,0.1,0.4,0.1
						c0.1,0,0.2,0.1,0.3,0.1l-0.2,1c-0.1-0.1-0.3-0.1-0.6-0.2c-0.3-0.1-0.6-0.1-1-0.1c-0.3,0-0.6,0.1-0.9,0.2
						c-0.2,0.1-0.4,0.3-0.4,0.6c0,0.1,0,0.3,0.1,0.4c0.1,0.1,0.1,0.2,0.3,0.3c0.1,0.1,0.3,0.2,0.4,0.3c0.2,0.1,0.4,0.2,0.6,0.2
						c0.3,0.1,0.6,0.2,0.8,0.4c0.2,0.1,0.5,0.3,0.6,0.4c0.2,0.2,0.3,0.3,0.4,0.6c0.1,0.2,0.1,0.5,0.1,0.8c0,0.6-0.2,1.1-0.7,1.4
						c-0.5,0.3-1.1,0.5-2,0.5c-0.6,0-1.1,0-1.4-0.1c-0.3-0.1-0.6-0.2-0.7-0.2l0.2-1c0.1,0.1,0.4,0.1,0.7,0.2
						C90,21.7,90.4,21.8,90.9,21.8z"/>
				</g>
				<g>
					<path class="st0" d="M97.3,13.4l-1.8,1.8l-0.6-0.5l1.6-2L97.3,13.4z M96.3,22.6h-1.2V16h1.2V22.6z"/>
				</g>
				<g>
					<path class="st0" d="M102.5,22c-0.1,0.1-0.3,0.2-0.6,0.3c-0.3,0.1-0.6,0.2-1,0.2c-0.4,0-0.8-0.1-1.1-0.2
						c-0.4-0.1-0.7-0.3-0.9-0.6c-0.3-0.3-0.5-0.6-0.6-1c-0.2-0.4-0.2-0.9-0.2-1.4c0-0.5,0.1-0.9,0.2-1.3c0.1-0.4,0.4-0.8,0.6-1.1
						c0.3-0.3,0.6-0.5,1-0.7c0.4-0.2,0.9-0.2,1.4-0.2c0.6,0,1,0,1.5,0.1c0.4,0.1,0.8,0.2,1,0.2v5.9c0,1-0.3,1.8-0.8,2.2
						c-0.5,0.5-1.3,0.7-2.4,0.7c-0.4,0-0.8,0-1.2-0.1c-0.4-0.1-0.7-0.2-1-0.2l0.2-1c0.2,0.1,0.5,0.2,0.9,0.3
						c0.3,0.1,0.7,0.1,1.1,0.1c0.7,0,1.2-0.1,1.5-0.4c0.3-0.3,0.5-0.7,0.5-1.3V22z M102.5,17c-0.1,0-0.3-0.1-0.5-0.1
						c-0.2,0-0.5,0-0.8,0c-0.6,0-1.1,0.2-1.5,0.6c-0.3,0.4-0.5,1-0.5,1.7c0,0.4,0.1,0.7,0.1,1c0.1,0.3,0.2,0.5,0.4,0.7
						c0.2,0.2,0.4,0.3,0.6,0.4c0.2,0.1,0.4,0.1,0.7,0.1c0.3,0,0.6,0,0.9-0.1c0.3-0.1,0.5-0.2,0.6-0.3V17z"/>
				</g>
				<g>
					<path class="st0" d="M111.1,22.4c-0.3,0.1-0.6,0.1-1.1,0.2c-0.4,0.1-1,0.1-1.6,0.1c-0.5,0-0.9-0.1-1.3-0.2
						c-0.4-0.1-0.6-0.4-0.8-0.6c-0.2-0.3-0.4-0.6-0.5-1c-0.1-0.4-0.1-0.8-0.1-1.2V16h1.2v3.5c0,0.8,0.1,1.4,0.4,1.7
						c0.3,0.4,0.7,0.5,1.3,0.5c0.1,0,0.3,0,0.4,0s0.3,0,0.4,0c0.1,0,0.2,0,0.3,0c0.1,0,0.2,0,0.2,0V16h1.2V22.4z"/>
				</g>
				<g>
					<path class="st0" d="M112.7,19.3c0-0.6,0.1-1.1,0.3-1.5c0.2-0.4,0.4-0.8,0.7-1.1c0.3-0.3,0.6-0.5,1-0.7
						c0.4-0.1,0.7-0.2,1.1-0.2c0.9,0,1.6,0.3,2.1,0.8c0.5,0.6,0.7,1.4,0.7,2.6c0,0.1,0,0.1,0,0.2c0,0.1,0,0.2,0,0.2H114
						c0.1,0.7,0.3,1.2,0.6,1.6c0.4,0.4,0.9,0.5,1.6,0.5c0.4,0,0.8,0,1.1-0.1c0.3-0.1,0.5-0.1,0.6-0.2l0.2,1
						c-0.1,0.1-0.4,0.2-0.8,0.2c-0.4,0.1-0.8,0.1-1.2,0.1c-0.6,0-1.1-0.1-1.5-0.3c-0.4-0.2-0.8-0.4-1-0.7c-0.3-0.3-0.5-0.7-0.6-1.1
						C112.8,20.3,112.7,19.8,112.7,19.3z M117.3,18.6c0-0.5-0.1-1-0.4-1.3c-0.3-0.3-0.7-0.5-1.1-0.5c-0.3,0-0.5,0.1-0.7,0.2
						c-0.2,0.1-0.4,0.2-0.5,0.4c-0.1,0.2-0.3,0.4-0.3,0.6c-0.1,0.2-0.1,0.4-0.2,0.7H117.3z"/>
				</g>
				<g>
					<path class="st0" d="M122.3,22.8c-0.7,0-1.3-0.2-1.6-0.5c-0.3-0.3-0.5-0.8-0.5-1.4v-8l1.2-0.2v8c0,0.2,0,0.4,0.1,0.5
						c0,0.1,0.1,0.2,0.2,0.3c0.1,0.1,0.2,0.1,0.3,0.2c0.1,0,0.3,0.1,0.5,0.1L122.3,22.8z"/>
				</g>
				<g>
					<path class="st0" d="M125.9,15.8c0.5,0,0.9,0.1,1.2,0.2c0.3,0.1,0.6,0.3,0.8,0.5c0.2,0.2,0.3,0.5,0.4,0.8
						c0.1,0.3,0.1,0.7,0.1,1v4.2c-0.1,0-0.2,0-0.4,0.1c-0.2,0-0.4,0.1-0.6,0.1c-0.2,0-0.5,0-0.7,0.1c-0.3,0-0.5,0-0.8,0
						c-0.4,0-0.7,0-1-0.1c-0.3-0.1-0.6-0.2-0.8-0.4c-0.2-0.2-0.4-0.4-0.5-0.7c-0.1-0.3-0.2-0.6-0.2-1c0-0.4,0.1-0.7,0.2-0.9
						c0.1-0.3,0.4-0.5,0.6-0.6c0.3-0.2,0.6-0.3,0.9-0.4c0.3-0.1,0.7-0.1,1.1-0.1c0.1,0,0.2,0,0.4,0c0.1,0,0.3,0,0.4,0.1
						c0.1,0,0.2,0,0.3,0.1c0.1,0,0.1,0,0.2,0v-0.3c0-0.2,0-0.4-0.1-0.6c0-0.2-0.1-0.4-0.2-0.5c-0.1-0.2-0.3-0.3-0.5-0.4
						c-0.2-0.1-0.4-0.1-0.8-0.1c-0.4,0-0.7,0-1,0.1c-0.3,0.1-0.5,0.1-0.7,0.2l-0.1-1c0.2-0.1,0.4-0.1,0.8-0.2
						C125.1,15.8,125.5,15.8,125.9,15.8z M126,21.8c0.3,0,0.5,0,0.8,0c0.2,0,0.4,0,0.5-0.1v-2c-0.1,0-0.2-0.1-0.4-0.1
						c-0.2,0-0.4,0-0.7,0c-0.2,0-0.4,0-0.6,0c-0.2,0-0.4,0.1-0.6,0.2c-0.2,0.1-0.3,0.2-0.4,0.3c-0.1,0.1-0.2,0.3-0.2,0.6
						c0,0.4,0.1,0.7,0.4,0.9C125.2,21.7,125.6,21.8,126,21.8z"/>
				</g>
				<g>
					<path class="st0" d="M133.1,19.3c0-0.6,0.1-1.1,0.3-1.5c0.2-0.4,0.4-0.8,0.7-1.1c0.3-0.3,0.6-0.5,1-0.7
						c0.4-0.1,0.7-0.2,1.1-0.2c0.9,0,1.6,0.3,2.1,0.8c0.5,0.6,0.7,1.4,0.7,2.6c0,0.1,0,0.1,0,0.2c0,0.1,0,0.2,0,0.2h-4.6
						c0.1,0.7,0.3,1.2,0.6,1.6c0.4,0.4,0.9,0.5,1.6,0.5c0.4,0,0.8,0,1.1-0.1c0.3-0.1,0.5-0.1,0.6-0.2l0.2,1
						c-0.1,0.1-0.4,0.2-0.8,0.2c-0.4,0.1-0.8,0.1-1.2,0.1c-0.6,0-1.1-0.1-1.5-0.3c-0.4-0.2-0.8-0.4-1-0.7c-0.3-0.3-0.5-0.7-0.6-1.1
						C133.1,20.3,133.1,19.8,133.1,19.3z M137.7,18.6c0-0.5-0.1-1-0.4-1.3c-0.3-0.3-0.7-0.5-1.1-0.5c-0.3,0-0.5,0.1-0.7,0.2
						c-0.2,0.1-0.4,0.2-0.5,0.4c-0.1,0.2-0.3,0.4-0.3,0.6c-0.1,0.2-0.1,0.4-0.2,0.7H137.7z"/>
				</g>
				<g>
					<path class="st0" d="M140.6,16.1c0.3-0.1,0.6-0.1,1.1-0.2c0.5-0.1,1-0.1,1.6-0.1c0.5,0,1,0.1,1.3,0.2c0.4,0.2,0.6,0.4,0.8,0.6
						c0.2,0.3,0.4,0.6,0.4,1c0.1,0.4,0.1,0.8,0.1,1.2v3.7h-1.2v-3.5c0-0.4,0-0.8-0.1-1.1c-0.1-0.3-0.1-0.5-0.3-0.7
						c-0.1-0.2-0.3-0.3-0.5-0.4c-0.2-0.1-0.5-0.1-0.8-0.1c-0.1,0-0.3,0-0.4,0c-0.1,0-0.3,0-0.4,0c-0.1,0-0.2,0-0.3,0
						c-0.1,0-0.2,0-0.2,0v5.6h-1.2V16.1z"/>
				</g>
			</g>
		</g>
	</g>
</g>
</svg>
