<?xml version="1.0" encoding="utf-8"?>
<!-- Generator: Adobe Illustrator 19.0.0, SVG Export Plug-In . SVG Version: 6.00 Build 0)  -->
<svg version="1.1" id="Layer_1" xmlns="http://www.w3.org/2000/svg" xmlns:xlink="http://www.w3.org/1999/xlink" x="0px" y="0px"
	 viewBox="0 0 302.2 162" style="enable-background:new 0 0 302.2 162;" xml:space="preserve">
<style type="text/css">
	.st0{fill:none;}
	.st1{fill:#FFFFFF;}
	.st2{fill:#F9F9F9;}
</style>
<g>
	<path class="st0" d="M0,139v23h23C10.3,162,0,151.7,0,139z"/>
	<path class="st0" d="M202.7,57c1.5,0,2.7-0.6,3.6-1.7c0.8-1.1,1.3-2.7,1.3-4.7s-0.4-3.5-1.3-4.7c-0.9-1.2-2.1-1.7-3.6-1.7
		s-2.7,0.6-3.6,1.7c-0.9,1.2-1.3,2.7-1.3,4.7s0.4,3.5,1.3,4.7C200,56.5,201.2,57,202.7,57z"/>
	<path class="st0" d="M23,0H0v23C0,10.3,10.3,0,23,0z"/>
	<path class="st0" d="M269,44.6c-0.3-0.1-0.7-0.2-1.3-0.3c-0.5-0.1-1.2-0.1-2.1-0.1c-1.7,0-3,0.5-3.9,1.6c-0.9,1.1-1.4,2.6-1.4,4.4
		c0,1,0.1,1.9,0.4,2.6s0.6,1.3,1,1.8c0.2,0.3,0.5,0.5,0.8,0.7l6.4-8.9L269,44.6L269,44.6z"/>
	<path class="st0" d="M23,2.9c-11,0-20,9-20,20V139c0,11,9,20,20,20h165.2l32.3-45c-5.5-2-8.4-7.2-8.4-12.1
		c0-7.1,5.8-13.2,14.1-13.2c4,0,7.3,1.6,9.5,4l25.1-34.9c-0.5-0.3-1-0.7-1.5-1.2c-0.7-0.7-1.2-1.6-1.6-2.6c-0.4-1.1-0.6-2.3-0.6-3.8
		c0-1.3,0.2-2.5,0.6-3.5c0.4-1.1,0.9-2,1.7-2.8c0.7-0.8,1.6-1.4,2.7-1.8c1.1-0.4,2.2-0.7,3.6-0.7c1.5,0,2.7,0.1,3.8,0.3
		c1,0.2,1.8,0.3,2.4,0.5L300,3L23,2.9L23,2.9z M252.7,59.4h-3.1V41.9h3.1V59.4z M253.2,33.2l2,2l-4.7,4.6l-1.6-1.4L253.2,33.2z
		 M241.4,53.2c-0.6-0.4-1.6-1-3-1.5c-0.7-0.3-1.3-0.5-1.9-0.8c-0.6-0.3-1.1-0.6-1.6-1c-0.4-0.4-0.8-0.8-1.1-1.4
		c-0.3-0.5-0.4-1.2-0.4-2c0-1.5,0.6-2.8,1.7-3.7c1.1-0.9,2.7-1.4,4.7-1.4c0.5,0,1,0,1.5,0.1s1,0.1,1.4,0.2c0.4,0.1,0.8,0.2,1.1,0.3
		c0.3,0.1,0.6,0.2,0.8,0.2l-0.6,2.7c-0.3-0.2-0.9-0.4-1.6-0.6s-1.6-0.3-2.6-0.3c-0.9,0-1.6,0.2-2.3,0.5s-1,0.9-1,1.6
		c0,0.4,0.1,0.7,0.2,1c0.1,0.3,0.4,0.6,0.7,0.8c0.3,0.2,0.7,0.5,1.1,0.7c0.4,0.2,1,0.4,1.6,0.6c0.8,0.3,1.6,0.6,2.2,0.9
		c0.7,0.3,1.2,0.7,1.7,1.1c0.5,0.4,0.8,0.9,1.1,1.5c0.2,0.6,0.4,1.3,0.4,2.1c0,1.6-0.6,2.8-1.8,3.7c-1.2,0.9-2.9,1.2-5.1,1.2
		c-1.5,0-2.8-0.1-3.6-0.4c-0.9-0.3-1.5-0.5-1.8-0.6l0.6-2.7c0.4,0.1,0.9,0.3,1.7,0.6c0.8,0.4,1.8,0.5,3.1,0.5c1.3,0,2.2-0.2,2.8-0.5
		c0.6-0.3,0.9-0.9,0.9-1.6C242.3,54.2,242,53.6,241.4,53.2z M218.1,41.8c1.2-0.2,2.6-0.3,4.1-0.3c1.4,0,2.5,0.2,3.5,0.6
		c0.9,0.4,1.7,0.9,2.2,1.6s0.9,1.6,1.2,2.5c0.2,1,0.3,2.1,0.3,3.3v9.8h-3.1v-9.2c0-1.1-0.1-2-0.2-2.8c-0.1-0.8-0.4-1.4-0.7-1.9
		c-0.3-0.5-0.8-0.8-1.3-1c-0.6-0.2-1.3-0.3-2.1-0.3c-0.3,0-0.7,0-1,0c-0.4,0-0.7,0.1-1,0.1s-0.6,0.1-0.9,0.1s-0.4,0.1-0.6,0.1v14.8
		h-3.1V42.4h-0.2C215.9,42.2,216.9,42,218.1,41.8z M54.3,122.3c0-1.8,0-41.9,0-41.9s0-37.1,0-41c0-0.4,0.1-0.7,0.2-1l42.6,42.2
		l-42.7,42.3C54.3,122.7,54.3,122.5,54.3,122.3z M129.4,82.5c-1.7,0.9-12.4,7.1-16.2,9.3l-11.3-11.2l11.2-11.2
		c4,2.3,14.8,8.6,16.4,9.3C131.3,79.7,131.5,81.3,129.4,82.5z M99.5,78.2L58.8,37.9c4.9,2.9,34.6,20,34.6,20l16.7,9.7L99.5,78.2z
		 M110.1,93.5l-16.6,9.6c0,0-27,15.5-34.3,19.8l40.3-40L110.1,93.5z M195,46.8c0.4-1.1,1-2.1,1.7-2.9c0.7-0.8,1.6-1.4,2.6-1.9
		c1-0.4,2.1-0.7,3.3-0.7c1.2,0,2.3,0.2,3.3,0.7s1.9,1.1,2.6,1.9c0.7,0.8,1.3,1.8,1.7,2.9c0.4,1.2,0.6,2.4,0.6,3.8
		c0,1.4-0.2,2.6-0.6,3.8c-0.4,1.1-1,2.1-1.7,2.9s-1.6,1.4-2.6,1.9c-1,0.4-2.1,0.7-3.3,0.7c-1.2,0-2.3-0.2-3.3-0.7
		c-1-0.4-1.9-1.1-2.6-1.9s-1.3-1.8-1.7-2.9c-0.4-1.1-0.6-2.4-0.6-3.8C194.4,49.2,194.6,48,195,46.8z M179.9,46.9
		c0.4-1.1,0.9-2.1,1.7-2.9c0.7-0.8,1.6-1.5,2.6-1.9c1-0.5,2.2-0.7,3.5-0.7c0.8,0,1.6,0.1,2.4,0.2c0.8,0.1,1.5,0.3,2.3,0.6l-0.7,2.7
		c-0.5-0.2-1-0.4-1.6-0.5c-0.6-0.1-1.3-0.2-2-0.2c-1.7,0-3.1,0.6-4,1.6c-0.9,1.1-1.4,2.7-1.4,4.8c0,0.9,0.1,1.8,0.3,2.6
		c0.2,0.8,0.6,1.5,1,2c0.5,0.6,1,1,1.8,1.3c0.7,0.3,1.6,0.5,2.6,0.5c0.8,0,1.6-0.1,2.3-0.2c0.7-0.2,1.2-0.3,1.6-0.5l0.4,2.6
		c-0.2,0.1-0.4,0.2-0.8,0.3c-0.4,0.1-0.7,0.2-1.1,0.3c-0.4,0.1-0.9,0.1-1.4,0.2c-0.5,0.1-1.2,0.1-1.6,0.1c-1.4,0-2.7-0.2-3.7-0.7
		c-1.1-0.5-2-1.1-2.7-1.9s-1.3-1.8-1.6-2.9c-0.4-1.1-0.5-2.3-0.5-3.7C179.3,49.3,179.5,48,179.9,46.9z M192.3,76.4
		c3,0,5.8,0.4,8.4,1.2c4.1,1.2,6,2.6,7.2,3.4l-4.6,4.3l-1.9,0.4l1.4-2.2c-1.9-1.8-5.3-5.1-11.7-5.1c-8.7,0-15.2,6.6-15.2,16.2
		c0,10.3,7.5,20,19.4,20c3.5,0,5.3-0.7,7-1.4v-8.8l-8.3,0.4l4.4-2.4H210l-1.4,1.4c-0.4,0.3-0.4,0.4-0.5,0.9
		c-0.1,0.5-0.1,2.1-0.1,2.6v6.7h-0.1l-7.8,1.8c-3.2,0.5-6,0.9-9,0.9c-15.1,0-20.9-11.1-20.9-19.8C170.2,86.3,178.4,76.4,192.3,76.4z
		"/>
	<path class="st0" d="M224.7,90.3c-1.8,0-3.6,0.7-4.9,1.9c-2.1,1.9-2.5,4.3-2.5,6.7c0,4,1.5,9.8,4.9,12.7l10.3-14.4
		C231.2,93.5,228.7,90.3,224.7,90.3z"/>
	<path class="st1" d="M23,159c-11,0-20-9-20-20V22.9c0-11,9-20,20-20V3h277l2.2-3H23C10.3,0,0,10.3,0,23v116c0,12.7,10.3,23,23,23
		h163l2.2-3H23z"/>
	<path class="st1" d="M54.5,38.4c-0.1,0.3-0.2,0.6-0.2,1c0,3.9,0,41,0,41s0,40.1,0,41.9c0,0.2,0,0.4,0.1,0.6l42.7-42.3L54.5,38.4z"
		/>
	<path class="st1" d="M58.8,37.9l40.7,40.3l10.6-10.6l-16.7-9.7C93.4,57.9,63.7,40.8,58.8,37.9z"/>
	<path class="st1" d="M59.2,122.9c7.3-4.2,34.3-19.8,34.3-19.8l16.6-9.6L99.5,82.9L59.2,122.9z"/>
	<path class="st1" d="M101.9,80.6l11.3,11.2c3.8-2.2,14.5-8.4,16.2-9.3c2.1-1.2,1.9-2.8,0.1-3.8c-1.5-0.7-12.3-7-16.4-9.3
		L101.9,80.6z"/>
	<path class="st2" d="M226.2,88.7c-8.3,0-14.1,6.1-14.1,13.2c0,4.8,2.9,10.1,8.4,12.1l1.7-2.4c-3.4-2.8-4.9-8.7-4.9-12.7
		c0-2.4,0.4-4.8,2.5-6.7c1.3-1.2,3.1-1.9,4.9-1.9c4,0,6.5,3.2,7.8,6.9l3.2-4.5C233.5,90.3,230.2,88.7,226.2,88.7z"/>
	<path class="st2" d="M191.1,116.7c3,0,5.8-0.4,9-0.9l7.8-1.8h0.1v-6.7c0-0.5,0-2.1,0.1-2.6c0.1-0.5,0.1-0.6,0.5-0.9l1.4-1.4h-11.6
		l-4.4,2.4l8.3-0.4v8.8c-1.7,0.7-3.5,1.4-7,1.4c-11.9,0-19.4-9.7-19.4-20c0-9.6,6.5-16.2,15.2-16.2c6.4,0,9.8,3.3,11.7,5.1l-1.4,2.2
		l1.9-0.4l4.6-4.3c-1.2-0.8-3.1-2.2-7.2-3.4c-2.6-0.8-5.4-1.2-8.4-1.2c-13.9,0-22.1,9.9-22.1,20.5
		C170.2,105.6,176,116.7,191.1,116.7z"/>
	<path class="st1" d="M181.4,57.2c0.7,0.8,1.6,1.4,2.7,1.9c1,0.5,2.3,0.7,3.7,0.7c0.4,0,1.1,0,1.6-0.1c0.5-0.1,1-0.1,1.4-0.2
		c0.4-0.1,0.7-0.2,1.1-0.3c0.4-0.1,0.6-0.2,0.8-0.3l-0.4-2.6c-0.4,0.2-0.9,0.3-1.6,0.5c-0.7,0.1-1.5,0.2-2.3,0.2
		c-1,0-1.9-0.2-2.6-0.5c-0.8-0.3-1.3-0.7-1.8-1.3c-0.4-0.5-0.8-1.2-1-2c-0.2-0.8-0.3-1.7-0.3-2.6c0-2.1,0.5-3.7,1.4-4.8
		c0.9-1,2.3-1.6,4-1.6c0.7,0,1.4,0.1,2,0.2c0.6,0.1,1.1,0.3,1.6,0.5l0.7-2.7c-0.8-0.3-1.5-0.5-2.3-0.6c-0.8-0.1-1.6-0.2-2.4-0.2
		c-1.3,0-2.5,0.2-3.5,0.7c-1,0.4-1.9,1.1-2.6,1.9c-0.8,0.8-1.3,1.8-1.7,2.9c-0.4,1.1-0.6,2.4-0.6,3.7c0,1.4,0.1,2.6,0.5,3.7
		C180.1,55.4,180.7,56.4,181.4,57.2z"/>
	<path class="st1" d="M196.7,57.3c0.7,0.8,1.6,1.5,2.6,1.9c1,0.5,2.1,0.7,3.3,0.7c1.2,0,2.3-0.3,3.3-0.7c1-0.5,1.9-1.1,2.6-1.9
		s1.3-1.8,1.7-2.9c0.4-1.2,0.6-2.4,0.6-3.8c0-1.4-0.2-2.6-0.6-3.8c-0.4-1.1-1-2.1-1.7-2.9c-0.7-0.8-1.6-1.4-2.6-1.9
		s-2.1-0.7-3.3-0.7c-1.2,0-2.3,0.3-3.3,0.7c-1,0.5-1.9,1.1-2.6,1.9c-0.7,0.8-1.3,1.8-1.7,2.9c-0.4,1.2-0.6,2.4-0.6,3.8
		c0,1.4,0.2,2.7,0.6,3.8C195.4,55.5,196,56.5,196.7,57.3z M199.1,45.9c0.9-1.1,2.1-1.7,3.6-1.7s2.7,0.5,3.6,1.7
		c0.9,1.2,1.3,2.7,1.3,4.7s-0.5,3.6-1.3,4.7c-0.9,1.1-2.1,1.7-3.6,1.7s-2.7-0.5-3.6-1.7c-0.9-1.2-1.3-2.7-1.3-4.7
		S198.2,47.1,199.1,45.9z"/>
	<path class="st1" d="M215.4,59.2h3.1V44.4c0.2,0,0.3-0.1,0.6-0.1s0.6-0.1,0.9-0.1s0.6-0.1,1-0.1c0.3,0,0.7,0,1,0
		c0.8,0,1.5,0.1,2.1,0.3c0.5,0.2,1,0.5,1.3,1c0.3,0.5,0.6,1.1,0.7,1.9c0.1,0.8,0.2,1.7,0.2,2.8v9.2h3.1v-9.8c0-1.2-0.1-2.3-0.3-3.3
		c-0.3-0.9-0.7-1.8-1.2-2.5s-1.3-1.2-2.2-1.6c-1-0.4-2.1-0.6-3.5-0.6c-1.5,0-2.9,0.1-4.1,0.3c-1.2,0.2-2.2,0.4-2.9,0.6h0.2V59.2z"/>
	<path class="st1" d="M241.4,56.6c-0.6,0.3-1.5,0.5-2.8,0.5c-1.3,0-2.3-0.1-3.1-0.5c-0.8-0.3-1.3-0.5-1.7-0.6l-0.6,2.7
		c0.3,0.1,0.9,0.3,1.8,0.6c0.8,0.3,2.1,0.4,3.6,0.4c2.2,0,3.9-0.3,5.1-1.2c1.2-0.9,1.8-2.1,1.8-3.7c0-0.8-0.2-1.5-0.4-2.1
		c-0.3-0.6-0.6-1.1-1.1-1.5c-0.5-0.4-1-0.8-1.7-1.1c-0.6-0.3-1.4-0.6-2.2-0.9c-0.6-0.2-1.2-0.4-1.6-0.6c-0.4-0.2-0.8-0.5-1.1-0.7
		c-0.3-0.2-0.6-0.5-0.7-0.8c-0.1-0.3-0.2-0.6-0.2-1c0-0.7,0.3-1.3,1-1.6s1.4-0.5,2.3-0.5c1,0,1.9,0.1,2.6,0.3s1.3,0.4,1.6,0.6
		l0.6-2.7c-0.2,0-0.5-0.1-0.8-0.2c-0.3-0.1-0.7-0.2-1.1-0.3c-0.4-0.1-0.9-0.1-1.4-0.2s-1-0.1-1.5-0.1c-2,0-3.6,0.5-4.7,1.4
		c-1.1,0.9-1.7,2.2-1.7,3.7c0,0.8,0.1,1.5,0.4,2c0.3,0.6,0.7,1,1.1,1.4c0.5,0.4,1,0.7,1.6,1c0.6,0.3,1.2,0.5,1.9,0.8
		c1.4,0.5,2.4,1.1,3,1.5c0.6,0.4,0.9,1,0.9,1.8C242.3,55.7,242,56.3,241.4,56.6z"/>
	<polygon class="st1" points="255.2,35.2 253.2,33.2 248.9,38.4 250.5,39.8 	"/>
	<rect x="249.6" y="41.9" class="st1" width="3.1" height="17.5"/>
	<path class="st1" d="M265.7,41.4c-1.4,0-2.5,0.3-3.6,0.7c-1.1,0.4-2,1-2.7,1.8c-0.8,0.8-1.3,1.7-1.7,2.8c-0.4,1-0.6,2.2-0.6,3.5
		c0,1.5,0.2,2.7,0.6,3.8c0.4,1,0.9,1.9,1.6,2.6c0.4,0.4,0.9,0.8,1.5,1.2l1.8-2.5c-0.3-0.2-0.6-0.4-0.8-0.7c-0.4-0.5-0.7-1.1-1-1.8
		s-0.4-1.6-0.4-2.6c0-1.8,0.5-3.3,1.4-4.4c0.9-1.1,2.2-1.6,3.9-1.6c0.9,0,1.6,0,2.1,0.1c0.6,0.1,1,0.2,1.3,0.3h-0.1v1.8l3-4.2
		c-0.7-0.2-1.5-0.3-2.4-0.5C268.4,41.5,267.2,41.4,265.7,41.4z"/>
</g>
</svg>
