<?xml version="1.0" encoding="utf-8"?>
<!-- Generator: Adobe Illustrator 19.0.0, SVG Export Plug-In . SVG Version: 6.00 Build 0)  -->
<svg version="1.1" id="Layer_1" xmlns="http://www.w3.org/2000/svg" xmlns:xlink="http://www.w3.org/1999/xlink" x="0px" y="0px"
	 viewBox="0 0 489.2 162" style="enable-background:new 0 0 489.2 162;" xml:space="preserve">
<style type="text/css">
	.st0{fill:#FFFFFF;}
	.st1{clip-path:url(#SVGID_2_);}
	.st2{fill:#F9F9F9;}
</style>
<g>
	<g>
		<path class="st0" d="M466.3,162H23c-12.7,0-23-10.3-23-23V23C0,10.3,10.3,0,23,0h443.3c12.7,0,23,10.3,23,23V139
			C489.2,151.7,478.9,162,466.3,162z M23,2.9c-11,0-20,9-20,20V139c0,11,9,20,20,20h443.3c11,0,20-9,20-20V23c0-11-9-20-20-20H23z"
			/>
	</g>
	<g>
		<g id="PLAY_1_">
			<defs>
				<path id="SVGID_1_" d="M111.6,68.5L93.4,57.9c0,0-33.3-19.2-35.2-20.4c-2-1.1-3.9-0.4-3.9,1.9c0,3.9,0,41,0,41s0,40.1,0,41.9
					c0,1.8,1.4,2.5,3.1,1.6c1.7-1,36.1-20.8,36.1-20.8l18.3-10.5c0,0,15.5-9,17.6-10.1c2.1-1.2,1.9-2.8,0.1-3.8
					C127.6,77.8,111.6,68.5,111.6,68.5z"/>
			</defs>
			<clipPath id="SVGID_2_">
				<use xlink:href="#SVGID_1_"  style="overflow:visible;"/>
			</clipPath>
			<g class="st1">
				<polygon class="st0" points="51.8,125.4 97.1,80.6 51.8,35.7 51.8,80.6 				"/>
			</g>
			<g class="st1">
				<polygon class="st0" points="54.2,33.3 99.5,78.2 111.6,66.1 93.4,55.6 54.2,33 				"/>
			</g>
			<g class="st1">
				<polygon class="st0" points="54.2,127.8 54.2,128.1 93.4,105.5 111.6,95 99.5,82.9 				"/>
			</g>
			<g class="st1">
				<polygon class="st0" points="114,92.6 134.9,80.6 114,68.5 101.9,80.6 				"/>
			</g>
		</g>
		<g>
			<g>
				<g>
					<g>
						<path class="st2" d="M362.6,115.6c-1.7,0-3.3-0.3-4.7-0.9c-1.4-0.6-2.6-1.6-3.5-2.9h-0.3c0.2,1.5,0.3,3,0.3,4.3v10.7h-4V89
							h3.2l0.5,3.6h0.2c1-1.4,2.2-2.5,3.6-3.1c1.3-0.6,2.9-1,4.6-1c3.5,0,6.1,1.2,8,3.5c1.9,2.4,2.8,5.7,2.8,10c0,4.3-1,7.6-2.9,10
							C368.6,114.4,366,115.6,362.6,115.6z M362,91.9c-2.7,0-4.6,0.7-5.8,2.2c-1.2,1.5-1.8,3.8-1.8,7.1v0.9c0,3.7,0.6,6.3,1.8,7.9
							c1.2,1.6,3.2,2.4,5.9,2.4c2.3,0,4-0.9,5.3-2.7c1.3-1.8,1.9-4.3,1.9-7.6c0-3.3-0.6-5.8-1.9-7.5C366.1,92.8,364.3,91.9,362,91.9
							z"/>
					</g>
					<g>
						<path class="st2" d="M382.6,115.2h-4V78.1h4V115.2z"/>
					</g>
					<g>
						<path class="st2" d="M405.3,115.2l-0.8-3.7h-0.2c-1.3,1.6-2.6,2.7-3.9,3.3c-1.3,0.6-2.9,0.9-4.8,0.9c-2.6,0-4.6-0.7-6.1-2
							c-1.5-1.3-2.2-3.2-2.2-5.7c0-5.3,4.2-8,12.6-8.3l4.4-0.1v-1.6c0-2-0.4-3.6-1.3-4.5c-0.9-1-2.3-1.5-4.2-1.5
							c-2.2,0-4.6,0.7-7.4,2l-1.2-3c1.3-0.7,2.7-1.2,4.2-1.6c1.5-0.4,3.1-0.6,4.6-0.6c3.1,0,5.4,0.7,6.9,2.1
							c1.5,1.4,2.2,3.6,2.2,6.6v17.8H405.3z M396.4,112.4c2.5,0,4.4-0.7,5.8-2c1.4-1.3,2.1-3.2,2.1-5.7v-2.4l-4,0.2
							c-3.1,0.1-5.4,0.6-6.8,1.5c-1.4,0.9-2.1,2.2-2.1,4c0,1.4,0.4,2.5,1.3,3.3C393.6,112,394.8,112.4,396.4,112.4z"/>
					</g>
					<g>
						<path class="st2" d="M410.5,89h4.2l5.7,14.9c1.3,3.4,2,5.9,2.3,7.4h0.2c0.2-0.8,0.6-2.2,1.3-4.2c0.7-2,2.8-8,6.5-18.1h4.2
							l-11.2,29.7c-1.1,2.9-2.4,5-3.9,6.3c-1.5,1.2-3.3,1.8-5.5,1.8c-1.2,0-2.4-0.1-3.6-0.4v-3.2c0.9,0.2,1.9,0.3,2.9,0.3
							c2.7,0,4.7-1.5,5.8-4.6l1.5-3.7L410.5,89z"/>
					</g>
				</g>
				<g>
					<g>
						<path class="st2" d="M289.3,91.5c1.3,1,3.9,3.2,3.9,7.4c0,4-2.3,6-4.6,7.8c-0.7,0.7-1.5,1.5-1.5,2.7c0,1.2,0.8,1.9,1.4,2.3
							l2,1.5c2.4,2,4.6,3.9,4.6,7.6c0,5.1-5,10.3-14.4,10.3c-7.9,0-11.7-3.8-11.7-7.8c0-2,1-4.7,4.2-6.7c3.4-2.1,8-2.3,10.4-2.5
							c-0.8-1-1.6-2-1.6-3.7c0-0.9,0.3-1.5,0.5-2.1c-0.6,0.1-1.2,0.1-1.7,0.1c-5.8,0-9.1-4.3-9.1-8.6c0-2.5,1.1-5.3,3.5-7.3
							c3.1-2.6,6.8-3,9.8-3h11.2l-3.5,2H289.3z M285.4,115.7c-0.4-0.1-0.7-0.1-1.3-0.1c-0.5,0-3.4,0.1-5.7,0.9
							c-1.2,0.4-4.7,1.7-4.7,5.6c0,3.9,3.8,6.7,9.6,6.7c5.2,0,8-2.5,8-5.9C291.4,120.1,289.6,118.7,285.4,115.7z M287,105.3
							c1.3-1.3,1.4-3,1.4-4c0-3.9-2.3-10-6.9-10c-1.4,0-2.9,0.7-3.8,1.8c-0.9,1.1-1.2,2.6-1.2,4c0,3.7,2.1,9.7,6.8,9.7
							C284.7,106.9,286.1,106.2,287,105.3z"/>
					</g>
					<g>
						<path class="st2" d="M254.9,114.8c-8.7,0-13.3-6.8-13.3-12.9c0-7.1,5.8-13.2,14.1-13.2c8,0,13,6.3,13,12.9
							C268.8,108,263.8,114.8,254.9,114.8z M261.8,110.4c1.3-1.7,1.6-3.9,1.6-6.1c0-4.8-2.3-14-9.1-14c-1.8,0-3.6,0.7-4.9,1.9
							c-2.1,1.9-2.5,4.3-2.5,6.7c0,5.4,2.7,14.3,9.3,14.3C258.3,113.2,260.5,112.2,261.8,110.4z"/>
					</g>
					<g>
						<path class="st2" d="M225.4,114.8c-8.7,0-13.3-6.8-13.3-12.9c0-7.1,5.8-13.2,14.1-13.2c8,0,13,6.3,13,12.9
							C239.2,108,234.3,114.8,225.4,114.8z M232.2,110.4c1.3-1.7,1.6-3.9,1.6-6.1c0-4.8-2.3-14-9.1-14c-1.8,0-3.6,0.7-4.9,1.9
							c-2.1,1.9-2.5,4.3-2.5,6.7c0,5.4,2.7,14.3,9.3,14.3C228.8,113.2,231,112.2,232.2,110.4z"/>
					</g>
					<g>
						<path class="st2" d="M207.9,114l-7.8,1.8c-3.2,0.5-6,0.9-9,0.9c-15.1,0-20.9-11.1-20.9-19.8c0-10.6,8.2-20.5,22.1-20.5
							c3,0,5.8,0.4,8.4,1.2c4.1,1.2,6,2.6,7.2,3.4l-4.6,4.3l-1.9,0.4l1.4-2.2c-1.9-1.8-5.3-5.1-11.7-5.1c-8.7,0-15.2,6.6-15.2,16.2
							c0,10.3,7.5,20,19.4,20c3.5,0,5.3-0.7,7-1.4v-8.8l-8.3,0.4l4.4-2.4H210l-1.4,1.4c-0.4,0.3-0.4,0.4-0.5,0.9
							c-0.1,0.5-0.1,2.1-0.1,2.6V114z"/>
					</g>
					<g>
						<path class="st2" d="M306.6,112.4c-1.8-0.2-2.2-0.5-2.2-2.6v-0.6V78.8c0-0.1,0-0.2,0-0.4c0.2-1.9,0.8-2.2,2.5-3.2h-7.8l-4.1,2
							h4.2v0l0,0v32v1.8c0,1.1-0.2,1.3-1.5,2.9h9.7l2-1.2C308.5,112.6,307.6,112.5,306.6,112.4z"/>
					</g>
					<g>
						<path class="st2" d="M328.9,112.9c-0.6,0.3-1.2,0.7-1.8,1c-1.8,0.8-3.6,1-5.3,1c-1.7,0-4.5-0.1-7.2-2.1
							c-3.9-2.7-5.5-7.4-5.5-11.5c0-8.4,6.9-12.6,12.5-12.6c2,0,4,0.5,5.6,1.5c2.7,1.8,3.4,4.1,3.8,5.4l-12.8,5.2l-4.2,0.3
							c1.4,6.9,6,10.9,11.2,10.9c2.8,0,4.8-1,6.6-1.9L328.9,112.9z M323.8,96.7c1-0.4,1.6-0.7,1.6-1.5c0-2.2-2.4-4.7-5.4-4.7
							c-2.2,0-6.3,1.7-6.3,7.6c0,0.9,0.1,1.9,0.2,2.9L323.8,96.7z"/>
					</g>
					<g>
						<g>
							<path class="st2" d="M334.2,89.1v3.6h-0.4v-3.6h-1.2v-0.4h2.8v0.4H334.2z"/>
						</g>
						<g>
							<path class="st2" d="M339.1,92.7v-3.6h0l-1.1,3.6h-0.3l-1.1-3.6h0v3.6h-0.4v-4h0.7l1,3.2h0l1-3.2h0.7v4H339.1z"/>
						</g>
					</g>
				</g>
			</g>
			<g>
				<g>
					<path class="st0" d="M187.8,59.8c-1.4,0-2.7-0.2-3.7-0.7c-1.1-0.5-2-1.1-2.7-1.9c-0.7-0.8-1.3-1.8-1.6-2.9
						c-0.4-1.1-0.5-2.3-0.5-3.7c0-1.3,0.2-2.6,0.6-3.7c0.4-1.1,0.9-2.1,1.7-2.9c0.7-0.8,1.6-1.5,2.6-1.9c1-0.5,2.2-0.7,3.5-0.7
						c0.8,0,1.6,0.1,2.4,0.2c0.8,0.1,1.5,0.3,2.3,0.6l-0.7,2.7c-0.5-0.2-1-0.4-1.6-0.5c-0.6-0.1-1.3-0.2-2-0.2c-1.7,0-3.1,0.6-4,1.6
						c-0.9,1.1-1.4,2.7-1.4,4.8c0,0.9,0.1,1.8,0.3,2.6c0.2,0.8,0.6,1.5,1,2c0.5,0.6,1,1,1.8,1.3c0.7,0.3,1.6,0.5,2.6,0.5
						c0.8,0,1.6-0.1,2.3-0.2c0.7-0.2,1.2-0.3,1.6-0.5l0.4,2.6c-0.2,0.1-0.4,0.2-0.8,0.3s-0.7,0.2-1.1,0.3c-0.4,0.1-0.9,0.1-1.4,0.2
						S188.2,59.8,187.8,59.8z"/>
				</g>
				<g>
					<path class="st0" d="M210.8,50.6c0,1.4-0.2,2.6-0.6,3.8c-0.4,1.1-1,2.1-1.7,2.9c-0.7,0.8-1.6,1.4-2.6,1.9
						c-1,0.4-2.1,0.7-3.3,0.7s-2.3-0.2-3.3-0.7c-1-0.4-1.9-1.1-2.6-1.9c-0.7-0.8-1.3-1.8-1.7-2.9c-0.4-1.1-0.6-2.4-0.6-3.8
						c0-1.4,0.2-2.6,0.6-3.8c0.4-1.1,1-2.1,1.7-2.9c0.7-0.8,1.6-1.4,2.6-1.9c1-0.4,2.1-0.7,3.3-0.7s2.3,0.2,3.3,0.7s1.9,1.1,2.6,1.9
						c0.7,0.8,1.3,1.8,1.7,2.9C210.6,48,210.8,49.2,210.8,50.6z M207.6,50.6c0-2-0.4-3.5-1.3-4.7c-0.9-1.2-2.1-1.7-3.6-1.7
						c-1.5,0-2.7,0.6-3.6,1.7c-0.9,1.2-1.3,2.7-1.3,4.7c0,2,0.4,3.5,1.3,4.7c0.9,1.2,2.1,1.7,3.6,1.7c1.5,0,2.7-0.6,3.6-1.7
						C207.1,54.2,207.6,52.6,207.6,50.6z"/>
				</g>
				<g>
					<path class="st0" d="M215.2,42.4c0.7-0.2,1.7-0.4,2.9-0.6c1.2-0.2,2.6-0.3,4.1-0.3c1.4,0,2.5,0.2,3.5,0.6
						c0.9,0.4,1.7,0.9,2.2,1.6s0.9,1.6,1.2,2.5c0.2,1,0.3,2.1,0.3,3.3v9.8h-3.1v-9.2c0-1.1-0.1-2-0.2-2.8c-0.1-0.8-0.4-1.4-0.7-1.9
						c-0.3-0.5-0.8-0.8-1.3-1c-0.6-0.2-1.3-0.3-2.1-0.3c-0.3,0-0.7,0-1,0c-0.4,0-0.7,0.1-1,0.1c-0.3,0-0.6,0.1-0.9,0.1
						c-0.3,0-0.4,0.1-0.6,0.1v14.8h-3.1V42.4z"/>
				</g>
				<g>
					<path class="st0" d="M238.6,57.1c1.3,0,2.2-0.2,2.8-0.5s0.9-0.9,0.9-1.6c0-0.8-0.3-1.4-0.9-1.8c-0.6-0.4-1.6-1-3-1.5
						c-0.7-0.3-1.3-0.5-1.9-0.8c-0.6-0.3-1.1-0.6-1.6-1c-0.4-0.4-0.8-0.8-1.1-1.4c-0.3-0.5-0.4-1.2-0.4-2c0-1.5,0.6-2.8,1.7-3.7
						c1.1-0.9,2.7-1.4,4.7-1.4c0.5,0,1,0,1.5,0.1c0.5,0.1,1,0.1,1.4,0.2c0.4,0.1,0.8,0.2,1.1,0.3c0.3,0.1,0.6,0.2,0.8,0.2l-0.6,2.7
						c-0.3-0.2-0.9-0.4-1.6-0.6c-0.7-0.2-1.6-0.3-2.6-0.3c-0.9,0-1.6,0.2-2.3,0.5c-0.7,0.3-1,0.9-1,1.6c0,0.4,0.1,0.7,0.2,1
						c0.1,0.3,0.4,0.6,0.7,0.8c0.3,0.2,0.7,0.5,1.1,0.7c0.4,0.2,1,0.4,1.6,0.6c0.8,0.3,1.6,0.6,2.2,0.9c0.7,0.3,1.2,0.7,1.7,1.1
						c0.5,0.4,0.8,0.9,1.1,1.5c0.2,0.6,0.4,1.3,0.4,2.1c0,1.6-0.6,2.8-1.8,3.7s-2.9,1.2-5.1,1.2c-1.5,0-2.8-0.1-3.6-0.4
						c-0.9-0.3-1.5-0.5-1.8-0.6l0.6-2.7c0.4,0.1,0.9,0.3,1.7,0.6C236.3,57,237.3,57.1,238.6,57.1z"/>
				</g>
				<g>
					<path class="st0" d="M255.2,35.2l-4.7,4.6l-1.6-1.4l4.3-5.2L255.2,35.2z M252.7,59.4h-3.1V41.9h3.1V59.4z"/>
				</g>
				<g>
					<path class="st0" d="M269,57.6c-0.3,0.2-0.8,0.4-1.6,0.7c-0.8,0.3-1.7,0.4-2.7,0.4c-1.1,0-2-0.2-3-0.5
						c-0.9-0.3-1.7-0.9-2.4-1.6c-0.7-0.7-1.2-1.6-1.6-2.6c-0.4-1.1-0.6-2.3-0.6-3.8c0-1.3,0.2-2.5,0.6-3.5c0.4-1.1,0.9-2,1.7-2.8
						c0.7-0.8,1.6-1.4,2.7-1.8c1.1-0.4,2.2-0.7,3.6-0.7c1.5,0,2.7,0.1,3.8,0.3c1.1,0.2,2,0.4,2.7,0.6V58c0,2.7-0.7,4.6-2.1,5.9
						c-1.4,1.2-3.5,1.8-6.3,1.8c-1.1,0-2.1-0.1-3.1-0.3c-1-0.2-1.8-0.4-2.5-0.6l0.6-2.7c0.6,0.2,1.4,0.5,2.3,0.7
						c0.9,0.2,1.9,0.3,2.8,0.3c1.9,0,3.2-0.4,4-1.1c0.8-0.7,1.2-1.9,1.2-3.5V57.6z M269,44.6c-0.3-0.1-0.7-0.2-1.3-0.3
						c-0.5-0.1-1.2-0.1-2.1-0.1c-1.7,0-3,0.5-3.9,1.6c-0.9,1.1-1.4,2.6-1.4,4.4c0,1,0.1,1.9,0.4,2.6c0.3,0.7,0.6,1.3,1,1.8
						c0.4,0.5,0.9,0.8,1.5,1c0.6,0.2,1.2,0.3,1.8,0.3c0.8,0,1.6-0.1,2.3-0.4c0.7-0.2,1.2-0.5,1.6-0.8V44.6z"/>
				</g>
				<g>
					<path class="st0" d="M291.4,58.9c-0.7,0.2-1.7,0.4-2.8,0.6c-1.2,0.2-2.5,0.3-4.1,0.3c-1.3,0-2.5-0.2-3.4-0.6
						c-0.9-0.4-1.7-0.9-2.2-1.7c-0.6-0.7-1-1.6-1.2-2.5c-0.2-1-0.4-2.1-0.4-3.2v-9.8h3.1V51c0,2.1,0.3,3.7,1,4.6
						c0.7,0.9,1.8,1.4,3.4,1.4c0.3,0,0.7,0,1,0c0.4,0,0.7-0.1,1-0.1c0.3,0,0.6-0.1,0.9-0.1c0.3,0,0.4-0.1,0.6-0.1V41.9h3.1V58.9z"/>
				</g>
				<g>
					<path class="st0" d="M295.8,50.6c0-1.5,0.2-2.9,0.7-4.1c0.5-1.2,1-2.1,1.8-2.9c0.7-0.8,1.6-1.3,2.6-1.7c1-0.4,2-0.6,3-0.6
						c2.4,0,4.2,0.7,5.4,2.2c1.3,1.5,1.9,3.7,1.9,6.7c0,0.1,0,0.3,0,0.5c0,0.2,0,0.4,0,0.6h-12c0.1,1.8,0.7,3.2,1.6,4.1
						c0.9,0.9,2.4,1.4,4.3,1.4c1.1,0,2-0.1,2.8-0.3c0.8-0.2,1.3-0.4,1.7-0.6l0.4,2.6c-0.4,0.2-1,0.4-2,0.6c-1,0.2-2,0.3-3.2,0.3
						c-1.5,0-2.8-0.2-4-0.7c-1.1-0.5-2-1.1-2.7-1.9c-0.7-0.8-1.2-1.8-1.6-2.9C296,53.2,295.8,52,295.8,50.6z M307.8,48.9
						c0-1.4-0.3-2.6-1.1-3.5c-0.7-0.9-1.7-1.4-3-1.4c-0.7,0-1.4,0.1-1.9,0.4c-0.5,0.3-1,0.6-1.4,1.1c-0.4,0.5-0.7,1-0.9,1.5
						c-0.2,0.6-0.4,1.2-0.4,1.8H307.8z"/>
				</g>
				<g>
					<path class="st0" d="M320.9,59.7c-1.9,0-3.3-0.5-4.1-1.2c-0.8-0.8-1.2-2-1.2-3.7v-21l3.1-0.5v21c0,0.5,0,0.9,0.1,1.3
						c0.1,0.3,0.2,0.6,0.4,0.8c0.2,0.2,0.5,0.4,0.8,0.5c0.3,0.1,0.8,0.2,1.2,0.3L320.9,59.7z"/>
				</g>
				<g>
					<path class="st0" d="M330.5,41.4c1.3,0,2.3,0.2,3.2,0.5c0.9,0.3,1.6,0.8,2.1,1.4c0.5,0.6,0.9,1.3,1.1,2.1
						c0.2,0.8,0.3,1.7,0.3,2.7v10.9c-0.3,0-0.6,0.1-1.1,0.2c-0.5,0.1-1,0.2-1.6,0.2c-0.6,0.1-1.3,0.1-2,0.2
						c-0.7,0.1-1.4,0.1-2.1,0.1c-1,0-1.9-0.1-2.7-0.3c-0.8-0.2-1.5-0.5-2.2-1c-0.6-0.4-1.1-1-1.4-1.7c-0.3-0.7-0.5-1.6-0.5-2.6
						c0-1,0.2-1.8,0.6-2.5c0.4-0.7,0.9-1.3,1.6-1.7c0.7-0.4,1.5-0.7,2.4-0.9c0.9-0.2,1.8-0.3,2.8-0.3c0.3,0,0.6,0,1,0.1
						c0.3,0,0.7,0.1,1,0.1c0.3,0.1,0.6,0.1,0.8,0.2c0.2,0,0.4,0.1,0.5,0.1v-0.9c0-0.5-0.1-1-0.2-1.5c-0.1-0.5-0.3-1-0.6-1.3
						c-0.3-0.4-0.7-0.7-1.2-0.9c-0.5-0.2-1.2-0.4-2-0.4c-1,0-1.9,0.1-2.7,0.2c-0.8,0.1-1.4,0.3-1.7,0.5l-0.4-2.6
						c0.4-0.2,1.1-0.4,2-0.5C328.3,41.5,329.4,41.4,330.5,41.4z M330.7,57.1c0.7,0,1.4,0,2-0.1c0.6,0,1-0.1,1.4-0.2v-5.2
						c-0.2-0.1-0.6-0.2-1.1-0.3c-0.5-0.1-1.1-0.1-1.8-0.1c-0.5,0-1,0-1.5,0.1c-0.5,0.1-1,0.2-1.4,0.4c-0.4,0.2-0.8,0.5-1.1,0.9
						c-0.3,0.4-0.4,0.9-0.4,1.5c0,1.1,0.4,1.9,1.1,2.3C328.5,56.9,329.5,57.1,330.7,57.1z"/>
				</g>
				<g>
					<path class="st0" d="M349.2,50.6c0-1.5,0.2-2.9,0.7-4.1c0.5-1.2,1-2.1,1.8-2.9c0.7-0.8,1.6-1.3,2.6-1.7c1-0.4,2-0.6,3-0.6
						c2.4,0,4.2,0.7,5.4,2.2c1.3,1.5,1.9,3.7,1.9,6.7c0,0.1,0,0.3,0,0.5c0,0.2,0,0.4,0,0.6h-12c0.1,1.8,0.7,3.2,1.6,4.1
						c0.9,0.9,2.4,1.4,4.3,1.4c1.1,0,2-0.1,2.8-0.3c0.8-0.2,1.3-0.4,1.7-0.6l0.4,2.6c-0.4,0.2-1,0.4-2,0.6c-1,0.2-2,0.3-3.2,0.3
						c-1.5,0-2.8-0.2-4-0.7c-1.1-0.5-2-1.1-2.7-1.9c-0.7-0.8-1.2-1.8-1.6-2.9S349.2,52,349.2,50.6z M361.2,48.9
						c0-1.4-0.3-2.6-1.1-3.5c-0.7-0.9-1.7-1.4-3-1.4c-0.7,0-1.4,0.1-1.9,0.4c-0.5,0.3-1,0.6-1.4,1.1c-0.4,0.5-0.7,1-0.9,1.5
						c-0.2,0.6-0.4,1.2-0.4,1.8H361.2z"/>
				</g>
				<g>
					<path class="st0" d="M368.9,42.4c0.7-0.2,1.7-0.4,2.9-0.6c1.2-0.2,2.6-0.3,4.1-0.3c1.4,0,2.5,0.2,3.5,0.6
						c0.9,0.4,1.7,0.9,2.2,1.6s0.9,1.6,1.2,2.5c0.2,1,0.3,2.1,0.3,3.3v9.8h-3.1v-9.2c0-1.1-0.1-2-0.2-2.8c-0.1-0.8-0.4-1.4-0.7-1.9
						c-0.3-0.5-0.8-0.8-1.3-1c-0.6-0.2-1.3-0.3-2.1-0.3c-0.3,0-0.7,0-1,0c-0.4,0-0.7,0.1-1,0.1c-0.3,0-0.6,0.1-0.9,0.1
						c-0.3,0-0.4,0.1-0.6,0.1v14.8h-3.1V42.4z"/>
				</g>
			</g>
		</g>
	</g>
</g>
</svg>
