<?xml version="1.0" encoding="utf-8"?>
<!-- Generator: Adobe Illustrator 19.0.0, SVG Export Plug-In . SVG Version: 6.00 Build 0)  -->
<svg version="1.1" id="Layer_1" xmlns="http://www.w3.org/2000/svg" xmlns:xlink="http://www.w3.org/1999/xlink" x="0px" y="0px"
	 viewBox="0 0 178.6 178.6" style="enable-background:new 0 0 178.6 178.6;" xml:space="preserve">
<style type="text/css">
	.st0{fill:none;}
	.st1{fill:#27FFDE;}
</style>
<g>
	<rect class="st0" width="178.6" height="178.6"/>
	<g>
		<path class="st1" d="M107.4,68.9L90.8,85.5L70,64.7c-1.4-1.4-3.8-1.4-5.2,0c-1.4,1.4-1.4,3.8,0,5.2l23.4,23.4
			c1.4,1.4,3.8,1.4,5.2,0l19.2-19.2c1.4-1.4,1.4-3.8,0-5.2C111.1,67.5,108.8,67.5,107.4,68.9z"/>
		<path class="st1" d="M167.3,34l-22.7-22.7c-0.6-0.6-1.3-0.9-2.1-0.9s-1.5,0.3-2.1,0.9L116.8,35l-0.9-0.9c-1.1-1.1-3-1.1-4.1,0
			l-9.6,9.6c-16-4.6-33.9-0.7-46.5,11.9c-12.5,12.5-16.5,30.2-12.1,46l-9.5,9.5c-0.6,0.6-0.9,1.3-0.9,2.1s0.3,1.5,0.9,2.1l0.9,0.9
			l-23.9,23.9c-1.1,1.1-1.1,3,0,4.1l22.7,22.7c0.6,0.6,1.3,0.9,2.1,0.9c0.8,0,1.5-0.3,2.1-0.9L61.8,143l0.9,0.9
			c0.6,0.6,1.3,0.9,2.1,0.9s1.5-0.3,2.1-0.9l9.5-9.5c15.8,4.4,33.5,0.3,45.9-12.1c12.3-12.3,16.4-29.7,12.2-45.4l10-10
			c1.1-1.1,1.1-3,0-4.1l-0.9-0.9l23.6-23.6C168.4,37,168.4,35.2,167.3,34z M35.9,160.7l-18.5-18.5l7.1-7.1L43,153.6L35.9,160.7z
			 M47.1,149.4l-18.5-18.5l10.3-10.3l18.5,18.5L47.1,149.4z M64.8,137.7l-24.5-24.5l5.4-5.4c2.3,5.3,5.6,10.2,9.9,14.5
			c4.3,4.3,9.3,7.6,14.6,9.9L64.8,137.7z M117.5,117.4c-15.7,15.7-41.3,15.7-57,0c-15.7-15.7-15.7-41.3,0-57
			c15.7-15.7,41.3-15.7,57,0S133.2,101.7,117.5,117.4z M132.5,70.7c-2.3-5.5-5.7-10.6-10.1-15.1c-4.2-4.2-9-7.4-14.1-9.7l5.6-5.6
			l0.5,0.5c0.1,0.1,0.2,0.3,0.3,0.4l22.7,22.7c0.1,0.1,0.3,0.2,0.4,0.3l0.6,0.6L132.5,70.7z M121,39.1l11.2-11.2l18.5,18.5
			l-11.2,11.2L121,39.1z M154.9,42.3l-18.5-18.5l6.2-6.2L161,36.1L154.9,42.3z"/>
	</g>
</g>
</svg>
